<svg width="31" height="7" viewBox="0 0 31 7" fill="none" xmlns="http://www.w3.org/2000/svg">
<path d="M0.96 6C0.818667 6 0.748 5.92933 0.748 5.788V0.66C0.748 0.521333 0.818667 0.452 0.96 0.452C1.09867 0.452 1.168 0.521333 1.168 0.66V2.776C1.288 2.592 1.45867 2.452 1.68 2.356C1.904 2.26 2.192 2.212 2.544 2.212H2.848C3.34667 2.212 3.71067 2.328 3.94 2.56C4.172 2.792 4.288 3.15733 4.288 3.656V4.556C4.288 5.05467 4.172 5.42 3.94 5.652C3.71067 5.884 3.34667 6 2.848 6H2.544C2.192 6 1.904 5.95333 1.68 5.86C1.45867 5.764 1.288 5.62267 1.168 5.436V5.788C1.168 5.92933 1.09867 6 0.96 6ZM2.544 5.58H2.848C3.22933 5.58 3.49467 5.50533 3.644 5.356C3.79333 5.204 3.868 4.93733 3.868 4.556V3.656C3.868 3.27467 3.792 3.00933 3.64 2.86C3.49067 2.708 3.22667 2.632 2.848 2.632H2.544C2.128 2.632 1.79467 2.69733 1.544 2.828C1.29333 2.95867 1.168 3.15733 1.168 3.424V4.804C1.17333 5.06267 1.30133 5.25733 1.552 5.388C1.80267 5.516 2.13333 5.58 2.544 5.58ZM5.98969 4.272V4.564C5.98969 4.94 6.06435 5.204 6.21369 5.356C6.36569 5.50533 6.63235 5.58 7.01369 5.58H7.66969C8.00569 5.58 8.24969 5.53733 8.40169 5.452C8.55635 5.364 8.64835 5.21333 8.67769 5C8.68835 4.93333 8.70969 4.88267 8.74169 4.848C8.77635 4.81333 8.82835 4.796 8.89769 4.796C8.96702 4.796 9.01902 4.816 9.05369 4.856C9.09102 4.89333 9.10569 4.94667 9.09769 5.016C9.06302 5.352 8.92835 5.6 8.69369 5.76C8.45902 5.92 8.11769 6 7.66969 6H7.01369C6.51502 6 6.14969 5.88533 5.91769 5.656C5.68569 5.424 5.56969 5.06 5.56969 4.564V3.66C5.56969 3.156 5.68569 2.78933 5.91769 2.56C6.14969 2.328 6.51502 2.21467 7.01369 2.22H7.66969C8.16835 2.22 8.53235 2.336 8.76169 2.568C8.99369 2.79733 9.10969 3.16133 9.10969 3.66V4.06C9.10969 4.20133 9.04035 4.272 8.90169 4.272H5.98969ZM7.01369 2.64C6.63235 2.63467 6.36569 2.708 6.21369 2.86C6.06435 3.00933 5.98969 3.276 5.98969 3.66V3.852H8.68969V3.66C8.68969 3.27867 8.61502 3.01333 8.46569 2.864C8.31635 2.71467 8.05102 2.64 7.66969 2.64H7.01369ZM10.81 4.272V4.564C10.81 4.94 10.8847 5.204 11.034 5.356C11.186 5.50533 11.4527 5.58 11.834 5.58H12.49C12.826 5.58 13.07 5.53733 13.222 5.452C13.3767 5.364 13.4687 5.21333 13.498 5C13.5087 4.93333 13.53 4.88267 13.562 4.848C13.5967 4.81333 13.6487 4.796 13.718 4.796C13.7873 4.796 13.8393 4.816 13.874 4.856C13.9113 4.89333 13.926 4.94667 13.918 5.016C13.8833 5.352 13.7487 5.6 13.514 5.76C13.2793 5.92 12.938 6 12.49 6H11.834C11.3353 6 10.97 5.88533 10.738 5.656C10.506 5.424 10.39 5.06 10.39 4.564V3.66C10.39 3.156 10.506 2.78933 10.738 2.56C10.97 2.328 11.3353 2.21467 11.834 2.22H12.49C12.9887 2.22 13.3527 2.336 13.582 2.568C13.814 2.79733 13.93 3.16133 13.93 3.66V4.06C13.93 4.20133 13.8607 4.272 13.722 4.272H10.81ZM11.834 2.64C11.4527 2.63467 11.186 2.708 11.034 2.86C10.8847 3.00933 10.81 3.276 10.81 3.66V3.852H13.51V3.66C13.51 3.27867 13.4353 3.01333 13.286 2.864C13.1367 2.71467 12.8713 2.64 12.49 2.64H11.834ZM15.7383 6C15.5143 6 15.4023 5.888 15.4023 5.664V0.912C15.4023 0.688 15.5143 0.576 15.7383 0.576C15.853 0.576 15.965 0.642666 16.0743 0.776L19.2903 4.92H19.1223V0.912C19.1223 0.688 19.2343 0.576 19.4583 0.576C19.6823 0.576 19.7943 0.688 19.7943 0.912V5.664C19.7943 5.888 19.6823 6 19.4583 6C19.3383 6 19.2263 5.93333 19.1223 5.8L15.9063 1.656H16.0743V5.664C16.0743 5.888 15.9623 6 15.7383 6ZM24.945 6.016C24.857 6.072 24.773 6.08933 24.693 6.068C24.613 6.04667 24.545 5.992 24.489 5.904L23.249 3.84H22.129V5.664C22.129 5.888 22.017 6 21.793 6C21.569 6 21.457 5.888 21.457 5.664V0.912C21.457 0.688 21.569 0.576 21.793 0.576H23.665C24.153 0.576 24.5263 0.706666 24.785 0.968C25.0463 1.22667 25.177 1.6 25.177 2.088V2.328C25.177 2.752 25.0783 3.09067 24.881 3.344C24.6837 3.59467 24.3983 3.75067 24.025 3.812L25.073 5.56C25.1743 5.74667 25.1317 5.89867 24.945 6.016ZM22.129 3.168H23.665C23.969 3.168 24.185 3.104 24.313 2.976C24.441 2.848 24.505 2.632 24.505 2.328V2.088C24.505 1.78667 24.441 1.572 24.313 1.444C24.185 1.31333 23.969 1.248 23.665 1.248H22.129V3.168ZM26.793 6C26.569 6 26.457 5.888 26.457 5.664V0.912C26.457 0.688 26.569 0.576 26.793 0.576H29.737C29.841 0.576 29.9223 0.606666 29.981 0.668C30.0423 0.726666 30.073 0.808 30.073 0.912C30.073 1.136 29.961 1.248 29.737 1.248H27.129V2.928H28.737C28.961 2.928 29.073 3.04 29.073 3.264C29.073 3.488 28.961 3.6 28.737 3.6H27.129V5.664C27.129 5.888 27.017 6 26.793 6Z" fill="black"/>
</svg>
