<svg width="15" height="3" viewBox="0 0 15 3" fill="none" xmlns="http://www.w3.org/2000/svg">
<path d="M0.48 3C0.409333 3 0.374 2.96467 0.374 2.894V1.214C0.374 1.14467 0.409333 1.11 0.48 1.11C0.549333 1.11 0.584 1.14467 0.584 1.214V1.522C0.653333 1.38867 0.753333 1.28667 0.884 1.216C1.016 1.14533 1.172 1.11 1.352 1.11C1.42267 1.11 1.458 1.14467 1.458 1.214C1.458 1.28467 1.42267 1.32 1.352 1.32C1.11467 1.32 0.930667 1.374 0.8 1.482C0.669333 1.58867 0.597333 1.74133 0.584 1.94V2.894C0.584 2.96467 0.549333 3 0.48 3ZM1.95969 2.136V2.282C1.95969 2.47 1.99702 2.602 2.07169 2.678C2.14769 2.75267 2.28102 2.79 2.47169 2.79H2.79969C2.96769 2.79 3.08969 2.76867 3.16569 2.726C3.24302 2.682 3.28902 2.60667 3.30369 2.5C3.30902 2.46667 3.31969 2.44133 3.33569 2.424C3.35302 2.40667 3.37902 2.398 3.41369 2.398C3.44835 2.398 3.47435 2.408 3.49169 2.428C3.51035 2.44667 3.51769 2.47333 3.51369 2.508C3.49635 2.676 3.42902 2.8 3.31169 2.88C3.19435 2.96 3.02369 3 2.79969 3H2.47169C2.22235 3 2.03969 2.94267 1.92369 2.828C1.80769 2.712 1.74969 2.53 1.74969 2.282V1.83C1.74969 1.578 1.80769 1.39467 1.92369 1.28C2.03969 1.164 2.22235 1.10733 2.47169 1.11H2.79969C3.04902 1.11 3.23102 1.168 3.34569 1.284C3.46169 1.39867 3.51969 1.58067 3.51969 1.83V2.03C3.51969 2.10067 3.48502 2.136 3.41569 2.136H1.95969ZM2.47169 1.32C2.28102 1.31733 2.14769 1.354 2.07169 1.43C1.99702 1.50467 1.95969 1.638 1.95969 1.83V1.926H3.30969V1.83C3.30969 1.63933 3.27235 1.50667 3.19769 1.432C3.12302 1.35733 2.99035 1.32 2.79969 1.32H2.47169ZM4.86172 2.92C4.84705 2.952 4.82905 2.97333 4.80772 2.984C4.78639 2.99467 4.76172 3 4.73372 3C4.67505 3 4.63372 2.97267 4.60972 2.918L3.86772 1.256C3.83972 1.19067 3.85905 1.14533 3.92572 1.12C3.98839 1.09333 4.03372 1.112 4.06172 1.176L4.80172 2.832H4.67372L5.46172 1.174C5.47639 1.14333 5.49572 1.12333 5.51972 1.114C5.54372 1.10467 5.57105 1.10667 5.60172 1.12C5.66705 1.14933 5.68505 1.196 5.65572 1.26L4.86172 2.92ZM5.81625 3C5.73892 3 5.70025 2.96067 5.70025 2.882V2.806C5.70025 2.73 5.73892 2.692 5.81625 2.692H5.89025C5.96625 2.692 6.00425 2.73 6.00425 2.806V2.882C6.00425 2.96067 5.96625 3 5.89025 3H5.81625ZM8.23678 3C8.02878 3 7.87611 2.952 7.77878 2.856C7.68278 2.75867 7.63478 2.606 7.63478 2.398C7.63478 2.19 7.68345 2.03733 7.78078 1.94C7.87811 1.84267 8.03011 1.794 8.23678 1.794H9.14678C9.14411 1.618 9.10411 1.49533 9.02678 1.426C8.95078 1.35533 8.82078 1.32 8.63678 1.32H8.40478C8.23545 1.32 8.11145 1.338 8.03278 1.374C7.95411 1.41 7.90545 1.47133 7.88678 1.558C7.87745 1.59133 7.86478 1.616 7.84878 1.632C7.83411 1.64667 7.81011 1.654 7.77678 1.654C7.74211 1.654 7.71478 1.64467 7.69478 1.626C7.67611 1.606 7.66945 1.57933 7.67478 1.546C7.69211 1.394 7.76078 1.28333 7.88078 1.214C8.00211 1.14467 8.17678 1.11 8.40478 1.11H8.63678C8.88611 1.11 9.06811 1.168 9.18278 1.284C9.29878 1.39867 9.35678 1.58067 9.35678 1.83V2.894C9.35678 2.96467 9.32211 3 9.25278 3C9.18211 3 9.14678 2.96467 9.14678 2.894V2.696C9.01878 2.89867 8.79011 3 8.46078 3H8.23678ZM8.23678 2.79H8.46078C8.59011 2.79 8.70345 2.776 8.80078 2.748C8.89945 2.71867 8.97878 2.672 9.03878 2.608C9.09878 2.544 9.13478 2.45867 9.14678 2.352V2.004H8.23678C8.08878 2.004 7.98611 2.03267 7.92878 2.09C7.87278 2.146 7.84478 2.24867 7.84478 2.398C7.84478 2.546 7.87278 2.64867 7.92878 2.706C7.98611 2.762 8.08878 2.79 8.23678 2.79ZM10.6193 3C10.43 3 10.2906 2.956 10.2013 2.868C10.1133 2.78 10.0693 2.642 10.0693 2.454V0.33C10.0693 0.260667 10.1046 0.226 10.1753 0.226C10.2446 0.226 10.2793 0.260667 10.2793 0.33V2.454C10.2793 2.58333 10.3033 2.672 10.3513 2.72C10.3993 2.76667 10.488 2.79 10.6173 2.79C10.6893 2.79 10.7253 2.82467 10.7253 2.894C10.7266 2.96467 10.6913 3 10.6193 3ZM11.3734 3C11.3027 3 11.2674 2.96467 11.2674 2.894V1.32H11.0994C11.0287 1.32 10.9934 1.28467 10.9934 1.214C10.9934 1.14467 11.0287 1.11 11.0994 1.11H11.2674V0.934C11.2674 0.688667 11.324 0.509333 11.4374 0.396C11.552 0.282667 11.732 0.226 11.9774 0.226C12.0454 0.226 12.0794 0.260667 12.0794 0.33C12.0794 0.400667 12.0454 0.436 11.9774 0.436C11.7907 0.436 11.6607 0.472667 11.5874 0.546C11.514 0.618 11.4774 0.747333 11.4774 0.934V1.11H11.9734C12.044 1.11 12.0794 1.14467 12.0794 1.214C12.0794 1.28467 12.044 1.32 11.9734 1.32H11.4774V2.894C11.4774 2.96467 11.4427 3 11.3734 3ZM13.0688 3C12.8608 3 12.7081 2.952 12.6108 2.856C12.5148 2.75867 12.4668 2.606 12.4668 2.398C12.4668 2.19 12.5155 2.03733 12.6128 1.94C12.7101 1.84267 12.8621 1.794 13.0688 1.794H13.9788C13.9761 1.618 13.9361 1.49533 13.8588 1.426C13.7828 1.35533 13.6528 1.32 13.4688 1.32H13.2368C13.0675 1.32 12.9435 1.338 12.8648 1.374C12.7861 1.41 12.7375 1.47133 12.7188 1.558C12.7095 1.59133 12.6968 1.616 12.6808 1.632C12.6661 1.64667 12.6421 1.654 12.6088 1.654C12.5741 1.654 12.5468 1.64467 12.5268 1.626C12.5081 1.606 12.5015 1.57933 12.5068 1.546C12.5241 1.394 12.5928 1.28333 12.7128 1.214C12.8341 1.14467 13.0088 1.11 13.2368 1.11H13.4688C13.7181 1.11 13.9001 1.168 14.0148 1.284C14.1308 1.39867 14.1888 1.58067 14.1888 1.83V2.894C14.1888 2.96467 14.1541 3 14.0848 3C14.0141 3 13.9788 2.96467 13.9788 2.894V2.696C13.8508 2.89867 13.6221 3 13.2928 3H13.0688ZM13.0688 2.79H13.2928C13.4221 2.79 13.5355 2.776 13.6328 2.748C13.7315 2.71867 13.8108 2.672 13.8708 2.608C13.9308 2.544 13.9668 2.45867 13.9788 2.352V2.004H13.0688C12.9208 2.004 12.8181 2.03267 12.7608 2.09C12.7048 2.146 12.6768 2.24867 12.6768 2.398C12.6768 2.546 12.7048 2.64867 12.7608 2.706C12.8181 2.762 12.9208 2.79 13.0688 2.79Z" fill="black"/>
</svg>
