%TF.GenerationSoftware,KiCad,Pcbnew,6.0.7-f9a2dced07~116~ubuntu22.04.1*%
%TF.CreationDate,2022-09-16T16:44:02+02:00*%
%TF.ProjectId,PCB,5043422e-6b69-4636-9164-5f7063625858,alfa*%
%TF.SameCoordinates,Original*%
%TF.FileFunction,Copper,L3,Inr*%
%TF.FilePolarity,Positive*%
%FSLAX46Y46*%
G04 Gerber Fmt 4.6, Leading zero omitted, Abs format (unit mm)*
G04 Created by KiCad (PCBNEW 6.0.7-f9a2dced07~116~ubuntu22.04.1) date 2022-09-16 16:44:02*
%MOMM*%
%LPD*%
G01*
G04 APERTURE LIST*
%TA.AperFunction,ComponentPad*%
%ADD10O,2.100000X1.050000*%
%TD*%
%TA.AperFunction,ComponentPad*%
%ADD11R,2.000000X2.000000*%
%TD*%
%TA.AperFunction,ComponentPad*%
%ADD12O,1.700000X1.700000*%
%TD*%
%TA.AperFunction,ComponentPad*%
%ADD13C,1.700000*%
%TD*%
%TA.AperFunction,ComponentPad*%
%ADD14C,1.308000*%
%TD*%
%TA.AperFunction,ComponentPad*%
%ADD15C,2.100000*%
%TD*%
%TA.AperFunction,ViaPad*%
%ADD16C,0.800000*%
%TD*%
%TA.AperFunction,Conductor*%
%ADD17C,0.508000*%
%TD*%
%TA.AperFunction,Conductor*%
%ADD18C,1.000000*%
%TD*%
G04 APERTURE END LIST*
D10*
%TO.N,unconnected-(J4-PadS1)*%
%TO.C,J4*%
X63352500Y-92475000D03*
X63352500Y-85325000D03*
%TD*%
D11*
%TO.N,/MOTOR_RIGHT_OUT_1*%
%TO.C,J8*%
X91452000Y-96650000D03*
%TO.N,/MOTOR_RIGHT_OUT_2*%
X91452000Y-99190000D03*
%TD*%
D12*
%TO.N,GND*%
%TO.C,J1*%
X88110000Y-103340000D03*
%TO.N,+BATT*%
X85570000Y-103340000D03*
%TO.N,/P0.4*%
X83030000Y-103340000D03*
%TO.N,/P0.5*%
X80490000Y-103340000D03*
%TO.N,/MISO*%
X77950000Y-103340000D03*
%TO.N,/MOSI*%
X75410000Y-103340000D03*
%TO.N,/SCK*%
X72870000Y-103340000D03*
%TO.N,/BTN*%
X70330000Y-103340000D03*
%TO.N,+3.3V*%
X67790000Y-103340000D03*
D13*
%TO.N,GND*%
X65250000Y-103340000D03*
%TD*%
D11*
%TO.N,/BAT+*%
%TO.C,J5*%
X61671000Y-78200000D03*
%TO.N,GND*%
X61671000Y-80740000D03*
%TD*%
D14*
%TO.N,unconnected-(U7-Pad1)*%
%TO.C,U7*%
X90330000Y-91690000D03*
%TO.N,+BATT*%
X90330000Y-87690000D03*
%TO.N,/BAT+*%
X90330000Y-89690000D03*
D15*
%TO.N,N/C*%
X90330000Y-93840000D03*
X90330000Y-85540000D03*
%TD*%
D11*
%TO.N,/MOTOR_LEFT_OUT_1*%
%TO.C,J7*%
X61671000Y-96650000D03*
%TO.N,/MOTOR_LEFT_OUT_2*%
X61671000Y-99190000D03*
%TD*%
D16*
%TO.N,GND*%
X87600000Y-73230000D03*
X87600000Y-75610000D03*
X86400000Y-73230000D03*
X85200000Y-73220000D03*
X86400000Y-75610000D03*
X85200000Y-75610000D03*
X84000000Y-75610000D03*
X82800000Y-75610000D03*
X84000000Y-73220000D03*
X82800000Y-73220000D03*
%TO.N,/BTN*%
X71540000Y-94950000D03*
%TO.N,+3.3V*%
X71227400Y-78227600D03*
X85790000Y-82180000D03*
X74690000Y-76350000D03*
X82530000Y-84080000D03*
X69540000Y-96760000D03*
X81670000Y-94250000D03*
X87840000Y-96770000D03*
X80170000Y-81100000D03*
%TO.N,GND*%
X68373950Y-75649998D03*
X67390000Y-91130000D03*
X79820000Y-87650000D03*
X71197400Y-77127600D03*
X67315000Y-95875000D03*
X79420000Y-100730000D03*
X85730000Y-80990000D03*
X73772576Y-93289028D03*
X73480000Y-100380000D03*
X75601468Y-75939839D03*
X71187400Y-80347600D03*
X85545000Y-100305000D03*
X68720000Y-83940000D03*
X80126733Y-76221686D03*
X69780000Y-86590000D03*
X84162521Y-76916362D03*
X85505000Y-95875000D03*
X80500000Y-96140000D03*
X74620000Y-81010000D03*
X71207400Y-79277600D03*
X61660000Y-82820000D03*
X67355000Y-100305000D03*
X80374783Y-80041896D03*
X71495500Y-96386500D03*
%TO.N,+BATT*%
X65090000Y-96790000D03*
X72220000Y-87030000D03*
X72438516Y-100341484D03*
X74530000Y-99190000D03*
X83300000Y-96790000D03*
X66030000Y-82680000D03*
%TO.N,/VSYS*%
X72340000Y-82990000D03*
X71120000Y-89220000D03*
%TO.N,Net-(C16-Pad1)*%
X80380000Y-78990000D03*
X84290000Y-78740000D03*
%TO.N,/C2CK*%
X80280000Y-91630000D03*
X85699568Y-79811067D03*
%TO.N,/C2D*%
X85660000Y-78720000D03*
X79030000Y-91630000D03*
%TO.N,/MOTOR_LEFT_OUT_2*%
X65420000Y-99430000D03*
%TO.N,/MOTOR_LEFT_OUT_1*%
X65380000Y-98220000D03*
%TO.N,/MOTOR_RIGHT_OUT_2*%
X83635517Y-99249488D03*
%TO.N,/MOTOR_RIGHT_OUT_1*%
X83630000Y-98250000D03*
%TO.N,/BTN*%
X68313950Y-73500000D03*
%TO.N,/MOTOR_LEFT_IN_2*%
X73740833Y-95297533D03*
X69264175Y-99663254D03*
%TO.N,/MOTOR_LEFT_IN_1*%
X69270000Y-98550000D03*
X73747784Y-94288223D03*
%TO.N,/P0.4*%
X75972203Y-97692203D03*
%TO.N,/P0.5*%
X74941790Y-97695189D03*
%TO.N,/MOTOR_RIGHT_IN_2*%
X86680000Y-100305000D03*
X79170000Y-97640000D03*
%TO.N,/MOTOR_RIGHT_IN_1*%
X78040000Y-97590000D03*
X87820000Y-100305000D03*
%TO.N,/NRF_CE*%
X74470000Y-82130000D03*
X74680000Y-92870000D03*
%TO.N,/NRF_CS*%
X74711134Y-91695674D03*
X75487396Y-82198165D03*
%TO.N,/SCK*%
X75710000Y-91660000D03*
X76486495Y-82226495D03*
%TO.N,/MOSI*%
X76826356Y-91653783D03*
X77485991Y-82230021D03*
%TO.N,/MISO*%
X77940000Y-91630000D03*
X78590000Y-82240000D03*
%TO.N,/NRF_INT*%
X78880700Y-81228026D03*
X79010000Y-96280000D03*
%TO.N,/LED*%
X79460000Y-99250000D03*
X77020000Y-97650000D03*
%TD*%
D17*
%TO.N,/BAT+*%
X61671000Y-78200000D02*
X63240000Y-78200000D01*
X63240000Y-78200000D02*
X66800000Y-74640000D01*
X66800000Y-74640000D02*
X88080000Y-74640000D01*
X88080000Y-74640000D02*
X88780000Y-75340000D01*
X88780000Y-75340000D02*
X88780000Y-88140000D01*
X88780000Y-88140000D02*
X90330000Y-89690000D01*
%TO.N,/MOTOR_RIGHT_OUT_1*%
X91452000Y-96650000D02*
X90760000Y-96650000D01*
X90760000Y-96650000D02*
X89160000Y-98250000D01*
X89160000Y-98250000D02*
X83630000Y-98250000D01*
%TO.N,/MOTOR_RIGHT_OUT_2*%
X83635517Y-99249488D02*
X83695005Y-99190000D01*
X83695005Y-99190000D02*
X91452000Y-99190000D01*
%TO.N,+3.3V*%
X83340000Y-94220000D02*
X86980000Y-94220000D01*
X86980000Y-94220000D02*
X87840000Y-95080000D01*
X87840000Y-95080000D02*
X87840000Y-96770000D01*
X69970000Y-83897739D02*
X69970000Y-78840000D01*
X69970000Y-78840000D02*
X70582400Y-78227600D01*
X68890000Y-84977739D02*
X69970000Y-83897739D01*
X68890000Y-96110000D02*
X68890000Y-84977739D01*
X69540000Y-96760000D02*
X68890000Y-96110000D01*
X70582400Y-78227600D02*
X71227400Y-78227600D01*
%TO.N,/VSYS*%
X71120000Y-89220000D02*
X71000000Y-89100000D01*
X71000000Y-89100000D02*
X71000000Y-84330000D01*
X71000000Y-84330000D02*
X72340000Y-82990000D01*
%TO.N,+3.3V*%
X83340000Y-84890000D02*
X83340000Y-90750000D01*
X83340000Y-90750000D02*
X83340000Y-94220000D01*
D18*
%TO.N,/MOTOR_LEFT_OUT_1*%
X65380000Y-98220000D02*
X64660000Y-98220000D01*
X64660000Y-98220000D02*
X64600000Y-98160000D01*
X61671000Y-96650000D02*
X63090000Y-96650000D01*
X63090000Y-96650000D02*
X64600000Y-98160000D01*
%TO.N,/MOTOR_LEFT_OUT_2*%
X62180000Y-99190000D02*
X62690000Y-99700000D01*
X61671000Y-99190000D02*
X62180000Y-99190000D01*
X62690000Y-99700000D02*
X65150000Y-99700000D01*
X65150000Y-99700000D02*
X65420000Y-99430000D01*
D17*
%TO.N,+3.3V*%
X70704000Y-97924000D02*
X70704000Y-99814000D01*
X69540000Y-96760000D02*
X70704000Y-97924000D01*
%TO.N,/MOTOR_LEFT_OUT_1*%
X63090000Y-96650000D02*
X61461000Y-96650000D01*
X65220000Y-98160000D02*
X64600000Y-98160000D01*
%TO.N,/MOTOR_LEFT_OUT_2*%
X65190000Y-99320000D02*
X61591000Y-99320000D01*
X65200000Y-99330000D02*
X65190000Y-99320000D01*
%TO.N,+3.3V*%
X82070000Y-83000000D02*
X82460000Y-83000000D01*
X71514900Y-77940100D02*
X71227400Y-78227600D01*
X79346000Y-79916000D02*
X77370100Y-77940100D01*
X77370100Y-77940100D02*
X71514900Y-77940100D01*
X80170000Y-81100000D02*
X82070000Y-83000000D01*
X79346000Y-80353739D02*
X79346000Y-79916000D01*
X80092261Y-81100000D02*
X79346000Y-80353739D01*
X82460000Y-83000000D02*
X82470000Y-82990000D01*
X80170000Y-81100000D02*
X80092261Y-81100000D01*
X74690000Y-76350000D02*
X74160000Y-76880000D01*
X74160000Y-76880000D02*
X74160000Y-77920000D01*
X70704000Y-99814000D02*
X70704000Y-100426000D01*
X82470000Y-84020000D02*
X82530000Y-84080000D01*
X82530000Y-84080000D02*
X83340000Y-84890000D01*
X84980000Y-82990000D02*
X85790000Y-82180000D01*
X82470000Y-82990000D02*
X84980000Y-82990000D01*
X81700000Y-94220000D02*
X81670000Y-94250000D01*
X82470000Y-82990000D02*
X82470000Y-84020000D01*
X83340000Y-94220000D02*
X81700000Y-94220000D01*
X70704000Y-100426000D02*
X67790000Y-103340000D01*
%TD*%
%TA.AperFunction,Conductor*%
%TO.N,+BATT*%
G36*
X71204423Y-72551002D02*
G01*
X71250916Y-72604658D01*
X71262189Y-72651666D01*
X71300188Y-73548444D01*
X71310000Y-73780000D01*
X71321916Y-73780106D01*
X71321918Y-73780106D01*
X76167880Y-73823080D01*
X81726103Y-73872371D01*
X81725412Y-73837131D01*
X81702321Y-72659470D01*
X81720984Y-72590970D01*
X81773718Y-72543435D01*
X81828297Y-72531000D01*
X82340308Y-72531000D01*
X82408429Y-72551002D01*
X82454922Y-72604658D01*
X82465026Y-72674932D01*
X82435532Y-72739512D01*
X82417013Y-72756962D01*
X82371718Y-72791718D01*
X82275464Y-72917159D01*
X82214956Y-73063238D01*
X82213878Y-73071426D01*
X82210273Y-73098808D01*
X82194318Y-73220000D01*
X82198464Y-73251489D01*
X82210543Y-73343238D01*
X82214956Y-73376762D01*
X82275464Y-73522841D01*
X82371718Y-73648282D01*
X82497159Y-73744536D01*
X82643238Y-73805044D01*
X82651426Y-73806122D01*
X82695193Y-73811884D01*
X82800000Y-73825682D01*
X82808188Y-73824604D01*
X82948574Y-73806122D01*
X82956762Y-73805044D01*
X83102841Y-73744536D01*
X83228282Y-73648282D01*
X83300037Y-73554769D01*
X83357375Y-73512902D01*
X83428246Y-73508680D01*
X83490149Y-73543444D01*
X83499963Y-73554769D01*
X83571718Y-73648282D01*
X83697159Y-73744536D01*
X83843238Y-73805044D01*
X83851426Y-73806122D01*
X83895193Y-73811884D01*
X84000000Y-73825682D01*
X84008188Y-73824604D01*
X84148574Y-73806122D01*
X84156762Y-73805044D01*
X84302841Y-73744536D01*
X84428282Y-73648282D01*
X84500037Y-73554769D01*
X84557375Y-73512902D01*
X84628246Y-73508680D01*
X84690149Y-73543444D01*
X84699963Y-73554769D01*
X84771718Y-73648282D01*
X84897159Y-73744536D01*
X85043238Y-73805044D01*
X85051426Y-73806122D01*
X85095193Y-73811884D01*
X85200000Y-73825682D01*
X85208188Y-73824604D01*
X85348574Y-73806122D01*
X85356762Y-73805044D01*
X85502841Y-73744536D01*
X85628282Y-73648282D01*
X85696201Y-73559769D01*
X85753538Y-73517902D01*
X85824409Y-73513680D01*
X85886312Y-73548444D01*
X85896125Y-73559769D01*
X85966691Y-73651732D01*
X85966695Y-73651736D01*
X85971718Y-73658282D01*
X86097159Y-73754536D01*
X86243238Y-73815044D01*
X86400000Y-73835682D01*
X86408188Y-73834604D01*
X86548574Y-73816122D01*
X86556762Y-73815044D01*
X86702841Y-73754536D01*
X86828282Y-73658282D01*
X86900037Y-73564769D01*
X86957375Y-73522902D01*
X87028246Y-73518680D01*
X87090149Y-73553444D01*
X87099963Y-73564769D01*
X87171718Y-73658282D01*
X87297159Y-73754536D01*
X87443238Y-73815044D01*
X87600000Y-73835682D01*
X87608188Y-73834604D01*
X87748574Y-73816122D01*
X87756762Y-73815044D01*
X87902841Y-73754536D01*
X88028282Y-73658282D01*
X88124536Y-73532841D01*
X88185044Y-73386762D01*
X88187439Y-73368574D01*
X88204604Y-73238188D01*
X88205682Y-73230000D01*
X88185044Y-73073238D01*
X88124536Y-72927159D01*
X88028282Y-72801718D01*
X88021736Y-72796695D01*
X88021732Y-72796691D01*
X87975636Y-72761320D01*
X87933769Y-72703982D01*
X87929547Y-72633111D01*
X87964311Y-72571208D01*
X88027024Y-72537927D01*
X88056160Y-72535416D01*
X88896473Y-72560922D01*
X90183418Y-72599985D01*
X90212206Y-72604220D01*
X90297077Y-72626961D01*
X90381271Y-72649521D01*
X90383503Y-72650142D01*
X90503493Y-72684711D01*
X90513763Y-72688154D01*
X90682270Y-72752838D01*
X90685299Y-72754046D01*
X90749293Y-72780553D01*
X90805795Y-72803957D01*
X90814780Y-72808099D01*
X90973041Y-72888737D01*
X90976786Y-72890726D01*
X91059283Y-72936320D01*
X91093315Y-72955129D01*
X91100992Y-72959735D01*
X91248581Y-73055581D01*
X91252869Y-73058492D01*
X91362697Y-73136419D01*
X91369079Y-73141260D01*
X91505199Y-73251489D01*
X91509863Y-73255457D01*
X91610758Y-73345622D01*
X91615875Y-73350461D01*
X91739539Y-73474125D01*
X91744378Y-73479242D01*
X91806221Y-73548444D01*
X91834543Y-73580137D01*
X91838511Y-73584801D01*
X91948740Y-73720921D01*
X91953581Y-73727303D01*
X92031508Y-73837131D01*
X92034419Y-73841419D01*
X92094794Y-73934388D01*
X92113999Y-73963960D01*
X92130265Y-73989008D01*
X92134871Y-73996685D01*
X92199274Y-74113214D01*
X92201263Y-74116959D01*
X92281901Y-74275220D01*
X92286043Y-74284205D01*
X92296759Y-74310076D01*
X92315353Y-74354964D01*
X92335947Y-74404683D01*
X92337162Y-74407730D01*
X92356246Y-74457445D01*
X92401845Y-74576235D01*
X92405289Y-74586507D01*
X92439858Y-74706497D01*
X92440490Y-74708768D01*
X92488662Y-74888551D01*
X92491174Y-74900055D01*
X92509827Y-75009830D01*
X92510037Y-75011107D01*
X92534230Y-75163858D01*
X92541303Y-75208514D01*
X92542656Y-75221159D01*
X92545023Y-75263306D01*
X92552989Y-75415303D01*
X92558827Y-75526696D01*
X92559000Y-75533290D01*
X92559000Y-95323500D01*
X92538998Y-95391621D01*
X92485342Y-95438114D01*
X92433000Y-95449500D01*
X90432252Y-95449500D01*
X90426184Y-95450707D01*
X90385939Y-95458712D01*
X90385938Y-95458712D01*
X90373769Y-95461133D01*
X90307448Y-95505448D01*
X90263133Y-95571769D01*
X90260712Y-95583938D01*
X90260712Y-95583939D01*
X90254306Y-95616144D01*
X90251500Y-95630252D01*
X90251500Y-96463550D01*
X90231498Y-96531671D01*
X90214595Y-96552645D01*
X89008645Y-97758595D01*
X88946333Y-97792621D01*
X88919550Y-97795500D01*
X84066886Y-97795500D01*
X83998765Y-97775498D01*
X83990182Y-97769463D01*
X83939392Y-97730491D01*
X83932841Y-97725464D01*
X83786762Y-97664956D01*
X83630000Y-97644318D01*
X83473238Y-97664956D01*
X83327159Y-97725464D01*
X83201718Y-97821718D01*
X83105464Y-97947159D01*
X83064751Y-98045448D01*
X83049010Y-98083452D01*
X83044956Y-98093238D01*
X83024318Y-98250000D01*
X83044956Y-98406762D01*
X83105464Y-98552841D01*
X83110491Y-98559392D01*
X83200454Y-98676635D01*
X83226054Y-98742856D01*
X83211789Y-98812404D01*
X83200454Y-98830043D01*
X83191366Y-98841887D01*
X83110981Y-98946647D01*
X83050473Y-99092726D01*
X83029835Y-99249488D01*
X83050473Y-99406250D01*
X83110981Y-99552329D01*
X83116008Y-99558880D01*
X83196097Y-99663254D01*
X83207235Y-99677770D01*
X83332676Y-99774024D01*
X83478755Y-99834532D01*
X83635517Y-99855170D01*
X83643705Y-99854092D01*
X83651909Y-99853012D01*
X83792279Y-99834532D01*
X83938358Y-99774024D01*
X84063799Y-99677770D01*
X84064242Y-99678347D01*
X84120953Y-99647379D01*
X84147736Y-99644500D01*
X85048166Y-99644500D01*
X85116287Y-99664502D01*
X85162780Y-99718158D01*
X85172884Y-99788432D01*
X85143390Y-99853012D01*
X85124868Y-99870464D01*
X85116718Y-99876718D01*
X85020464Y-100002159D01*
X84959956Y-100148238D01*
X84939318Y-100305000D01*
X84959956Y-100461762D01*
X85020464Y-100607841D01*
X85116718Y-100733282D01*
X85242159Y-100829536D01*
X85360547Y-100878574D01*
X85380315Y-100886762D01*
X85388238Y-100890044D01*
X85545000Y-100910682D01*
X85553188Y-100909604D01*
X85693574Y-100891122D01*
X85701762Y-100890044D01*
X85709686Y-100886762D01*
X85729453Y-100878574D01*
X85847841Y-100829536D01*
X85973282Y-100733282D01*
X85978305Y-100726736D01*
X85978309Y-100726732D01*
X86012538Y-100682124D01*
X86069876Y-100640257D01*
X86140747Y-100636035D01*
X86202649Y-100670799D01*
X86212462Y-100682124D01*
X86246691Y-100726732D01*
X86246695Y-100726736D01*
X86251718Y-100733282D01*
X86377159Y-100829536D01*
X86495547Y-100878574D01*
X86515315Y-100886762D01*
X86523238Y-100890044D01*
X86680000Y-100910682D01*
X86688188Y-100909604D01*
X86828574Y-100891122D01*
X86836762Y-100890044D01*
X86844686Y-100886762D01*
X86864453Y-100878574D01*
X86982841Y-100829536D01*
X87108282Y-100733282D01*
X87113305Y-100726736D01*
X87113309Y-100726732D01*
X87150038Y-100678866D01*
X87207376Y-100636999D01*
X87278247Y-100632777D01*
X87340149Y-100667541D01*
X87349962Y-100678866D01*
X87386691Y-100726732D01*
X87386695Y-100726736D01*
X87391718Y-100733282D01*
X87517159Y-100829536D01*
X87635547Y-100878574D01*
X87655315Y-100886762D01*
X87663238Y-100890044D01*
X87820000Y-100910682D01*
X87828188Y-100909604D01*
X87968574Y-100891122D01*
X87976762Y-100890044D01*
X87984686Y-100886762D01*
X88004453Y-100878574D01*
X88122841Y-100829536D01*
X88248282Y-100733282D01*
X88344536Y-100607841D01*
X88405044Y-100461762D01*
X88425682Y-100305000D01*
X88405044Y-100148238D01*
X88344536Y-100002159D01*
X88248282Y-99876718D01*
X88240132Y-99870464D01*
X88239122Y-99869081D01*
X88235891Y-99865850D01*
X88236395Y-99865346D01*
X88198264Y-99813127D01*
X88194040Y-99742256D01*
X88228803Y-99680352D01*
X88291515Y-99647070D01*
X88316834Y-99644500D01*
X90125500Y-99644500D01*
X90193621Y-99664502D01*
X90240114Y-99718158D01*
X90251500Y-99770500D01*
X90251500Y-100209748D01*
X90252707Y-100215816D01*
X90259383Y-100249376D01*
X90263133Y-100268231D01*
X90307448Y-100334552D01*
X90373769Y-100378867D01*
X90385938Y-100381288D01*
X90385939Y-100381288D01*
X90405989Y-100385276D01*
X90432252Y-100390500D01*
X92433000Y-100390500D01*
X92501121Y-100410502D01*
X92547614Y-100464158D01*
X92559000Y-100516500D01*
X92559000Y-101526710D01*
X92558827Y-101533304D01*
X92545048Y-101796223D01*
X92545023Y-101796694D01*
X92542656Y-101838841D01*
X92541303Y-101851486D01*
X92510037Y-102048893D01*
X92509827Y-102050170D01*
X92491174Y-102159945D01*
X92488662Y-102171449D01*
X92458930Y-102282411D01*
X92441560Y-102347240D01*
X92440490Y-102351232D01*
X92439858Y-102353503D01*
X92405289Y-102473493D01*
X92401846Y-102483763D01*
X92356853Y-102600975D01*
X92337169Y-102652253D01*
X92335954Y-102655299D01*
X92332910Y-102662649D01*
X92286043Y-102775795D01*
X92281901Y-102784780D01*
X92201263Y-102943041D01*
X92199274Y-102946786D01*
X92180402Y-102980933D01*
X92162003Y-103014224D01*
X92134871Y-103063315D01*
X92130265Y-103070992D01*
X92034419Y-103218581D01*
X92031508Y-103222869D01*
X91953581Y-103332697D01*
X91948740Y-103339079D01*
X91838511Y-103475199D01*
X91834543Y-103479863D01*
X91744378Y-103580758D01*
X91739539Y-103585875D01*
X91615875Y-103709539D01*
X91610758Y-103714378D01*
X91543250Y-103774707D01*
X91509863Y-103804543D01*
X91505199Y-103808511D01*
X91369079Y-103918740D01*
X91362697Y-103923581D01*
X91252869Y-104001508D01*
X91248581Y-104004419D01*
X91100992Y-104100265D01*
X91093315Y-104104871D01*
X90976786Y-104169274D01*
X90973041Y-104171263D01*
X90814780Y-104251901D01*
X90805795Y-104256043D01*
X90749293Y-104279447D01*
X90685299Y-104305954D01*
X90682270Y-104307162D01*
X90587070Y-104343706D01*
X90513765Y-104371845D01*
X90503493Y-104375289D01*
X90383503Y-104409858D01*
X90381271Y-104410479D01*
X90318932Y-104427183D01*
X90201449Y-104458662D01*
X90189945Y-104461174D01*
X90080170Y-104479827D01*
X90078893Y-104480037D01*
X89913265Y-104506270D01*
X89881486Y-104511303D01*
X89868840Y-104512656D01*
X89826791Y-104515017D01*
X89826322Y-104515042D01*
X89563305Y-104528827D01*
X89556710Y-104529000D01*
X88615074Y-104529000D01*
X88546953Y-104508998D01*
X88500460Y-104455342D01*
X88490356Y-104385068D01*
X88519850Y-104320488D01*
X88558264Y-104290534D01*
X88670112Y-104234035D01*
X88675610Y-104231258D01*
X88691345Y-104218965D01*
X88791919Y-104140388D01*
X88837951Y-104104424D01*
X88895992Y-104037183D01*
X88968540Y-103953134D01*
X88968540Y-103953133D01*
X88972564Y-103948472D01*
X88993387Y-103911818D01*
X89011056Y-103880714D01*
X89074323Y-103769344D01*
X89139351Y-103573863D01*
X89165171Y-103369474D01*
X89165583Y-103340000D01*
X89145480Y-103134970D01*
X89085935Y-102937749D01*
X88989218Y-102755849D01*
X88904727Y-102652253D01*
X88862906Y-102600975D01*
X88862903Y-102600972D01*
X88859011Y-102596200D01*
X88846458Y-102585815D01*
X88705025Y-102468811D01*
X88705021Y-102468809D01*
X88700275Y-102464882D01*
X88519055Y-102366897D01*
X88322254Y-102305977D01*
X88316129Y-102305333D01*
X88316128Y-102305333D01*
X88123498Y-102285087D01*
X88123496Y-102285087D01*
X88117369Y-102284443D01*
X88030529Y-102292346D01*
X87918342Y-102302555D01*
X87918339Y-102302556D01*
X87912203Y-102303114D01*
X87714572Y-102361280D01*
X87532002Y-102456726D01*
X87527201Y-102460586D01*
X87527198Y-102460588D01*
X87503383Y-102479736D01*
X87371447Y-102585815D01*
X87239024Y-102743630D01*
X87236056Y-102749028D01*
X87236053Y-102749033D01*
X87161153Y-102885277D01*
X87139776Y-102924162D01*
X87137914Y-102930032D01*
X87121068Y-102983138D01*
X87081405Y-103042022D01*
X87016202Y-103070114D01*
X86946163Y-103058497D01*
X86893523Y-103010857D01*
X86878762Y-102975735D01*
X86861214Y-102905875D01*
X86857894Y-102896124D01*
X86772972Y-102700814D01*
X86768105Y-102691739D01*
X86652426Y-102512926D01*
X86646136Y-102504757D01*
X86502806Y-102347240D01*
X86495273Y-102340215D01*
X86328139Y-102208222D01*
X86319552Y-102202517D01*
X86133117Y-102099599D01*
X86123705Y-102095369D01*
X85922959Y-102024280D01*
X85912988Y-102021646D01*
X85841837Y-102008972D01*
X85828540Y-102010432D01*
X85824000Y-102024989D01*
X85824000Y-103468000D01*
X85803998Y-103536121D01*
X85750342Y-103582614D01*
X85698000Y-103594000D01*
X85442000Y-103594000D01*
X85373879Y-103573998D01*
X85327386Y-103520342D01*
X85316000Y-103468000D01*
X85316000Y-102023102D01*
X85312082Y-102009758D01*
X85297806Y-102007771D01*
X85259324Y-102013660D01*
X85249288Y-102016051D01*
X85046868Y-102082212D01*
X85037359Y-102086209D01*
X84848463Y-102184542D01*
X84839738Y-102190036D01*
X84669433Y-102317905D01*
X84661726Y-102324748D01*
X84514590Y-102478717D01*
X84508104Y-102486727D01*
X84388098Y-102662649D01*
X84383000Y-102671623D01*
X84293338Y-102864783D01*
X84289775Y-102874470D01*
X84261012Y-102978185D01*
X84223533Y-103038483D01*
X84159405Y-103068946D01*
X84088986Y-103059903D01*
X84034636Y-103014224D01*
X84018973Y-102980933D01*
X84018143Y-102978185D01*
X84005935Y-102937749D01*
X83909218Y-102755849D01*
X83824727Y-102652253D01*
X83782906Y-102600975D01*
X83782903Y-102600972D01*
X83779011Y-102596200D01*
X83766458Y-102585815D01*
X83625025Y-102468811D01*
X83625021Y-102468809D01*
X83620275Y-102464882D01*
X83439055Y-102366897D01*
X83242254Y-102305977D01*
X83236129Y-102305333D01*
X83236128Y-102305333D01*
X83043498Y-102285087D01*
X83043496Y-102285087D01*
X83037369Y-102284443D01*
X82950529Y-102292346D01*
X82838342Y-102302555D01*
X82838339Y-102302556D01*
X82832203Y-102303114D01*
X82634572Y-102361280D01*
X82452002Y-102456726D01*
X82447201Y-102460586D01*
X82447198Y-102460588D01*
X82423383Y-102479736D01*
X82291447Y-102585815D01*
X82159024Y-102743630D01*
X82156056Y-102749028D01*
X82156053Y-102749033D01*
X82081153Y-102885277D01*
X82059776Y-102924162D01*
X81997484Y-103120532D01*
X81996798Y-103126649D01*
X81996797Y-103126653D01*
X81986486Y-103218581D01*
X81974520Y-103325262D01*
X81975036Y-103331406D01*
X81990902Y-103520342D01*
X81991759Y-103530553D01*
X81993458Y-103536478D01*
X82039395Y-103696678D01*
X82048544Y-103728586D01*
X82051359Y-103734063D01*
X82051360Y-103734066D01*
X82139897Y-103906341D01*
X82142712Y-103911818D01*
X82270677Y-104073270D01*
X82275370Y-104077264D01*
X82275371Y-104077265D01*
X82385819Y-104171263D01*
X82427564Y-104206791D01*
X82432942Y-104209797D01*
X82432944Y-104209798D01*
X82581838Y-104293012D01*
X82631544Y-104343706D01*
X82645952Y-104413225D01*
X82620488Y-104479498D01*
X82563237Y-104521483D01*
X82520368Y-104529000D01*
X80995074Y-104529000D01*
X80926953Y-104508998D01*
X80880460Y-104455342D01*
X80870356Y-104385068D01*
X80899850Y-104320488D01*
X80938264Y-104290534D01*
X81050112Y-104234035D01*
X81055610Y-104231258D01*
X81071345Y-104218965D01*
X81171919Y-104140388D01*
X81217951Y-104104424D01*
X81275992Y-104037183D01*
X81348540Y-103953134D01*
X81348540Y-103953133D01*
X81352564Y-103948472D01*
X81373387Y-103911818D01*
X81391056Y-103880714D01*
X81454323Y-103769344D01*
X81519351Y-103573863D01*
X81545171Y-103369474D01*
X81545583Y-103340000D01*
X81525480Y-103134970D01*
X81465935Y-102937749D01*
X81369218Y-102755849D01*
X81284727Y-102652253D01*
X81242906Y-102600975D01*
X81242903Y-102600972D01*
X81239011Y-102596200D01*
X81226458Y-102585815D01*
X81085025Y-102468811D01*
X81085021Y-102468809D01*
X81080275Y-102464882D01*
X80899055Y-102366897D01*
X80702254Y-102305977D01*
X80696129Y-102305333D01*
X80696128Y-102305333D01*
X80503498Y-102285087D01*
X80503496Y-102285087D01*
X80497369Y-102284443D01*
X80410529Y-102292346D01*
X80298342Y-102302555D01*
X80298339Y-102302556D01*
X80292203Y-102303114D01*
X80094572Y-102361280D01*
X79912002Y-102456726D01*
X79907201Y-102460586D01*
X79907198Y-102460588D01*
X79883383Y-102479736D01*
X79751447Y-102585815D01*
X79619024Y-102743630D01*
X79616056Y-102749028D01*
X79616053Y-102749033D01*
X79541153Y-102885277D01*
X79519776Y-102924162D01*
X79457484Y-103120532D01*
X79456798Y-103126649D01*
X79456797Y-103126653D01*
X79446486Y-103218581D01*
X79434520Y-103325262D01*
X79435036Y-103331406D01*
X79450902Y-103520342D01*
X79451759Y-103530553D01*
X79453458Y-103536478D01*
X79499395Y-103696678D01*
X79508544Y-103728586D01*
X79511359Y-103734063D01*
X79511360Y-103734066D01*
X79599897Y-103906341D01*
X79602712Y-103911818D01*
X79730677Y-104073270D01*
X79735370Y-104077264D01*
X79735371Y-104077265D01*
X79845819Y-104171263D01*
X79887564Y-104206791D01*
X79892942Y-104209797D01*
X79892944Y-104209798D01*
X80041838Y-104293012D01*
X80091544Y-104343706D01*
X80105952Y-104413225D01*
X80080488Y-104479498D01*
X80023237Y-104521483D01*
X79980368Y-104529000D01*
X78455074Y-104529000D01*
X78386953Y-104508998D01*
X78340460Y-104455342D01*
X78330356Y-104385068D01*
X78359850Y-104320488D01*
X78398264Y-104290534D01*
X78510112Y-104234035D01*
X78515610Y-104231258D01*
X78531345Y-104218965D01*
X78631919Y-104140388D01*
X78677951Y-104104424D01*
X78735992Y-104037183D01*
X78808540Y-103953134D01*
X78808540Y-103953133D01*
X78812564Y-103948472D01*
X78833387Y-103911818D01*
X78851056Y-103880714D01*
X78914323Y-103769344D01*
X78979351Y-103573863D01*
X79005171Y-103369474D01*
X79005583Y-103340000D01*
X78985480Y-103134970D01*
X78925935Y-102937749D01*
X78829218Y-102755849D01*
X78744727Y-102652253D01*
X78702906Y-102600975D01*
X78702903Y-102600972D01*
X78699011Y-102596200D01*
X78686458Y-102585815D01*
X78545025Y-102468811D01*
X78545021Y-102468809D01*
X78540275Y-102464882D01*
X78359055Y-102366897D01*
X78162254Y-102305977D01*
X78156129Y-102305333D01*
X78156128Y-102305333D01*
X77963498Y-102285087D01*
X77963496Y-102285087D01*
X77957369Y-102284443D01*
X77870529Y-102292346D01*
X77758342Y-102302555D01*
X77758339Y-102302556D01*
X77752203Y-102303114D01*
X77554572Y-102361280D01*
X77372002Y-102456726D01*
X77367201Y-102460586D01*
X77367198Y-102460588D01*
X77343383Y-102479736D01*
X77211447Y-102585815D01*
X77079024Y-102743630D01*
X77076056Y-102749028D01*
X77076053Y-102749033D01*
X77001153Y-102885277D01*
X76979776Y-102924162D01*
X76917484Y-103120532D01*
X76916798Y-103126649D01*
X76916797Y-103126653D01*
X76906486Y-103218581D01*
X76894520Y-103325262D01*
X76895036Y-103331406D01*
X76910902Y-103520342D01*
X76911759Y-103530553D01*
X76913458Y-103536478D01*
X76959395Y-103696678D01*
X76968544Y-103728586D01*
X76971359Y-103734063D01*
X76971360Y-103734066D01*
X77059897Y-103906341D01*
X77062712Y-103911818D01*
X77190677Y-104073270D01*
X77195370Y-104077264D01*
X77195371Y-104077265D01*
X77305819Y-104171263D01*
X77347564Y-104206791D01*
X77352942Y-104209797D01*
X77352944Y-104209798D01*
X77501838Y-104293012D01*
X77551544Y-104343706D01*
X77565952Y-104413225D01*
X77540488Y-104479498D01*
X77483237Y-104521483D01*
X77440368Y-104529000D01*
X75915074Y-104529000D01*
X75846953Y-104508998D01*
X75800460Y-104455342D01*
X75790356Y-104385068D01*
X75819850Y-104320488D01*
X75858264Y-104290534D01*
X75970112Y-104234035D01*
X75975610Y-104231258D01*
X75991345Y-104218965D01*
X76091919Y-104140388D01*
X76137951Y-104104424D01*
X76195992Y-104037183D01*
X76268540Y-103953134D01*
X76268540Y-103953133D01*
X76272564Y-103948472D01*
X76293387Y-103911818D01*
X76311056Y-103880714D01*
X76374323Y-103769344D01*
X76439351Y-103573863D01*
X76465171Y-103369474D01*
X76465583Y-103340000D01*
X76445480Y-103134970D01*
X76385935Y-102937749D01*
X76289218Y-102755849D01*
X76204727Y-102652253D01*
X76162906Y-102600975D01*
X76162903Y-102600972D01*
X76159011Y-102596200D01*
X76146458Y-102585815D01*
X76005025Y-102468811D01*
X76005021Y-102468809D01*
X76000275Y-102464882D01*
X75819055Y-102366897D01*
X75622254Y-102305977D01*
X75616129Y-102305333D01*
X75616128Y-102305333D01*
X75423498Y-102285087D01*
X75423496Y-102285087D01*
X75417369Y-102284443D01*
X75330529Y-102292346D01*
X75218342Y-102302555D01*
X75218339Y-102302556D01*
X75212203Y-102303114D01*
X75014572Y-102361280D01*
X74832002Y-102456726D01*
X74827201Y-102460586D01*
X74827198Y-102460588D01*
X74803383Y-102479736D01*
X74671447Y-102585815D01*
X74539024Y-102743630D01*
X74536056Y-102749028D01*
X74536053Y-102749033D01*
X74461153Y-102885277D01*
X74439776Y-102924162D01*
X74377484Y-103120532D01*
X74376798Y-103126649D01*
X74376797Y-103126653D01*
X74366486Y-103218581D01*
X74354520Y-103325262D01*
X74355036Y-103331406D01*
X74370902Y-103520342D01*
X74371759Y-103530553D01*
X74373458Y-103536478D01*
X74419395Y-103696678D01*
X74428544Y-103728586D01*
X74431359Y-103734063D01*
X74431360Y-103734066D01*
X74519897Y-103906341D01*
X74522712Y-103911818D01*
X74650677Y-104073270D01*
X74655370Y-104077264D01*
X74655371Y-104077265D01*
X74765819Y-104171263D01*
X74807564Y-104206791D01*
X74812942Y-104209797D01*
X74812944Y-104209798D01*
X74961838Y-104293012D01*
X75011544Y-104343706D01*
X75025952Y-104413225D01*
X75000488Y-104479498D01*
X74943237Y-104521483D01*
X74900368Y-104529000D01*
X73375074Y-104529000D01*
X73306953Y-104508998D01*
X73260460Y-104455342D01*
X73250356Y-104385068D01*
X73279850Y-104320488D01*
X73318264Y-104290534D01*
X73430112Y-104234035D01*
X73435610Y-104231258D01*
X73451345Y-104218965D01*
X73551919Y-104140388D01*
X73597951Y-104104424D01*
X73655992Y-104037183D01*
X73728540Y-103953134D01*
X73728540Y-103953133D01*
X73732564Y-103948472D01*
X73753387Y-103911818D01*
X73771056Y-103880714D01*
X73834323Y-103769344D01*
X73899351Y-103573863D01*
X73925171Y-103369474D01*
X73925583Y-103340000D01*
X73905480Y-103134970D01*
X73845935Y-102937749D01*
X73749218Y-102755849D01*
X73664727Y-102652253D01*
X73622906Y-102600975D01*
X73622903Y-102600972D01*
X73619011Y-102596200D01*
X73606458Y-102585815D01*
X73465025Y-102468811D01*
X73465021Y-102468809D01*
X73460275Y-102464882D01*
X73279055Y-102366897D01*
X73082254Y-102305977D01*
X73076129Y-102305333D01*
X73076128Y-102305333D01*
X72883498Y-102285087D01*
X72883496Y-102285087D01*
X72877369Y-102284443D01*
X72790529Y-102292346D01*
X72678342Y-102302555D01*
X72678339Y-102302556D01*
X72672203Y-102303114D01*
X72474572Y-102361280D01*
X72292002Y-102456726D01*
X72287201Y-102460586D01*
X72287198Y-102460588D01*
X72263383Y-102479736D01*
X72131447Y-102585815D01*
X71999024Y-102743630D01*
X71996056Y-102749028D01*
X71996053Y-102749033D01*
X71921153Y-102885277D01*
X71899776Y-102924162D01*
X71837484Y-103120532D01*
X71836798Y-103126649D01*
X71836797Y-103126653D01*
X71826486Y-103218581D01*
X71814520Y-103325262D01*
X71815036Y-103331406D01*
X71830902Y-103520342D01*
X71831759Y-103530553D01*
X71833458Y-103536478D01*
X71879395Y-103696678D01*
X71888544Y-103728586D01*
X71891359Y-103734063D01*
X71891360Y-103734066D01*
X71979897Y-103906341D01*
X71982712Y-103911818D01*
X72110677Y-104073270D01*
X72115370Y-104077264D01*
X72115371Y-104077265D01*
X72225819Y-104171263D01*
X72267564Y-104206791D01*
X72272942Y-104209797D01*
X72272944Y-104209798D01*
X72421838Y-104293012D01*
X72471544Y-104343706D01*
X72485952Y-104413225D01*
X72460488Y-104479498D01*
X72403237Y-104521483D01*
X72360368Y-104529000D01*
X70835074Y-104529000D01*
X70766953Y-104508998D01*
X70720460Y-104455342D01*
X70710356Y-104385068D01*
X70739850Y-104320488D01*
X70778264Y-104290534D01*
X70890112Y-104234035D01*
X70895610Y-104231258D01*
X70911345Y-104218965D01*
X71011919Y-104140388D01*
X71057951Y-104104424D01*
X71115992Y-104037183D01*
X71188540Y-103953134D01*
X71188540Y-103953133D01*
X71192564Y-103948472D01*
X71213387Y-103911818D01*
X71231056Y-103880714D01*
X71294323Y-103769344D01*
X71359351Y-103573863D01*
X71385171Y-103369474D01*
X71385583Y-103340000D01*
X71365480Y-103134970D01*
X71305935Y-102937749D01*
X71209218Y-102755849D01*
X71124727Y-102652253D01*
X71082906Y-102600975D01*
X71082903Y-102600972D01*
X71079011Y-102596200D01*
X71066458Y-102585815D01*
X70925025Y-102468811D01*
X70925021Y-102468809D01*
X70920275Y-102464882D01*
X70739055Y-102366897D01*
X70542254Y-102305977D01*
X70536129Y-102305333D01*
X70536128Y-102305333D01*
X70343498Y-102285087D01*
X70343496Y-102285087D01*
X70337369Y-102284443D01*
X70250529Y-102292346D01*
X70138342Y-102302555D01*
X70138339Y-102302556D01*
X70132203Y-102303114D01*
X69934572Y-102361280D01*
X69752002Y-102456726D01*
X69747201Y-102460586D01*
X69747198Y-102460588D01*
X69723383Y-102479736D01*
X69591447Y-102585815D01*
X69459024Y-102743630D01*
X69456056Y-102749028D01*
X69456053Y-102749033D01*
X69381153Y-102885277D01*
X69359776Y-102924162D01*
X69297484Y-103120532D01*
X69296798Y-103126649D01*
X69296797Y-103126653D01*
X69286486Y-103218581D01*
X69274520Y-103325262D01*
X69275036Y-103331406D01*
X69290902Y-103520342D01*
X69291759Y-103530553D01*
X69293458Y-103536478D01*
X69339395Y-103696678D01*
X69348544Y-103728586D01*
X69351359Y-103734063D01*
X69351360Y-103734066D01*
X69439897Y-103906341D01*
X69442712Y-103911818D01*
X69570677Y-104073270D01*
X69575370Y-104077264D01*
X69575371Y-104077265D01*
X69685819Y-104171263D01*
X69727564Y-104206791D01*
X69732942Y-104209797D01*
X69732944Y-104209798D01*
X69881838Y-104293012D01*
X69931544Y-104343706D01*
X69945952Y-104413225D01*
X69920488Y-104479498D01*
X69863237Y-104521483D01*
X69820368Y-104529000D01*
X68295074Y-104529000D01*
X68226953Y-104508998D01*
X68180460Y-104455342D01*
X68170356Y-104385068D01*
X68199850Y-104320488D01*
X68238264Y-104290534D01*
X68350112Y-104234035D01*
X68355610Y-104231258D01*
X68371345Y-104218965D01*
X68471919Y-104140388D01*
X68517951Y-104104424D01*
X68575992Y-104037183D01*
X68648540Y-103953134D01*
X68648540Y-103953133D01*
X68652564Y-103948472D01*
X68673387Y-103911818D01*
X68691056Y-103880714D01*
X68754323Y-103769344D01*
X68819351Y-103573863D01*
X68845171Y-103369474D01*
X68845583Y-103340000D01*
X68825480Y-103134970D01*
X68809366Y-103081599D01*
X68803750Y-103062996D01*
X68803209Y-102992001D01*
X68835277Y-102937483D01*
X69771704Y-102001056D01*
X89454662Y-102001056D01*
X89454674Y-102001232D01*
X89455056Y-102007062D01*
X89455056Y-102007067D01*
X89456231Y-102024989D01*
X89467896Y-102202972D01*
X89517705Y-102399096D01*
X89602421Y-102582858D01*
X89719206Y-102748106D01*
X89864150Y-102889304D01*
X89868946Y-102892509D01*
X89868949Y-102892511D01*
X89944573Y-102943041D01*
X90032397Y-103001723D01*
X90037705Y-103004004D01*
X90037706Y-103004004D01*
X90213012Y-103079321D01*
X90213015Y-103079322D01*
X90218315Y-103081599D01*
X90223944Y-103082873D01*
X90223945Y-103082873D01*
X90410038Y-103124982D01*
X90410044Y-103124983D01*
X90415675Y-103126257D01*
X90421446Y-103126484D01*
X90421448Y-103126484D01*
X90479949Y-103128783D01*
X90617869Y-103134202D01*
X90718590Y-103119598D01*
X90812411Y-103105995D01*
X90812416Y-103105994D01*
X90818125Y-103105166D01*
X90823589Y-103103311D01*
X90823594Y-103103310D01*
X91004264Y-103041981D01*
X91004269Y-103041979D01*
X91009736Y-103040123D01*
X91014777Y-103037300D01*
X91181247Y-102944072D01*
X91181251Y-102944069D01*
X91186285Y-102941250D01*
X91190722Y-102937560D01*
X91190726Y-102937557D01*
X91337422Y-102815551D01*
X91341860Y-102811860D01*
X91394113Y-102749033D01*
X91467557Y-102660726D01*
X91467560Y-102660722D01*
X91471250Y-102656285D01*
X91474069Y-102651251D01*
X91474072Y-102651247D01*
X91567300Y-102484777D01*
X91567300Y-102484776D01*
X91570123Y-102479736D01*
X91571979Y-102474269D01*
X91571981Y-102474264D01*
X91633310Y-102293594D01*
X91633311Y-102293589D01*
X91635166Y-102288125D01*
X91635994Y-102282416D01*
X91635995Y-102282411D01*
X91653751Y-102159945D01*
X91664202Y-102087869D01*
X91665717Y-102030000D01*
X91647202Y-101828499D01*
X91592276Y-101633746D01*
X91502779Y-101452264D01*
X91487231Y-101431442D01*
X91385161Y-101294755D01*
X91385161Y-101294754D01*
X91381708Y-101290131D01*
X91292248Y-101207435D01*
X91237358Y-101156695D01*
X91237355Y-101156693D01*
X91233118Y-101152776D01*
X91061985Y-101044799D01*
X90874041Y-100969817D01*
X90675579Y-100930340D01*
X90669805Y-100930264D01*
X90669801Y-100930264D01*
X90567385Y-100928924D01*
X90473246Y-100927692D01*
X90467549Y-100928671D01*
X90467548Y-100928671D01*
X90279516Y-100960980D01*
X90279515Y-100960980D01*
X90273819Y-100961959D01*
X90083977Y-101031996D01*
X90079016Y-101034948D01*
X90079015Y-101034948D01*
X89915044Y-101132500D01*
X89915041Y-101132502D01*
X89910076Y-101135456D01*
X89757941Y-101268875D01*
X89754366Y-101273410D01*
X89754365Y-101273411D01*
X89705275Y-101335682D01*
X89632668Y-101427783D01*
X89629977Y-101432899D01*
X89629975Y-101432901D01*
X89541143Y-101601743D01*
X89538451Y-101606860D01*
X89478446Y-101800109D01*
X89477767Y-101805846D01*
X89473313Y-101843481D01*
X89454662Y-102001056D01*
X69771704Y-102001056D01*
X71001011Y-100771749D01*
X71012100Y-100761894D01*
X71013444Y-100760835D01*
X71039059Y-100740641D01*
X71044413Y-100732894D01*
X71044417Y-100732890D01*
X71072728Y-100691928D01*
X71075029Y-100688708D01*
X71104610Y-100648658D01*
X71104611Y-100648656D01*
X71110209Y-100641077D01*
X71112623Y-100634202D01*
X71116764Y-100628211D01*
X71134636Y-100571699D01*
X71135866Y-100568015D01*
X71152371Y-100521016D01*
X71152372Y-100521012D01*
X71155492Y-100512127D01*
X71155775Y-100504927D01*
X71155809Y-100504751D01*
X71157975Y-100497903D01*
X71158500Y-100491232D01*
X71158500Y-100438052D01*
X71158597Y-100433105D01*
X71159878Y-100400500D01*
X71160684Y-100380000D01*
X72874318Y-100380000D01*
X72894956Y-100536762D01*
X72955464Y-100682841D01*
X73051718Y-100808282D01*
X73177159Y-100904536D01*
X73323238Y-100965044D01*
X73480000Y-100985682D01*
X73488188Y-100984604D01*
X73628574Y-100966122D01*
X73636762Y-100965044D01*
X73782841Y-100904536D01*
X73908282Y-100808282D01*
X73968350Y-100730000D01*
X78814318Y-100730000D01*
X78834956Y-100886762D01*
X78895464Y-101032841D01*
X78900491Y-101039392D01*
X78977127Y-101139266D01*
X78991718Y-101158282D01*
X79117159Y-101254536D01*
X79263238Y-101315044D01*
X79420000Y-101335682D01*
X79428188Y-101334604D01*
X79568574Y-101316122D01*
X79576762Y-101315044D01*
X79722841Y-101254536D01*
X79848282Y-101158282D01*
X79862874Y-101139266D01*
X79939509Y-101039392D01*
X79944536Y-101032841D01*
X80005044Y-100886762D01*
X80025682Y-100730000D01*
X80005044Y-100573238D01*
X79944536Y-100427159D01*
X79848282Y-100301718D01*
X79722841Y-100205464D01*
X79595053Y-100152532D01*
X79584391Y-100148116D01*
X79576762Y-100144956D01*
X79420000Y-100124318D01*
X79263238Y-100144956D01*
X79255609Y-100148116D01*
X79244947Y-100152532D01*
X79117159Y-100205464D01*
X78991718Y-100301718D01*
X78895464Y-100427159D01*
X78834956Y-100573238D01*
X78814318Y-100730000D01*
X73968350Y-100730000D01*
X74004536Y-100682841D01*
X74065044Y-100536762D01*
X74085682Y-100380000D01*
X74065044Y-100223238D01*
X74004536Y-100077159D01*
X73908282Y-99951718D01*
X73891970Y-99939201D01*
X73810540Y-99876718D01*
X73782841Y-99855464D01*
X73636762Y-99794956D01*
X73588628Y-99788619D01*
X73526684Y-99780464D01*
X73480000Y-99774318D01*
X73433316Y-99780464D01*
X73371373Y-99788619D01*
X73323238Y-99794956D01*
X73177159Y-99855464D01*
X73149460Y-99876718D01*
X73068031Y-99939201D01*
X73051718Y-99951718D01*
X72955464Y-100077159D01*
X72894956Y-100223238D01*
X72874318Y-100380000D01*
X71160684Y-100380000D01*
X71160858Y-100375563D01*
X71158961Y-100368408D01*
X71158500Y-100360033D01*
X71158500Y-99250000D01*
X78854318Y-99250000D01*
X78874956Y-99406762D01*
X78935464Y-99552841D01*
X79031718Y-99678282D01*
X79157159Y-99774536D01*
X79303238Y-99835044D01*
X79460000Y-99855682D01*
X79468188Y-99854604D01*
X79485659Y-99852304D01*
X79616762Y-99835044D01*
X79762841Y-99774536D01*
X79888282Y-99678282D01*
X79984536Y-99552841D01*
X80045044Y-99406762D01*
X80065682Y-99250000D01*
X80045044Y-99093238D01*
X79984536Y-98947159D01*
X79888282Y-98821718D01*
X79762841Y-98725464D01*
X79616762Y-98664956D01*
X79460000Y-98644318D01*
X79303238Y-98664956D01*
X79157159Y-98725464D01*
X79031718Y-98821718D01*
X78935464Y-98947159D01*
X78874956Y-99093238D01*
X78854318Y-99250000D01*
X71158500Y-99250000D01*
X71158500Y-97958464D01*
X71159373Y-97943654D01*
X71162301Y-97918915D01*
X71163408Y-97909563D01*
X71152763Y-97851275D01*
X71152119Y-97847407D01*
X71150374Y-97835801D01*
X71143315Y-97788849D01*
X71140162Y-97782282D01*
X71138853Y-97775117D01*
X71111554Y-97722564D01*
X71109785Y-97719023D01*
X71098340Y-97695189D01*
X74336108Y-97695189D01*
X74337186Y-97703377D01*
X74353872Y-97830117D01*
X74356746Y-97851951D01*
X74417254Y-97998030D01*
X74464542Y-98059657D01*
X74506192Y-98113936D01*
X74513508Y-98123471D01*
X74638949Y-98219725D01*
X74785028Y-98280233D01*
X74941790Y-98300871D01*
X74949978Y-98299793D01*
X75090364Y-98281311D01*
X75098552Y-98280233D01*
X75244631Y-98219725D01*
X75370072Y-98123471D01*
X75371679Y-98121377D01*
X75431712Y-98088599D01*
X75502528Y-98093667D01*
X75543597Y-98120063D01*
X75543921Y-98120485D01*
X75550467Y-98125508D01*
X75554360Y-98128495D01*
X75669362Y-98216739D01*
X75815441Y-98277247D01*
X75972203Y-98297885D01*
X75980391Y-98296807D01*
X76120777Y-98278325D01*
X76128965Y-98277247D01*
X76275044Y-98216739D01*
X76390046Y-98128495D01*
X76393939Y-98125508D01*
X76400485Y-98120485D01*
X76405508Y-98113939D01*
X76405511Y-98113936D01*
X76415034Y-98101525D01*
X76472371Y-98059657D01*
X76543242Y-98055435D01*
X76589565Y-98081088D01*
X76591718Y-98078282D01*
X76717159Y-98174536D01*
X76863238Y-98235044D01*
X77020000Y-98255682D01*
X77028188Y-98254604D01*
X77168574Y-98236122D01*
X77176762Y-98235044D01*
X77322841Y-98174536D01*
X77448282Y-98078282D01*
X77453305Y-98071736D01*
X77453308Y-98071733D01*
X77461123Y-98061548D01*
X77518460Y-98019680D01*
X77589331Y-98015458D01*
X77637790Y-98038288D01*
X77676879Y-98068282D01*
X77737159Y-98114536D01*
X77883238Y-98175044D01*
X78040000Y-98195682D01*
X78048188Y-98194604D01*
X78188574Y-98176122D01*
X78196762Y-98175044D01*
X78342841Y-98114536D01*
X78468282Y-98018282D01*
X78473306Y-98011735D01*
X78485855Y-97995381D01*
X78543193Y-97953514D01*
X78614064Y-97949293D01*
X78675967Y-97984058D01*
X78685779Y-97995381D01*
X78741718Y-98068282D01*
X78867159Y-98164536D01*
X79013238Y-98225044D01*
X79170000Y-98245682D01*
X79178188Y-98244604D01*
X79318574Y-98226122D01*
X79326762Y-98225044D01*
X79472841Y-98164536D01*
X79598282Y-98068282D01*
X79694536Y-97942841D01*
X79755044Y-97796762D01*
X79775682Y-97640000D01*
X79755044Y-97483238D01*
X79694536Y-97337159D01*
X79615854Y-97234618D01*
X79603305Y-97218264D01*
X79598282Y-97211718D01*
X79472841Y-97115464D01*
X79326762Y-97054956D01*
X79318574Y-97053878D01*
X79310598Y-97051741D01*
X79311309Y-97049087D01*
X79258723Y-97025819D01*
X79219635Y-96966551D01*
X79218795Y-96895559D01*
X79256470Y-96835383D01*
X79291886Y-96813216D01*
X79305209Y-96807698D01*
X79305213Y-96807695D01*
X79312841Y-96804536D01*
X79416437Y-96725044D01*
X79431736Y-96713305D01*
X79438282Y-96708282D01*
X79534536Y-96582841D01*
X79595044Y-96436762D01*
X79615682Y-96280000D01*
X79597251Y-96140000D01*
X79894318Y-96140000D01*
X79914956Y-96296762D01*
X79975464Y-96442841D01*
X80002471Y-96478037D01*
X80052520Y-96543262D01*
X80071718Y-96568282D01*
X80197159Y-96664536D01*
X80343238Y-96725044D01*
X80500000Y-96745682D01*
X80508188Y-96744604D01*
X80648574Y-96726122D01*
X80656762Y-96725044D01*
X80802841Y-96664536D01*
X80928282Y-96568282D01*
X80947481Y-96543262D01*
X80997529Y-96478037D01*
X81024536Y-96442841D01*
X81085044Y-96296762D01*
X81105682Y-96140000D01*
X81093979Y-96051105D01*
X81086122Y-95991426D01*
X81085044Y-95983238D01*
X81040210Y-95875000D01*
X84899318Y-95875000D01*
X84919956Y-96031762D01*
X84980464Y-96177841D01*
X85076718Y-96303282D01*
X85202159Y-96399536D01*
X85348238Y-96460044D01*
X85505000Y-96480682D01*
X85513188Y-96479604D01*
X85653574Y-96461122D01*
X85661762Y-96460044D01*
X85807841Y-96399536D01*
X85933282Y-96303282D01*
X86029536Y-96177841D01*
X86090044Y-96031762D01*
X86110682Y-95875000D01*
X86090044Y-95718238D01*
X86029536Y-95572159D01*
X85933282Y-95446718D01*
X85807841Y-95350464D01*
X85661762Y-95289956D01*
X85505000Y-95269318D01*
X85348238Y-95289956D01*
X85202159Y-95350464D01*
X85076718Y-95446718D01*
X84980464Y-95572159D01*
X84919956Y-95718238D01*
X84899318Y-95875000D01*
X81040210Y-95875000D01*
X81024536Y-95837159D01*
X80928282Y-95711718D01*
X80910556Y-95698116D01*
X80809392Y-95620491D01*
X80802841Y-95615464D01*
X80656762Y-95554956D01*
X80500000Y-95534318D01*
X80343238Y-95554956D01*
X80197159Y-95615464D01*
X80190608Y-95620491D01*
X80089445Y-95698116D01*
X80071718Y-95711718D01*
X79975464Y-95837159D01*
X79914956Y-95983238D01*
X79913878Y-95991426D01*
X79906021Y-96051105D01*
X79894318Y-96140000D01*
X79597251Y-96140000D01*
X79595044Y-96123238D01*
X79534536Y-95977159D01*
X79438282Y-95851718D01*
X79312841Y-95755464D01*
X79166762Y-95694956D01*
X79010000Y-95674318D01*
X78853238Y-95694956D01*
X78707159Y-95755464D01*
X78581718Y-95851718D01*
X78485464Y-95977159D01*
X78424956Y-96123238D01*
X78404318Y-96280000D01*
X78424956Y-96436762D01*
X78485464Y-96582841D01*
X78581718Y-96708282D01*
X78588264Y-96713305D01*
X78603563Y-96725044D01*
X78707159Y-96804536D01*
X78853238Y-96865044D01*
X78861426Y-96866122D01*
X78869402Y-96868259D01*
X78868691Y-96870913D01*
X78921277Y-96894181D01*
X78960365Y-96953449D01*
X78961205Y-97024441D01*
X78923530Y-97084617D01*
X78888114Y-97106784D01*
X78874791Y-97112302D01*
X78874788Y-97112304D01*
X78867159Y-97115464D01*
X78741718Y-97211718D01*
X78736695Y-97218264D01*
X78736694Y-97218265D01*
X78724145Y-97234619D01*
X78666807Y-97276486D01*
X78595936Y-97280707D01*
X78534033Y-97245942D01*
X78524220Y-97234618D01*
X78473305Y-97168264D01*
X78468282Y-97161718D01*
X78342841Y-97065464D01*
X78196762Y-97004956D01*
X78040000Y-96984318D01*
X77883238Y-97004956D01*
X77737159Y-97065464D01*
X77611718Y-97161718D01*
X77606695Y-97168264D01*
X77606692Y-97168267D01*
X77598877Y-97178452D01*
X77541540Y-97220320D01*
X77470669Y-97224542D01*
X77422210Y-97201712D01*
X77329392Y-97130491D01*
X77322841Y-97125464D01*
X77190125Y-97070491D01*
X77184391Y-97068116D01*
X77176762Y-97064956D01*
X77020000Y-97044318D01*
X76863238Y-97064956D01*
X76855609Y-97068116D01*
X76849875Y-97070491D01*
X76717159Y-97125464D01*
X76591718Y-97221718D01*
X76586695Y-97228264D01*
X76586692Y-97228267D01*
X76577169Y-97240678D01*
X76519832Y-97282546D01*
X76448961Y-97286768D01*
X76402638Y-97261115D01*
X76400485Y-97263921D01*
X76338939Y-97216695D01*
X76275044Y-97167667D01*
X76128965Y-97107159D01*
X75972203Y-97086521D01*
X75815441Y-97107159D01*
X75669362Y-97167667D01*
X75655307Y-97178452D01*
X75550473Y-97258893D01*
X75550471Y-97258895D01*
X75543921Y-97263921D01*
X75542316Y-97266013D01*
X75482292Y-97298791D01*
X75411477Y-97293730D01*
X75370396Y-97267329D01*
X75370072Y-97266907D01*
X75244631Y-97170653D01*
X75098552Y-97110145D01*
X74941790Y-97089507D01*
X74785028Y-97110145D01*
X74638949Y-97170653D01*
X74513508Y-97266907D01*
X74417254Y-97392348D01*
X74356746Y-97538427D01*
X74336108Y-97695189D01*
X71098340Y-97695189D01*
X71088233Y-97674140D01*
X71088231Y-97674137D01*
X71084154Y-97665647D01*
X71079264Y-97660357D01*
X71079159Y-97660202D01*
X71075852Y-97653835D01*
X71071506Y-97648746D01*
X71033924Y-97611164D01*
X71030494Y-97607598D01*
X70997774Y-97572202D01*
X70991383Y-97565288D01*
X70984983Y-97561570D01*
X70978723Y-97555963D01*
X70170305Y-96747545D01*
X70136279Y-96685233D01*
X70134478Y-96674896D01*
X70132452Y-96659509D01*
X70125044Y-96603238D01*
X70064536Y-96457159D01*
X70010318Y-96386500D01*
X70889818Y-96386500D01*
X70910456Y-96543262D01*
X70970964Y-96689341D01*
X70975990Y-96695891D01*
X71039139Y-96778188D01*
X71067218Y-96814782D01*
X71192659Y-96911036D01*
X71338738Y-96971544D01*
X71495500Y-96992182D01*
X71503688Y-96991104D01*
X71644074Y-96972622D01*
X71652262Y-96971544D01*
X71798341Y-96911036D01*
X71923782Y-96814782D01*
X71951862Y-96778188D01*
X72015010Y-96695891D01*
X72020036Y-96689341D01*
X72080544Y-96543262D01*
X72101182Y-96386500D01*
X72080544Y-96229738D01*
X72020036Y-96083659D01*
X71944171Y-95984789D01*
X71928805Y-95964764D01*
X71923782Y-95958218D01*
X71912421Y-95949500D01*
X71852100Y-95903215D01*
X71798341Y-95861964D01*
X71652262Y-95801456D01*
X71611587Y-95796101D01*
X71546660Y-95767378D01*
X71515644Y-95720356D01*
X71491105Y-95759557D01*
X71423913Y-95790243D01*
X71338738Y-95801456D01*
X71192659Y-95861964D01*
X71138900Y-95903215D01*
X71078580Y-95949500D01*
X71067218Y-95958218D01*
X71062195Y-95964764D01*
X71046829Y-95984789D01*
X70970964Y-96083659D01*
X70910456Y-96229738D01*
X70889818Y-96386500D01*
X70010318Y-96386500D01*
X69968282Y-96331718D01*
X69842841Y-96235464D01*
X69696762Y-96174956D01*
X69625103Y-96165522D01*
X69560177Y-96136800D01*
X69552455Y-96129695D01*
X69381405Y-95958645D01*
X69347379Y-95896333D01*
X69344500Y-95869550D01*
X69344500Y-94950000D01*
X70934318Y-94950000D01*
X70954956Y-95106762D01*
X71015464Y-95252841D01*
X71111718Y-95378282D01*
X71237159Y-95474536D01*
X71383238Y-95535044D01*
X71391426Y-95536122D01*
X71423913Y-95540399D01*
X71488840Y-95569122D01*
X71519856Y-95616144D01*
X71544395Y-95576943D01*
X71611587Y-95546257D01*
X71696762Y-95535044D01*
X71842841Y-95474536D01*
X71968282Y-95378282D01*
X72030243Y-95297533D01*
X73135151Y-95297533D01*
X73155789Y-95454295D01*
X73216297Y-95600374D01*
X73312551Y-95725815D01*
X73437992Y-95822069D01*
X73584071Y-95882577D01*
X73740833Y-95903215D01*
X73749021Y-95902137D01*
X73889407Y-95883655D01*
X73897595Y-95882577D01*
X74043674Y-95822069D01*
X74169115Y-95725815D01*
X74265369Y-95600374D01*
X74325877Y-95454295D01*
X74346515Y-95297533D01*
X74325877Y-95140771D01*
X74265369Y-94994692D01*
X74260341Y-94988139D01*
X74260339Y-94988136D01*
X74172421Y-94873559D01*
X74146820Y-94807339D01*
X74161085Y-94737790D01*
X74176549Y-94716875D01*
X74176066Y-94716505D01*
X74223422Y-94654789D01*
X74272320Y-94591064D01*
X74332828Y-94444985D01*
X74353466Y-94288223D01*
X74332828Y-94131461D01*
X74272320Y-93985382D01*
X74191509Y-93880067D01*
X74165909Y-93813847D01*
X74180174Y-93744298D01*
X74199170Y-93718605D01*
X74200858Y-93717310D01*
X74297112Y-93591869D01*
X74330384Y-93511543D01*
X74374932Y-93456262D01*
X74442296Y-93433841D01*
X74495011Y-93443352D01*
X74523238Y-93455044D01*
X74531426Y-93456122D01*
X74601619Y-93465363D01*
X74680000Y-93475682D01*
X74688188Y-93474604D01*
X74828574Y-93456122D01*
X74836762Y-93455044D01*
X74982841Y-93394536D01*
X75108282Y-93298282D01*
X75204536Y-93172841D01*
X75265044Y-93026762D01*
X75285682Y-92870000D01*
X75272858Y-92772589D01*
X75266122Y-92721426D01*
X75265044Y-92713238D01*
X75204536Y-92567159D01*
X75108282Y-92441718D01*
X75101736Y-92436695D01*
X75101733Y-92436692D01*
X75047066Y-92394745D01*
X75005198Y-92337407D01*
X75000976Y-92266536D01*
X75035740Y-92204633D01*
X75047065Y-92194819D01*
X75068569Y-92178319D01*
X75139416Y-92123956D01*
X75143209Y-92119013D01*
X75204700Y-92085435D01*
X75275515Y-92090500D01*
X75308186Y-92108593D01*
X75400604Y-92179507D01*
X75400608Y-92179509D01*
X75407159Y-92184536D01*
X75553238Y-92245044D01*
X75710000Y-92265682D01*
X75718188Y-92264604D01*
X75737725Y-92262032D01*
X75866762Y-92245044D01*
X76012841Y-92184536D01*
X76138282Y-92088282D01*
X76170600Y-92046164D01*
X76227938Y-92004297D01*
X76298809Y-92000075D01*
X76360712Y-92034839D01*
X76370525Y-92046164D01*
X76393047Y-92075515D01*
X76393051Y-92075519D01*
X76398074Y-92082065D01*
X76523515Y-92178319D01*
X76669594Y-92238827D01*
X76826356Y-92259465D01*
X76834544Y-92258387D01*
X76974930Y-92239905D01*
X76983118Y-92238827D01*
X77129197Y-92178319D01*
X77254638Y-92082065D01*
X77259661Y-92075519D01*
X77259665Y-92075515D01*
X77292341Y-92032931D01*
X77349679Y-91991064D01*
X77420550Y-91986842D01*
X77482453Y-92021606D01*
X77492266Y-92032932D01*
X77506693Y-92051734D01*
X77506695Y-92051736D01*
X77511718Y-92058282D01*
X77518264Y-92063305D01*
X77542285Y-92081737D01*
X77637159Y-92154536D01*
X77783238Y-92215044D01*
X77940000Y-92235682D01*
X77948188Y-92234604D01*
X78088574Y-92216122D01*
X78096762Y-92215044D01*
X78242841Y-92154536D01*
X78337715Y-92081737D01*
X78361736Y-92063305D01*
X78368282Y-92058282D01*
X78373305Y-92051736D01*
X78373308Y-92051733D01*
X78385037Y-92036447D01*
X78442374Y-91994579D01*
X78513245Y-91990357D01*
X78575148Y-92025120D01*
X78584963Y-92036447D01*
X78596692Y-92051733D01*
X78596695Y-92051736D01*
X78601718Y-92058282D01*
X78608264Y-92063305D01*
X78632285Y-92081737D01*
X78727159Y-92154536D01*
X78873238Y-92215044D01*
X79030000Y-92235682D01*
X79038188Y-92234604D01*
X79178574Y-92216122D01*
X79186762Y-92215044D01*
X79332841Y-92154536D01*
X79427715Y-92081737D01*
X79451736Y-92063305D01*
X79458282Y-92058282D01*
X79463307Y-92051734D01*
X79554536Y-91932841D01*
X79557201Y-91934886D01*
X79597250Y-91896691D01*
X79666962Y-91883246D01*
X79732876Y-91909625D01*
X79753980Y-91933980D01*
X79755464Y-91932841D01*
X79846694Y-92051734D01*
X79851718Y-92058282D01*
X79858264Y-92063305D01*
X79882285Y-92081737D01*
X79977159Y-92154536D01*
X80123238Y-92215044D01*
X80280000Y-92235682D01*
X80288188Y-92234604D01*
X80428574Y-92216122D01*
X80436762Y-92215044D01*
X80582841Y-92154536D01*
X80677715Y-92081737D01*
X80701736Y-92063305D01*
X80708282Y-92058282D01*
X80713307Y-92051734D01*
X80759997Y-91990885D01*
X80804536Y-91932841D01*
X80865044Y-91786762D01*
X80885682Y-91630000D01*
X80865044Y-91473238D01*
X80804536Y-91327159D01*
X80731302Y-91231718D01*
X80713305Y-91208264D01*
X80708282Y-91201718D01*
X80582841Y-91105464D01*
X80436762Y-91044956D01*
X80280000Y-91024318D01*
X80123238Y-91044956D01*
X79977159Y-91105464D01*
X79851718Y-91201718D01*
X79846695Y-91208264D01*
X79799597Y-91269643D01*
X79755464Y-91327159D01*
X79752799Y-91325114D01*
X79712750Y-91363309D01*
X79643038Y-91376754D01*
X79577124Y-91350375D01*
X79556020Y-91326020D01*
X79554536Y-91327159D01*
X79463305Y-91208264D01*
X79458282Y-91201718D01*
X79332841Y-91105464D01*
X79186762Y-91044956D01*
X79030000Y-91024318D01*
X78873238Y-91044956D01*
X78727159Y-91105464D01*
X78601718Y-91201718D01*
X78596695Y-91208264D01*
X78596692Y-91208267D01*
X78584963Y-91223553D01*
X78527626Y-91265421D01*
X78456755Y-91269643D01*
X78394852Y-91234880D01*
X78385037Y-91223553D01*
X78373308Y-91208267D01*
X78373305Y-91208264D01*
X78368282Y-91201718D01*
X78242841Y-91105464D01*
X78096762Y-91044956D01*
X77940000Y-91024318D01*
X77783238Y-91044956D01*
X77637159Y-91105464D01*
X77511718Y-91201718D01*
X77506695Y-91208264D01*
X77506691Y-91208268D01*
X77474015Y-91250852D01*
X77416677Y-91292719D01*
X77345806Y-91296941D01*
X77283903Y-91262177D01*
X77274090Y-91250851D01*
X77259663Y-91232049D01*
X77259660Y-91232046D01*
X77254638Y-91225501D01*
X77232180Y-91208268D01*
X77195422Y-91180063D01*
X77129197Y-91129247D01*
X76983118Y-91068739D01*
X76826356Y-91048101D01*
X76669594Y-91068739D01*
X76523515Y-91129247D01*
X76457290Y-91180063D01*
X76420533Y-91208268D01*
X76398074Y-91225501D01*
X76367443Y-91265421D01*
X76365756Y-91267619D01*
X76308418Y-91309486D01*
X76237547Y-91313708D01*
X76175644Y-91278944D01*
X76165831Y-91267619D01*
X76143309Y-91238268D01*
X76143305Y-91238264D01*
X76138282Y-91231718D01*
X76012841Y-91135464D01*
X75866762Y-91074956D01*
X75710000Y-91054318D01*
X75553238Y-91074956D01*
X75407159Y-91135464D01*
X75281718Y-91231718D01*
X75277925Y-91236661D01*
X75216434Y-91270239D01*
X75145619Y-91265174D01*
X75112948Y-91247081D01*
X75020530Y-91176167D01*
X75020526Y-91176165D01*
X75013975Y-91171138D01*
X74867896Y-91110630D01*
X74711134Y-91089992D01*
X74554372Y-91110630D01*
X74408293Y-91171138D01*
X74282852Y-91267392D01*
X74186598Y-91392833D01*
X74126090Y-91538912D01*
X74105452Y-91695674D01*
X74126090Y-91852436D01*
X74129250Y-91860065D01*
X74132034Y-91866787D01*
X74186598Y-91998515D01*
X74227434Y-92051734D01*
X74269999Y-92107205D01*
X74282852Y-92123956D01*
X74289398Y-92128979D01*
X74289401Y-92128982D01*
X74344068Y-92170929D01*
X74385936Y-92228267D01*
X74390158Y-92299138D01*
X74355394Y-92361041D01*
X74344069Y-92370855D01*
X74261653Y-92434095D01*
X74251718Y-92441718D01*
X74155464Y-92567159D01*
X74122192Y-92647485D01*
X74077644Y-92702766D01*
X74010280Y-92725187D01*
X73957565Y-92715676D01*
X73936967Y-92707144D01*
X73929338Y-92703984D01*
X73920087Y-92702766D01*
X73780764Y-92684424D01*
X73772576Y-92683346D01*
X73764388Y-92684424D01*
X73625066Y-92702766D01*
X73615814Y-92703984D01*
X73469735Y-92764492D01*
X73344294Y-92860746D01*
X73248040Y-92986187D01*
X73227669Y-93035367D01*
X73190910Y-93124112D01*
X73187532Y-93132266D01*
X73166894Y-93289028D01*
X73167972Y-93297216D01*
X73180123Y-93389509D01*
X73187532Y-93445790D01*
X73248040Y-93591869D01*
X73306546Y-93668116D01*
X73328851Y-93697184D01*
X73354451Y-93763404D01*
X73340186Y-93832953D01*
X73321190Y-93858646D01*
X73319502Y-93859941D01*
X73223248Y-93985382D01*
X73162740Y-94131461D01*
X73142102Y-94288223D01*
X73162740Y-94444985D01*
X73223248Y-94591064D01*
X73228275Y-94597615D01*
X73228278Y-94597620D01*
X73316196Y-94712197D01*
X73341797Y-94778417D01*
X73327532Y-94847966D01*
X73312068Y-94868881D01*
X73312551Y-94869251D01*
X73216297Y-94994692D01*
X73155789Y-95140771D01*
X73135151Y-95297533D01*
X72030243Y-95297533D01*
X72064536Y-95252841D01*
X72125044Y-95106762D01*
X72145682Y-94950000D01*
X72126594Y-94805012D01*
X72126122Y-94801426D01*
X72125044Y-94793238D01*
X72064536Y-94647159D01*
X71968282Y-94521718D01*
X71842841Y-94425464D01*
X71696762Y-94364956D01*
X71540000Y-94344318D01*
X71383238Y-94364956D01*
X71237159Y-94425464D01*
X71111718Y-94521718D01*
X71015464Y-94647159D01*
X70954956Y-94793238D01*
X70953878Y-94801426D01*
X70953406Y-94805012D01*
X70934318Y-94950000D01*
X69344500Y-94950000D01*
X69344500Y-87248159D01*
X69364502Y-87180038D01*
X69418158Y-87133545D01*
X69488432Y-87123441D01*
X69518716Y-87131749D01*
X69623238Y-87175044D01*
X69780000Y-87195682D01*
X69788188Y-87194604D01*
X69928574Y-87176122D01*
X69936762Y-87175044D01*
X70082841Y-87114536D01*
X70208282Y-87018282D01*
X70304536Y-86892841D01*
X70307696Y-86885211D01*
X70310380Y-86880563D01*
X70361763Y-86831569D01*
X70431476Y-86818132D01*
X70497387Y-86844519D01*
X70538570Y-86902350D01*
X70545500Y-86943562D01*
X70545500Y-89012718D01*
X70538643Y-89047196D01*
X70540254Y-89047628D01*
X70538116Y-89055609D01*
X70534956Y-89063238D01*
X70514318Y-89220000D01*
X70534956Y-89376762D01*
X70595464Y-89522841D01*
X70691718Y-89648282D01*
X70817159Y-89744536D01*
X70963238Y-89805044D01*
X71120000Y-89825682D01*
X71128188Y-89824604D01*
X71268574Y-89806122D01*
X71276762Y-89805044D01*
X71422841Y-89744536D01*
X71548282Y-89648282D01*
X71644536Y-89522841D01*
X71705044Y-89376762D01*
X71725682Y-89220000D01*
X71705044Y-89063238D01*
X71644536Y-88917159D01*
X71548282Y-88791718D01*
X71503796Y-88757583D01*
X71461929Y-88700245D01*
X71454500Y-88657620D01*
X71454500Y-87650000D01*
X79214318Y-87650000D01*
X79234956Y-87806762D01*
X79295464Y-87952841D01*
X79391718Y-88078282D01*
X79517159Y-88174536D01*
X79663238Y-88235044D01*
X79820000Y-88255682D01*
X79828188Y-88254604D01*
X79968574Y-88236122D01*
X79976762Y-88235044D01*
X80122841Y-88174536D01*
X80248282Y-88078282D01*
X80344536Y-87952841D01*
X80405044Y-87806762D01*
X80425682Y-87650000D01*
X80405044Y-87493238D01*
X80344536Y-87347159D01*
X80248282Y-87221718D01*
X80122841Y-87125464D01*
X79976762Y-87064956D01*
X79925453Y-87058201D01*
X79828188Y-87045396D01*
X79820000Y-87044318D01*
X79811812Y-87045396D01*
X79714548Y-87058201D01*
X79663238Y-87064956D01*
X79517159Y-87125464D01*
X79391718Y-87221718D01*
X79295464Y-87347159D01*
X79234956Y-87493238D01*
X79214318Y-87650000D01*
X71454500Y-87650000D01*
X71454500Y-84570450D01*
X71474502Y-84502329D01*
X71491405Y-84481355D01*
X72352455Y-83620305D01*
X72414767Y-83586279D01*
X72425100Y-83584479D01*
X72496762Y-83575044D01*
X72642841Y-83514536D01*
X72752195Y-83430626D01*
X72761736Y-83423305D01*
X72768282Y-83418282D01*
X72778135Y-83405442D01*
X72837816Y-83327663D01*
X72864536Y-83292841D01*
X72925044Y-83146762D01*
X72945682Y-82990000D01*
X72925044Y-82833238D01*
X72864536Y-82687159D01*
X72768282Y-82561718D01*
X72642841Y-82465464D01*
X72496762Y-82404956D01*
X72340000Y-82384318D01*
X72183238Y-82404956D01*
X72037159Y-82465464D01*
X71911718Y-82561718D01*
X71815464Y-82687159D01*
X71754956Y-82833238D01*
X71753878Y-82841428D01*
X71745522Y-82904896D01*
X71716800Y-82969823D01*
X71709695Y-82977545D01*
X70702989Y-83984251D01*
X70691900Y-83994106D01*
X70664941Y-84015359D01*
X70659589Y-84023103D01*
X70659587Y-84023105D01*
X70654153Y-84030968D01*
X70598968Y-84075634D01*
X70528394Y-84083375D01*
X70464839Y-84051732D01*
X70428481Y-83990751D01*
X70424500Y-83959329D01*
X70424500Y-83909801D01*
X70424597Y-83904855D01*
X70426488Y-83856712D01*
X70426858Y-83847302D01*
X70424961Y-83840147D01*
X70424500Y-83831769D01*
X70424500Y-80705665D01*
X70444502Y-80637544D01*
X70498158Y-80591051D01*
X70568432Y-80580947D01*
X70633012Y-80610441D01*
X70659620Y-80642667D01*
X70659705Y-80642813D01*
X70662864Y-80650441D01*
X70759118Y-80775882D01*
X70765664Y-80780905D01*
X70786847Y-80797159D01*
X70884559Y-80872136D01*
X71030638Y-80932644D01*
X71187400Y-80953282D01*
X71195588Y-80952204D01*
X71201483Y-80951428D01*
X71344162Y-80932644D01*
X71490241Y-80872136D01*
X71587953Y-80797159D01*
X71609136Y-80780905D01*
X71615682Y-80775882D01*
X71711936Y-80650441D01*
X71772444Y-80504362D01*
X71793082Y-80347600D01*
X71772444Y-80190838D01*
X71711936Y-80044759D01*
X71615682Y-79919318D01*
X71609136Y-79914295D01*
X71604330Y-79909489D01*
X71570304Y-79847177D01*
X71575369Y-79776362D01*
X71616722Y-79720431D01*
X71629133Y-79710908D01*
X71629136Y-79710905D01*
X71635682Y-79705882D01*
X71731936Y-79580441D01*
X71792444Y-79434362D01*
X71798434Y-79388867D01*
X71812004Y-79285788D01*
X71813082Y-79277600D01*
X71792444Y-79120838D01*
X71731936Y-78974759D01*
X71677941Y-78904391D01*
X71640710Y-78855870D01*
X71640708Y-78855868D01*
X71635682Y-78849318D01*
X71634224Y-78848199D01*
X71601622Y-78788500D01*
X71606683Y-78717684D01*
X71643894Y-78667353D01*
X71643291Y-78666750D01*
X71647316Y-78662725D01*
X71648039Y-78661747D01*
X71649135Y-78660906D01*
X71649136Y-78660905D01*
X71655682Y-78655882D01*
X71661139Y-78648771D01*
X71710661Y-78584232D01*
X71751936Y-78530441D01*
X71775985Y-78472382D01*
X71820534Y-78417101D01*
X71892394Y-78394600D01*
X77129650Y-78394600D01*
X77197771Y-78414602D01*
X77218745Y-78431505D01*
X78854595Y-80067355D01*
X78888621Y-80129667D01*
X78891500Y-80156450D01*
X78891500Y-80319283D01*
X78890627Y-80334092D01*
X78886593Y-80368177D01*
X78888285Y-80377441D01*
X78888285Y-80377444D01*
X78897229Y-80426419D01*
X78897878Y-80430321D01*
X78906684Y-80488889D01*
X78902943Y-80489451D01*
X78903587Y-80542238D01*
X78865934Y-80602428D01*
X78798714Y-80633138D01*
X78723938Y-80642982D01*
X78577859Y-80703490D01*
X78571308Y-80708517D01*
X78464330Y-80790604D01*
X78452418Y-80799744D01*
X78356164Y-80925185D01*
X78295656Y-81071264D01*
X78275018Y-81228026D01*
X78295656Y-81384788D01*
X78298816Y-81392417D01*
X78353004Y-81523237D01*
X78356164Y-81530867D01*
X78358505Y-81533917D01*
X78374759Y-81600928D01*
X78351537Y-81668019D01*
X78301673Y-81707713D01*
X78301940Y-81708175D01*
X78298858Y-81709954D01*
X78297120Y-81711338D01*
X78287159Y-81715464D01*
X78161718Y-81811718D01*
X78156695Y-81818264D01*
X78156692Y-81818267D01*
X78141787Y-81837692D01*
X78084449Y-81879560D01*
X78013579Y-81883782D01*
X77951675Y-81849019D01*
X77941861Y-81837692D01*
X77919299Y-81808288D01*
X77919296Y-81808285D01*
X77914273Y-81801739D01*
X77906737Y-81795956D01*
X77821178Y-81730305D01*
X77788832Y-81705485D01*
X77642753Y-81644977D01*
X77485991Y-81624339D01*
X77329229Y-81644977D01*
X77183150Y-81705485D01*
X77176599Y-81710512D01*
X77176594Y-81710515D01*
X77065245Y-81795956D01*
X76999025Y-81821557D01*
X76929476Y-81807292D01*
X76911837Y-81795957D01*
X76878431Y-81770324D01*
X76789336Y-81701959D01*
X76643257Y-81641451D01*
X76486495Y-81620813D01*
X76329733Y-81641451D01*
X76183654Y-81701959D01*
X76172504Y-81710515D01*
X76080395Y-81781192D01*
X76014174Y-81806792D01*
X75944626Y-81792527D01*
X75917879Y-81772751D01*
X75915678Y-81769883D01*
X75790237Y-81673629D01*
X75644158Y-81613121D01*
X75607919Y-81608350D01*
X75551542Y-81600928D01*
X75487396Y-81592483D01*
X75423250Y-81600928D01*
X75366874Y-81608350D01*
X75330634Y-81613121D01*
X75184555Y-81673629D01*
X75178004Y-81678656D01*
X75177999Y-81678659D01*
X75090769Y-81745593D01*
X75024549Y-81771194D01*
X74955000Y-81756929D01*
X74914102Y-81722334D01*
X74903345Y-81708315D01*
X74877745Y-81642095D01*
X74892010Y-81572546D01*
X74926604Y-81531650D01*
X75041732Y-81443309D01*
X75041736Y-81443305D01*
X75048282Y-81438282D01*
X75063629Y-81418282D01*
X75139509Y-81319392D01*
X75144536Y-81312841D01*
X75205044Y-81166762D01*
X75225682Y-81010000D01*
X75205044Y-80853238D01*
X75144536Y-80707159D01*
X75064173Y-80602428D01*
X75053305Y-80588264D01*
X75048282Y-80581718D01*
X74922841Y-80485464D01*
X74776762Y-80424956D01*
X74620000Y-80404318D01*
X74463238Y-80424956D01*
X74317159Y-80485464D01*
X74191718Y-80581718D01*
X74186695Y-80588264D01*
X74175827Y-80602428D01*
X74095464Y-80707159D01*
X74034956Y-80853238D01*
X74014318Y-81010000D01*
X74034956Y-81166762D01*
X74095464Y-81312841D01*
X74100491Y-81319392D01*
X74186655Y-81431684D01*
X74212255Y-81497905D01*
X74197990Y-81567453D01*
X74163396Y-81608350D01*
X74048268Y-81696691D01*
X74048264Y-81696695D01*
X74041718Y-81701718D01*
X73945464Y-81827159D01*
X73884956Y-81973238D01*
X73864318Y-82130000D01*
X73884956Y-82286762D01*
X73945464Y-82432841D01*
X73977976Y-82475211D01*
X74025488Y-82537130D01*
X74041718Y-82558282D01*
X74167159Y-82654536D01*
X74313238Y-82715044D01*
X74470000Y-82735682D01*
X74478188Y-82734604D01*
X74618574Y-82716122D01*
X74626762Y-82715044D01*
X74772841Y-82654536D01*
X74779394Y-82649508D01*
X74779397Y-82649506D01*
X74866627Y-82582572D01*
X74932847Y-82556971D01*
X75002396Y-82571236D01*
X75043293Y-82605830D01*
X75054087Y-82619897D01*
X75054091Y-82619901D01*
X75059114Y-82626447D01*
X75065660Y-82631470D01*
X75070207Y-82634959D01*
X75184555Y-82722701D01*
X75330634Y-82783209D01*
X75487396Y-82803847D01*
X75495584Y-82802769D01*
X75635970Y-82784287D01*
X75644158Y-82783209D01*
X75790237Y-82722701D01*
X75871222Y-82660559D01*
X75893496Y-82643468D01*
X75959717Y-82617868D01*
X76029265Y-82632133D01*
X76056012Y-82651909D01*
X76058213Y-82654777D01*
X76064759Y-82659800D01*
X76067278Y-82661733D01*
X76183654Y-82751031D01*
X76329733Y-82811539D01*
X76486495Y-82832177D01*
X76494683Y-82831099D01*
X76516795Y-82828188D01*
X76643257Y-82811539D01*
X76789336Y-82751031D01*
X76795889Y-82746003D01*
X76795892Y-82746001D01*
X76907241Y-82660560D01*
X76973461Y-82634959D01*
X77043010Y-82649224D01*
X77060650Y-82660559D01*
X77183150Y-82754557D01*
X77299544Y-82802769D01*
X77321376Y-82811812D01*
X77329229Y-82815065D01*
X77485991Y-82835703D01*
X77494179Y-82834625D01*
X77504715Y-82833238D01*
X77642753Y-82815065D01*
X77650607Y-82811812D01*
X77672438Y-82802769D01*
X77788832Y-82754557D01*
X77878073Y-82686080D01*
X77907727Y-82663326D01*
X77914273Y-82658303D01*
X77919296Y-82651757D01*
X77919299Y-82651754D01*
X77934204Y-82632329D01*
X77991542Y-82590461D01*
X78062412Y-82586239D01*
X78124316Y-82621002D01*
X78134130Y-82632329D01*
X78156692Y-82661733D01*
X78156695Y-82661736D01*
X78161718Y-82668282D01*
X78287159Y-82764536D01*
X78433238Y-82825044D01*
X78441426Y-82826122D01*
X78487419Y-82832177D01*
X78590000Y-82845682D01*
X78598188Y-82844604D01*
X78622313Y-82841428D01*
X78692581Y-82832177D01*
X78738574Y-82826122D01*
X78746762Y-82825044D01*
X78892841Y-82764536D01*
X79018282Y-82668282D01*
X79024791Y-82659800D01*
X79077996Y-82590461D01*
X79114536Y-82542841D01*
X79175044Y-82396762D01*
X79195682Y-82240000D01*
X79182278Y-82138188D01*
X79176122Y-82091426D01*
X79175044Y-82083238D01*
X79132872Y-81981426D01*
X79117696Y-81944787D01*
X79117695Y-81944785D01*
X79114536Y-81937159D01*
X79112195Y-81934109D01*
X79095941Y-81867098D01*
X79119163Y-81800007D01*
X79169027Y-81760313D01*
X79168760Y-81759851D01*
X79171842Y-81758072D01*
X79173580Y-81756688D01*
X79173640Y-81756663D01*
X79183541Y-81752562D01*
X79308982Y-81656308D01*
X79405236Y-81530867D01*
X79440376Y-81446032D01*
X79484925Y-81390751D01*
X79552288Y-81368330D01*
X79621079Y-81385888D01*
X79656746Y-81417545D01*
X79741718Y-81528282D01*
X79867159Y-81624536D01*
X80013238Y-81685044D01*
X80084897Y-81694478D01*
X80149823Y-81723200D01*
X80157545Y-81730305D01*
X81724251Y-83297011D01*
X81734106Y-83308100D01*
X81755359Y-83335059D01*
X81763106Y-83340413D01*
X81804094Y-83368742D01*
X81807287Y-83371024D01*
X81854924Y-83406209D01*
X81861797Y-83408623D01*
X81867789Y-83412764D01*
X81924270Y-83430626D01*
X81927980Y-83431864D01*
X81931256Y-83433014D01*
X81988897Y-83474459D01*
X82014983Y-83540490D01*
X82015500Y-83551894D01*
X82015500Y-83728170D01*
X82002685Y-83776008D01*
X82005464Y-83777159D01*
X81952571Y-83904855D01*
X81944956Y-83923238D01*
X81924318Y-84080000D01*
X81944956Y-84236762D01*
X82005464Y-84382841D01*
X82101718Y-84508282D01*
X82227159Y-84604536D01*
X82373238Y-84665044D01*
X82444897Y-84674478D01*
X82509823Y-84703200D01*
X82517545Y-84710305D01*
X82848595Y-85041355D01*
X82882621Y-85103667D01*
X82885500Y-85130450D01*
X82885500Y-93639500D01*
X82865498Y-93707621D01*
X82811842Y-93754114D01*
X82759500Y-93765500D01*
X82067789Y-93765500D01*
X81999668Y-93745498D01*
X81991085Y-93739463D01*
X81979392Y-93730491D01*
X81972841Y-93725464D01*
X81826762Y-93664956D01*
X81670000Y-93644318D01*
X81513238Y-93664956D01*
X81367159Y-93725464D01*
X81314299Y-93766025D01*
X81264293Y-93804396D01*
X81241718Y-93821718D01*
X81145464Y-93947159D01*
X81084956Y-94093238D01*
X81064318Y-94250000D01*
X81084956Y-94406762D01*
X81145464Y-94552841D01*
X81241718Y-94678282D01*
X81367159Y-94774536D01*
X81513238Y-94835044D01*
X81670000Y-94855682D01*
X81678188Y-94854604D01*
X81818574Y-94836122D01*
X81826762Y-94835044D01*
X81972841Y-94774536D01*
X82042349Y-94721201D01*
X82069279Y-94700537D01*
X82135500Y-94674937D01*
X82145983Y-94674500D01*
X83273490Y-94674500D01*
X83285331Y-94675855D01*
X83285371Y-94675351D01*
X83294762Y-94676090D01*
X83303938Y-94678217D01*
X83313334Y-94677552D01*
X83313337Y-94677552D01*
X83351990Y-94674815D01*
X83360888Y-94674500D01*
X86739550Y-94674500D01*
X86807671Y-94694502D01*
X86828645Y-94711405D01*
X87348595Y-95231355D01*
X87382621Y-95293667D01*
X87385500Y-95320450D01*
X87385500Y-96333114D01*
X87365498Y-96401235D01*
X87359463Y-96409818D01*
X87315464Y-96467159D01*
X87254956Y-96613238D01*
X87253878Y-96621426D01*
X87246839Y-96674896D01*
X87234318Y-96770000D01*
X87254956Y-96926762D01*
X87315464Y-97072841D01*
X87411718Y-97198282D01*
X87537159Y-97294536D01*
X87683238Y-97355044D01*
X87840000Y-97375682D01*
X87848188Y-97374604D01*
X87988574Y-97356122D01*
X87996762Y-97355044D01*
X88142841Y-97294536D01*
X88268282Y-97198282D01*
X88364536Y-97072841D01*
X88425044Y-96926762D01*
X88445682Y-96770000D01*
X88433161Y-96674896D01*
X88426122Y-96621426D01*
X88425044Y-96613238D01*
X88364536Y-96467159D01*
X88320537Y-96409818D01*
X88294937Y-96343597D01*
X88294500Y-96333114D01*
X88294500Y-95114464D01*
X88295373Y-95099654D01*
X88298301Y-95074915D01*
X88299408Y-95065563D01*
X88288763Y-95007275D01*
X88288119Y-95003407D01*
X88285823Y-94988136D01*
X88279315Y-94944849D01*
X88276162Y-94938282D01*
X88274853Y-94931117D01*
X88247554Y-94878564D01*
X88245785Y-94875023D01*
X88224233Y-94830140D01*
X88224231Y-94830137D01*
X88220154Y-94821647D01*
X88215264Y-94816357D01*
X88215159Y-94816202D01*
X88211852Y-94809835D01*
X88207506Y-94804746D01*
X88169924Y-94767164D01*
X88166494Y-94763598D01*
X88133774Y-94728202D01*
X88127383Y-94721288D01*
X88120983Y-94717570D01*
X88114723Y-94711963D01*
X87325749Y-93922989D01*
X87315894Y-93911900D01*
X87314835Y-93910556D01*
X87294641Y-93884941D01*
X87258469Y-93859941D01*
X87245906Y-93851258D01*
X87242713Y-93848976D01*
X87230560Y-93840000D01*
X89074723Y-93840000D01*
X89093793Y-94057977D01*
X89095217Y-94063290D01*
X89147440Y-94258188D01*
X89150425Y-94269330D01*
X89152747Y-94274310D01*
X89152748Y-94274312D01*
X89232335Y-94444985D01*
X89242898Y-94467638D01*
X89368402Y-94646877D01*
X89523123Y-94801598D01*
X89527631Y-94804755D01*
X89527634Y-94804757D01*
X89696163Y-94922762D01*
X89702361Y-94927102D01*
X89707343Y-94929425D01*
X89707348Y-94929428D01*
X89870173Y-95005354D01*
X89900670Y-95019575D01*
X89905978Y-95020997D01*
X89905980Y-95020998D01*
X89971745Y-95038620D01*
X90112023Y-95076207D01*
X90330000Y-95095277D01*
X90547977Y-95076207D01*
X90688255Y-95038620D01*
X90754020Y-95020998D01*
X90754022Y-95020997D01*
X90759330Y-95019575D01*
X90789827Y-95005354D01*
X90952652Y-94929428D01*
X90952657Y-94929425D01*
X90957639Y-94927102D01*
X90963837Y-94922762D01*
X91132366Y-94804757D01*
X91132369Y-94804755D01*
X91136877Y-94801598D01*
X91291598Y-94646877D01*
X91417102Y-94467638D01*
X91427666Y-94444985D01*
X91507252Y-94274312D01*
X91507253Y-94274310D01*
X91509575Y-94269330D01*
X91512561Y-94258188D01*
X91564783Y-94063290D01*
X91566207Y-94057977D01*
X91585277Y-93840000D01*
X91566207Y-93622023D01*
X91518332Y-93443352D01*
X91510998Y-93415980D01*
X91510997Y-93415978D01*
X91509575Y-93410670D01*
X91502052Y-93394536D01*
X91419425Y-93217343D01*
X91419423Y-93217340D01*
X91417102Y-93212362D01*
X91291598Y-93033123D01*
X91136877Y-92878402D01*
X91132369Y-92875245D01*
X91132366Y-92875243D01*
X90962148Y-92756055D01*
X90962145Y-92756053D01*
X90957639Y-92752898D01*
X90952657Y-92750575D01*
X90952652Y-92750572D01*
X90761222Y-92661307D01*
X90707937Y-92614390D01*
X90688476Y-92546112D01*
X90709018Y-92478152D01*
X90751472Y-92437993D01*
X90753572Y-92436781D01*
X90759604Y-92434095D01*
X90764946Y-92430214D01*
X90899578Y-92332398D01*
X90899580Y-92332396D01*
X90904922Y-92328515D01*
X90944206Y-92284886D01*
X91020694Y-92199937D01*
X91020695Y-92199936D01*
X91025113Y-92195029D01*
X91101164Y-92063305D01*
X91111621Y-92045194D01*
X91111622Y-92045193D01*
X91114925Y-92039471D01*
X91127726Y-92000075D01*
X91168391Y-91874918D01*
X91168391Y-91874917D01*
X91170431Y-91868639D01*
X91189207Y-91690000D01*
X91170431Y-91511361D01*
X91158044Y-91473238D01*
X91116967Y-91346813D01*
X91116966Y-91346811D01*
X91114925Y-91340529D01*
X91097002Y-91309486D01*
X91028414Y-91190688D01*
X91028413Y-91190686D01*
X91025113Y-91184971D01*
X91009813Y-91167978D01*
X90909344Y-91056396D01*
X90909343Y-91056395D01*
X90904922Y-91051485D01*
X90808495Y-90981426D01*
X90764946Y-90949786D01*
X90764945Y-90949785D01*
X90759604Y-90945905D01*
X90753576Y-90943221D01*
X90753574Y-90943220D01*
X90601541Y-90875531D01*
X90601540Y-90875531D01*
X90595510Y-90872846D01*
X90507661Y-90854173D01*
X90426269Y-90836872D01*
X90426264Y-90836872D01*
X90419812Y-90835500D01*
X90240188Y-90835500D01*
X90233736Y-90836872D01*
X90233731Y-90836872D01*
X90152339Y-90854173D01*
X90064490Y-90872846D01*
X90058460Y-90875531D01*
X90058459Y-90875531D01*
X89906427Y-90943220D01*
X89906425Y-90943221D01*
X89900397Y-90945905D01*
X89895056Y-90949785D01*
X89895055Y-90949786D01*
X89760422Y-91047602D01*
X89760420Y-91047604D01*
X89755078Y-91051485D01*
X89750657Y-91056395D01*
X89750656Y-91056396D01*
X89650188Y-91167978D01*
X89634887Y-91184971D01*
X89631587Y-91190686D01*
X89631586Y-91190688D01*
X89562998Y-91309486D01*
X89545075Y-91340529D01*
X89543034Y-91346811D01*
X89543033Y-91346813D01*
X89501956Y-91473238D01*
X89489569Y-91511361D01*
X89470793Y-91690000D01*
X89489569Y-91868639D01*
X89491609Y-91874917D01*
X89491609Y-91874918D01*
X89532275Y-92000075D01*
X89545075Y-92039471D01*
X89548378Y-92045193D01*
X89548379Y-92045194D01*
X89558836Y-92063305D01*
X89634887Y-92195029D01*
X89639305Y-92199936D01*
X89639306Y-92199937D01*
X89715794Y-92284886D01*
X89755078Y-92328515D01*
X89760420Y-92332396D01*
X89760422Y-92332398D01*
X89895054Y-92430214D01*
X89900396Y-92434095D01*
X89906428Y-92436781D01*
X89908528Y-92437993D01*
X89957521Y-92489375D01*
X89970958Y-92559089D01*
X89944571Y-92625000D01*
X89898778Y-92661307D01*
X89707343Y-92750575D01*
X89707340Y-92750577D01*
X89702362Y-92752898D01*
X89523123Y-92878402D01*
X89368402Y-93033123D01*
X89242898Y-93212362D01*
X89240577Y-93217340D01*
X89240575Y-93217343D01*
X89157948Y-93394536D01*
X89150425Y-93410670D01*
X89149003Y-93415978D01*
X89149002Y-93415980D01*
X89141668Y-93443352D01*
X89093793Y-93622023D01*
X89074723Y-93840000D01*
X87230560Y-93840000D01*
X87195076Y-93813791D01*
X87188203Y-93811377D01*
X87182211Y-93807236D01*
X87125722Y-93789371D01*
X87122001Y-93788129D01*
X87066126Y-93768507D01*
X87058922Y-93768224D01*
X87058751Y-93768191D01*
X87051903Y-93766025D01*
X87045232Y-93765500D01*
X86992062Y-93765500D01*
X86987116Y-93765403D01*
X86986224Y-93765368D01*
X86929563Y-93763142D01*
X86922408Y-93765039D01*
X86914033Y-93765500D01*
X83920500Y-93765500D01*
X83852379Y-93745498D01*
X83805886Y-93691842D01*
X83794500Y-93639500D01*
X83794500Y-84924456D01*
X83795373Y-84909647D01*
X83798300Y-84884915D01*
X83799407Y-84875562D01*
X83797715Y-84866295D01*
X83788771Y-84817320D01*
X83788122Y-84813418D01*
X83780716Y-84764164D01*
X83780715Y-84764161D01*
X83779315Y-84754849D01*
X83776162Y-84748282D01*
X83774853Y-84741117D01*
X83747538Y-84688533D01*
X83745788Y-84685030D01*
X83744066Y-84681443D01*
X83720154Y-84631647D01*
X83715259Y-84626352D01*
X83715166Y-84626213D01*
X83711852Y-84619834D01*
X83707506Y-84614746D01*
X83669924Y-84577164D01*
X83666494Y-84573598D01*
X83656545Y-84562835D01*
X83627383Y-84531288D01*
X83620983Y-84527570D01*
X83614723Y-84521963D01*
X83160305Y-84067545D01*
X83126279Y-84005233D01*
X83124478Y-83994896D01*
X83123026Y-83983865D01*
X83115044Y-83923238D01*
X83054536Y-83777159D01*
X82958282Y-83651718D01*
X82959729Y-83650608D01*
X82930610Y-83597283D01*
X82935675Y-83526468D01*
X82978222Y-83469632D01*
X83044742Y-83444821D01*
X83053731Y-83444500D01*
X84945544Y-83444500D01*
X84960354Y-83445373D01*
X84994438Y-83449407D01*
X85003702Y-83447715D01*
X85003705Y-83447715D01*
X85052680Y-83438771D01*
X85056582Y-83438122D01*
X85105836Y-83430716D01*
X85105839Y-83430715D01*
X85115151Y-83429315D01*
X85121718Y-83426162D01*
X85128883Y-83424853D01*
X85181467Y-83397538D01*
X85184957Y-83395795D01*
X85238353Y-83370154D01*
X85243648Y-83365259D01*
X85243787Y-83365166D01*
X85250166Y-83361852D01*
X85255254Y-83357506D01*
X85292836Y-83319924D01*
X85296402Y-83316494D01*
X85314903Y-83299392D01*
X85338712Y-83277383D01*
X85342430Y-83270983D01*
X85348037Y-83264723D01*
X85802455Y-82810305D01*
X85864767Y-82776279D01*
X85875100Y-82774479D01*
X85946762Y-82765044D01*
X86092841Y-82704536D01*
X86218282Y-82608282D01*
X86231957Y-82590461D01*
X86266456Y-82545500D01*
X86314536Y-82482841D01*
X86375044Y-82336762D01*
X86395682Y-82180000D01*
X86375044Y-82023238D01*
X86314536Y-81877159D01*
X86232559Y-81770324D01*
X86223305Y-81758264D01*
X86218282Y-81751718D01*
X86161718Y-81708315D01*
X86101285Y-81661943D01*
X86059418Y-81604605D01*
X86055196Y-81533734D01*
X86089960Y-81471831D01*
X86101285Y-81462017D01*
X86151736Y-81423305D01*
X86158282Y-81418282D01*
X86254536Y-81292841D01*
X86315044Y-81146762D01*
X86335682Y-80990000D01*
X86315044Y-80833238D01*
X86254536Y-80687159D01*
X86178651Y-80588264D01*
X86163305Y-80568264D01*
X86158282Y-80561718D01*
X86063279Y-80488820D01*
X86021413Y-80431483D01*
X86017191Y-80360612D01*
X86051955Y-80298709D01*
X86063280Y-80288895D01*
X86121304Y-80244372D01*
X86121305Y-80244371D01*
X86127850Y-80239349D01*
X86224104Y-80113908D01*
X86284612Y-79967829D01*
X86305250Y-79811067D01*
X86284612Y-79654305D01*
X86224104Y-79508226D01*
X86127850Y-79382785D01*
X86121304Y-79377762D01*
X86121301Y-79377759D01*
X86085536Y-79350316D01*
X86043668Y-79292978D01*
X86039446Y-79222107D01*
X86074209Y-79160204D01*
X86078912Y-79156129D01*
X86081736Y-79153305D01*
X86088282Y-79148282D01*
X86184536Y-79022841D01*
X86245044Y-78876762D01*
X86248461Y-78850811D01*
X86264604Y-78728188D01*
X86265682Y-78720000D01*
X86245044Y-78563238D01*
X86184536Y-78417159D01*
X86108651Y-78318264D01*
X86093305Y-78298264D01*
X86088282Y-78291718D01*
X85962841Y-78195464D01*
X85816762Y-78134956D01*
X85660000Y-78114318D01*
X85503238Y-78134956D01*
X85357159Y-78195464D01*
X85231718Y-78291718D01*
X85226695Y-78298264D01*
X85211349Y-78318264D01*
X85135464Y-78417159D01*
X85090646Y-78525359D01*
X85087267Y-78533517D01*
X85042719Y-78588798D01*
X84975355Y-78611219D01*
X84906564Y-78593661D01*
X84858186Y-78541699D01*
X84854449Y-78533517D01*
X84834367Y-78485036D01*
X84814536Y-78437159D01*
X84718282Y-78311718D01*
X84592841Y-78215464D01*
X84446762Y-78154956D01*
X84290000Y-78134318D01*
X84133238Y-78154956D01*
X83987159Y-78215464D01*
X83861718Y-78311718D01*
X83765464Y-78437159D01*
X83704956Y-78583238D01*
X83684318Y-78740000D01*
X83704956Y-78896762D01*
X83765464Y-79042841D01*
X83770491Y-79049392D01*
X83855520Y-79160204D01*
X83861718Y-79168282D01*
X83987159Y-79264536D01*
X84133238Y-79325044D01*
X84290000Y-79345682D01*
X84298188Y-79344604D01*
X84438574Y-79326122D01*
X84446762Y-79325044D01*
X84592841Y-79264536D01*
X84718282Y-79168282D01*
X84724481Y-79160204D01*
X84809509Y-79049392D01*
X84814536Y-79042841D01*
X84862733Y-78926483D01*
X84907281Y-78871202D01*
X84974645Y-78848781D01*
X85043436Y-78866339D01*
X85091814Y-78918301D01*
X85095551Y-78926483D01*
X85135464Y-79022841D01*
X85231718Y-79148282D01*
X85238264Y-79153305D01*
X85238267Y-79153308D01*
X85274032Y-79180751D01*
X85315900Y-79238089D01*
X85320122Y-79308960D01*
X85285359Y-79370863D01*
X85280656Y-79374938D01*
X85277832Y-79377762D01*
X85271286Y-79382785D01*
X85175032Y-79508226D01*
X85114524Y-79654305D01*
X85093886Y-79811067D01*
X85114524Y-79967829D01*
X85175032Y-80113908D01*
X85271286Y-80239349D01*
X85366289Y-80312247D01*
X85408155Y-80369584D01*
X85412377Y-80440455D01*
X85377613Y-80502358D01*
X85366290Y-80512171D01*
X85301718Y-80561718D01*
X85296695Y-80568264D01*
X85281349Y-80588264D01*
X85205464Y-80687159D01*
X85144956Y-80833238D01*
X85124318Y-80990000D01*
X85144956Y-81146762D01*
X85205464Y-81292841D01*
X85301718Y-81418282D01*
X85308264Y-81423305D01*
X85418715Y-81508057D01*
X85460582Y-81565395D01*
X85464804Y-81636266D01*
X85430040Y-81698169D01*
X85418717Y-81707981D01*
X85361718Y-81751718D01*
X85356695Y-81758264D01*
X85347441Y-81770324D01*
X85265464Y-81877159D01*
X85204956Y-82023238D01*
X85198061Y-82075609D01*
X85195522Y-82094896D01*
X85166800Y-82159823D01*
X85159695Y-82167545D01*
X84828645Y-82498595D01*
X84766333Y-82532621D01*
X84739550Y-82535500D01*
X82536510Y-82535500D01*
X82524669Y-82534145D01*
X82524629Y-82534649D01*
X82515239Y-82533910D01*
X82506062Y-82531783D01*
X82492634Y-82532734D01*
X82468934Y-82532175D01*
X82464918Y-82531700D01*
X82464915Y-82531700D01*
X82455562Y-82530593D01*
X82419763Y-82537131D01*
X82406033Y-82538865D01*
X82369734Y-82541435D01*
X82365283Y-82543157D01*
X82344058Y-82545500D01*
X82310450Y-82545500D01*
X82242329Y-82525498D01*
X82221355Y-82508595D01*
X80800305Y-81087545D01*
X80766279Y-81025233D01*
X80764478Y-81014896D01*
X80755044Y-80943238D01*
X80694536Y-80797159D01*
X80689509Y-80790608D01*
X80689507Y-80790604D01*
X80653457Y-80743622D01*
X80627857Y-80677402D01*
X80642122Y-80607853D01*
X80679606Y-80569015D01*
X80677624Y-80566432D01*
X80796519Y-80475201D01*
X80803065Y-80470178D01*
X80899319Y-80344737D01*
X80959827Y-80198658D01*
X80980465Y-80041896D01*
X80959827Y-79885134D01*
X80899319Y-79739055D01*
X80803065Y-79613614D01*
X80796519Y-79608591D01*
X80795538Y-79607610D01*
X80761512Y-79545298D01*
X80766577Y-79474483D01*
X80798337Y-79431596D01*
X80795891Y-79429150D01*
X80801736Y-79423305D01*
X80808282Y-79418282D01*
X80904536Y-79292841D01*
X80965044Y-79146762D01*
X80985682Y-78990000D01*
X80965044Y-78833238D01*
X80904536Y-78687159D01*
X80808282Y-78561718D01*
X80682841Y-78465464D01*
X80536762Y-78404956D01*
X80380000Y-78384318D01*
X80223238Y-78404956D01*
X80077159Y-78465464D01*
X79951718Y-78561718D01*
X79855464Y-78687159D01*
X79794956Y-78833238D01*
X79774318Y-78990000D01*
X79794956Y-79146762D01*
X79855464Y-79292841D01*
X79951718Y-79418282D01*
X79958264Y-79423305D01*
X79959245Y-79424286D01*
X79993271Y-79486598D01*
X79988206Y-79557413D01*
X79956446Y-79600300D01*
X79958892Y-79602746D01*
X79953047Y-79608591D01*
X79946501Y-79613614D01*
X79941478Y-79620160D01*
X79919277Y-79649093D01*
X79861939Y-79690960D01*
X79791068Y-79695182D01*
X79729165Y-79660418D01*
X79718836Y-79647730D01*
X79717852Y-79645835D01*
X79713506Y-79640746D01*
X79675924Y-79603164D01*
X79672494Y-79599598D01*
X79654785Y-79580441D01*
X79633383Y-79557288D01*
X79626983Y-79553570D01*
X79620723Y-79547963D01*
X77715849Y-77643089D01*
X77705994Y-77632000D01*
X77704935Y-77630656D01*
X77684741Y-77605041D01*
X77659862Y-77587846D01*
X77636006Y-77571358D01*
X77632813Y-77569076D01*
X77585176Y-77533891D01*
X77578303Y-77531477D01*
X77572311Y-77527336D01*
X77515822Y-77509471D01*
X77512101Y-77508229D01*
X77456226Y-77488607D01*
X77449022Y-77488324D01*
X77448851Y-77488291D01*
X77442003Y-77486125D01*
X77435332Y-77485600D01*
X77382162Y-77485600D01*
X77377216Y-77485503D01*
X77376324Y-77485468D01*
X77319663Y-77483242D01*
X77312508Y-77485139D01*
X77304133Y-77485600D01*
X74740500Y-77485600D01*
X74672379Y-77465598D01*
X74625886Y-77411942D01*
X74614500Y-77359600D01*
X74614500Y-77120450D01*
X74634502Y-77052329D01*
X74651405Y-77031355D01*
X74702455Y-76980305D01*
X74764767Y-76946279D01*
X74775100Y-76944479D01*
X74846762Y-76935044D01*
X74992841Y-76874536D01*
X75118282Y-76778282D01*
X75214536Y-76652841D01*
X75245266Y-76578653D01*
X75289813Y-76523373D01*
X75357176Y-76500952D01*
X75409891Y-76510463D01*
X75437073Y-76521722D01*
X75437078Y-76521723D01*
X75444706Y-76524883D01*
X75601468Y-76545521D01*
X75609656Y-76544443D01*
X75623990Y-76542556D01*
X75758230Y-76524883D01*
X75904309Y-76464375D01*
X76029750Y-76368121D01*
X76126004Y-76242680D01*
X76134700Y-76221686D01*
X79521051Y-76221686D01*
X79541689Y-76378448D01*
X79602197Y-76524527D01*
X79698451Y-76649968D01*
X79823892Y-76746222D01*
X79969971Y-76806730D01*
X80126733Y-76827368D01*
X80134921Y-76826290D01*
X80275307Y-76807808D01*
X80283495Y-76806730D01*
X80429574Y-76746222D01*
X80555015Y-76649968D01*
X80651269Y-76524527D01*
X80711777Y-76378448D01*
X80732415Y-76221686D01*
X80711777Y-76064924D01*
X80651269Y-75918845D01*
X80555015Y-75793404D01*
X80429574Y-75697150D01*
X80283495Y-75636642D01*
X80126733Y-75616004D01*
X79969971Y-75636642D01*
X79823892Y-75697150D01*
X79698451Y-75793404D01*
X79602197Y-75918845D01*
X79541689Y-76064924D01*
X79521051Y-76221686D01*
X76134700Y-76221686D01*
X76186512Y-76096601D01*
X76207150Y-75939839D01*
X76186512Y-75783077D01*
X76126004Y-75636998D01*
X76029750Y-75511557D01*
X75904309Y-75415303D01*
X75758230Y-75354795D01*
X75750042Y-75353717D01*
X75687035Y-75345422D01*
X75622108Y-75316700D01*
X75602207Y-75286529D01*
X75594679Y-75303012D01*
X75534953Y-75341396D01*
X75515901Y-75345422D01*
X75452894Y-75353717D01*
X75444706Y-75354795D01*
X75298627Y-75415303D01*
X75173186Y-75511557D01*
X75076932Y-75636998D01*
X75049934Y-75702177D01*
X75046203Y-75711185D01*
X75001655Y-75766466D01*
X74934292Y-75788887D01*
X74881577Y-75779376D01*
X74854395Y-75768117D01*
X74854390Y-75768116D01*
X74846762Y-75764956D01*
X74690000Y-75744318D01*
X74533238Y-75764956D01*
X74387159Y-75825464D01*
X74261718Y-75921718D01*
X74165464Y-76047159D01*
X74104956Y-76193238D01*
X74098447Y-76242680D01*
X74095522Y-76264896D01*
X74066800Y-76329823D01*
X74059695Y-76337545D01*
X73862989Y-76534251D01*
X73851900Y-76544106D01*
X73824941Y-76565359D01*
X73819587Y-76573106D01*
X73791258Y-76614094D01*
X73788976Y-76617287D01*
X73753791Y-76664924D01*
X73751377Y-76671797D01*
X73747236Y-76677789D01*
X73738357Y-76705864D01*
X73729374Y-76734270D01*
X73728129Y-76737999D01*
X73708507Y-76793874D01*
X73708224Y-76801078D01*
X73708191Y-76801249D01*
X73706025Y-76808097D01*
X73705500Y-76814768D01*
X73705500Y-76867938D01*
X73705403Y-76872884D01*
X73703142Y-76930437D01*
X73705039Y-76937592D01*
X73705500Y-76945967D01*
X73705500Y-77359600D01*
X73685498Y-77427721D01*
X73631842Y-77474214D01*
X73579500Y-77485600D01*
X71887661Y-77485600D01*
X71819540Y-77465598D01*
X71773047Y-77411942D01*
X71762943Y-77341668D01*
X71771252Y-77311382D01*
X71779284Y-77291992D01*
X71779285Y-77291989D01*
X71782444Y-77284362D01*
X71803082Y-77127600D01*
X71782444Y-76970838D01*
X71721936Y-76824759D01*
X71625682Y-76699318D01*
X71500241Y-76603064D01*
X71354162Y-76542556D01*
X71197400Y-76521918D01*
X71040638Y-76542556D01*
X70894559Y-76603064D01*
X70769118Y-76699318D01*
X70672864Y-76824759D01*
X70612356Y-76970838D01*
X70591718Y-77127600D01*
X70612356Y-77284362D01*
X70672864Y-77430441D01*
X70769118Y-77555882D01*
X70773398Y-77559166D01*
X70806790Y-77620317D01*
X70801725Y-77691132D01*
X70759178Y-77747968D01*
X70692658Y-77772779D01*
X70683669Y-77773100D01*
X70616856Y-77773100D01*
X70602047Y-77772227D01*
X70577315Y-77769300D01*
X70567962Y-77768193D01*
X70558698Y-77769885D01*
X70558697Y-77769885D01*
X70509710Y-77778832D01*
X70505806Y-77779482D01*
X70447249Y-77788285D01*
X70440683Y-77791438D01*
X70433516Y-77792747D01*
X70385711Y-77817579D01*
X70380974Y-77820040D01*
X70377437Y-77821808D01*
X70324047Y-77847446D01*
X70318751Y-77852342D01*
X70318615Y-77852434D01*
X70312234Y-77855748D01*
X70307146Y-77860094D01*
X70269564Y-77897676D01*
X70265999Y-77901106D01*
X70223688Y-77940217D01*
X70219970Y-77946617D01*
X70214363Y-77952877D01*
X69672989Y-78494251D01*
X69661900Y-78504106D01*
X69634941Y-78525359D01*
X69629587Y-78533106D01*
X69601258Y-78574094D01*
X69598976Y-78577287D01*
X69563791Y-78624924D01*
X69561377Y-78631797D01*
X69557236Y-78637789D01*
X69543223Y-78682100D01*
X69539374Y-78694270D01*
X69538129Y-78697999D01*
X69518507Y-78753874D01*
X69518224Y-78761078D01*
X69518191Y-78761249D01*
X69516025Y-78768097D01*
X69515500Y-78774768D01*
X69515500Y-78827938D01*
X69515403Y-78832884D01*
X69513142Y-78890437D01*
X69515039Y-78897592D01*
X69515500Y-78905967D01*
X69515500Y-83657289D01*
X69495498Y-83725410D01*
X69478595Y-83746384D01*
X69478422Y-83746557D01*
X69416110Y-83780583D01*
X69345295Y-83775518D01*
X69288459Y-83732971D01*
X69272918Y-83705680D01*
X69252874Y-83657289D01*
X69244536Y-83637159D01*
X69148282Y-83511718D01*
X69022841Y-83415464D01*
X68876762Y-83354956D01*
X68720000Y-83334318D01*
X68563238Y-83354956D01*
X68417159Y-83415464D01*
X68291718Y-83511718D01*
X68195464Y-83637159D01*
X68134956Y-83783238D01*
X68114318Y-83940000D01*
X68134956Y-84096762D01*
X68195464Y-84242841D01*
X68291718Y-84368282D01*
X68298264Y-84373305D01*
X68310692Y-84382841D01*
X68417159Y-84464536D01*
X68457764Y-84481355D01*
X68486828Y-84493394D01*
X68542109Y-84537943D01*
X68564530Y-84605306D01*
X68546972Y-84674097D01*
X68542262Y-84681443D01*
X68521257Y-84711834D01*
X68518976Y-84715026D01*
X68483791Y-84762663D01*
X68481377Y-84769536D01*
X68477236Y-84775528D01*
X68474396Y-84784509D01*
X68459374Y-84832009D01*
X68458129Y-84835738D01*
X68438507Y-84891613D01*
X68438224Y-84898817D01*
X68438191Y-84898988D01*
X68436025Y-84905836D01*
X68435500Y-84912507D01*
X68435500Y-84965677D01*
X68435403Y-84970623D01*
X68433142Y-85028176D01*
X68435039Y-85035331D01*
X68435500Y-85043706D01*
X68435500Y-96075544D01*
X68434627Y-96090353D01*
X68430593Y-96124438D01*
X68432285Y-96133702D01*
X68432285Y-96133705D01*
X68441229Y-96182680D01*
X68441878Y-96186582D01*
X68449284Y-96235836D01*
X68450685Y-96245151D01*
X68453838Y-96251718D01*
X68455147Y-96258883D01*
X68482462Y-96311467D01*
X68484205Y-96314957D01*
X68509846Y-96368353D01*
X68514741Y-96373648D01*
X68514834Y-96373787D01*
X68518148Y-96380166D01*
X68522494Y-96385254D01*
X68560076Y-96422836D01*
X68563506Y-96426401D01*
X68602617Y-96468712D01*
X68609017Y-96472430D01*
X68615277Y-96478037D01*
X68909695Y-96772455D01*
X68943721Y-96834767D01*
X68945521Y-96845100D01*
X68954956Y-96916762D01*
X69015464Y-97062841D01*
X69063516Y-97125464D01*
X69087481Y-97156695D01*
X69111718Y-97188282D01*
X69237159Y-97284536D01*
X69383238Y-97345044D01*
X69454897Y-97354478D01*
X69519823Y-97383200D01*
X69527545Y-97390305D01*
X70212595Y-98075355D01*
X70246621Y-98137667D01*
X70249500Y-98164450D01*
X70249500Y-100185550D01*
X70229498Y-100253671D01*
X70212595Y-100274645D01*
X68192695Y-102294545D01*
X68130383Y-102328571D01*
X68066341Y-102325815D01*
X68040787Y-102317905D01*
X68002254Y-102305977D01*
X67996129Y-102305333D01*
X67996128Y-102305333D01*
X67803498Y-102285087D01*
X67803496Y-102285087D01*
X67797369Y-102284443D01*
X67710529Y-102292346D01*
X67598342Y-102302555D01*
X67598339Y-102302556D01*
X67592203Y-102303114D01*
X67394572Y-102361280D01*
X67212002Y-102456726D01*
X67207201Y-102460586D01*
X67207198Y-102460588D01*
X67183383Y-102479736D01*
X67051447Y-102585815D01*
X66919024Y-102743630D01*
X66916056Y-102749028D01*
X66916053Y-102749033D01*
X66841153Y-102885277D01*
X66819776Y-102924162D01*
X66757484Y-103120532D01*
X66756798Y-103126649D01*
X66756797Y-103126653D01*
X66746486Y-103218581D01*
X66734520Y-103325262D01*
X66735036Y-103331406D01*
X66750902Y-103520342D01*
X66751759Y-103530553D01*
X66753458Y-103536478D01*
X66799395Y-103696678D01*
X66808544Y-103728586D01*
X66811359Y-103734063D01*
X66811360Y-103734066D01*
X66899897Y-103906341D01*
X66902712Y-103911818D01*
X67030677Y-104073270D01*
X67035370Y-104077264D01*
X67035371Y-104077265D01*
X67145819Y-104171263D01*
X67187564Y-104206791D01*
X67192942Y-104209797D01*
X67192944Y-104209798D01*
X67341838Y-104293012D01*
X67391544Y-104343706D01*
X67405952Y-104413225D01*
X67380488Y-104479498D01*
X67323237Y-104521483D01*
X67280368Y-104529000D01*
X65755074Y-104529000D01*
X65686953Y-104508998D01*
X65640460Y-104455342D01*
X65630356Y-104385068D01*
X65659850Y-104320488D01*
X65698264Y-104290534D01*
X65810112Y-104234035D01*
X65815610Y-104231258D01*
X65831345Y-104218965D01*
X65931919Y-104140388D01*
X65977951Y-104104424D01*
X66035992Y-104037183D01*
X66108540Y-103953134D01*
X66108540Y-103953133D01*
X66112564Y-103948472D01*
X66133387Y-103911818D01*
X66151056Y-103880714D01*
X66214323Y-103769344D01*
X66279351Y-103573863D01*
X66305171Y-103369474D01*
X66305583Y-103340000D01*
X66285480Y-103134970D01*
X66225935Y-102937749D01*
X66129218Y-102755849D01*
X66044727Y-102652253D01*
X66002906Y-102600975D01*
X66002903Y-102600972D01*
X65999011Y-102596200D01*
X65986458Y-102585815D01*
X65845025Y-102468811D01*
X65845021Y-102468809D01*
X65840275Y-102464882D01*
X65659055Y-102366897D01*
X65462254Y-102305977D01*
X65456129Y-102305333D01*
X65456128Y-102305333D01*
X65263498Y-102285087D01*
X65263496Y-102285087D01*
X65257369Y-102284443D01*
X65170529Y-102292346D01*
X65058342Y-102302555D01*
X65058339Y-102302556D01*
X65052203Y-102303114D01*
X64854572Y-102361280D01*
X64672002Y-102456726D01*
X64667201Y-102460586D01*
X64667198Y-102460588D01*
X64643383Y-102479736D01*
X64511447Y-102585815D01*
X64379024Y-102743630D01*
X64376056Y-102749028D01*
X64376053Y-102749033D01*
X64301153Y-102885277D01*
X64279776Y-102924162D01*
X64217484Y-103120532D01*
X64216798Y-103126649D01*
X64216797Y-103126653D01*
X64206486Y-103218581D01*
X64194520Y-103325262D01*
X64195036Y-103331406D01*
X64210902Y-103520342D01*
X64211759Y-103530553D01*
X64213458Y-103536478D01*
X64259395Y-103696678D01*
X64268544Y-103728586D01*
X64271359Y-103734063D01*
X64271360Y-103734066D01*
X64359897Y-103906341D01*
X64362712Y-103911818D01*
X64490677Y-104073270D01*
X64495370Y-104077264D01*
X64495371Y-104077265D01*
X64605819Y-104171263D01*
X64647564Y-104206791D01*
X64652942Y-104209797D01*
X64652944Y-104209798D01*
X64801838Y-104293012D01*
X64851544Y-104343706D01*
X64865952Y-104413225D01*
X64840488Y-104479498D01*
X64783237Y-104521483D01*
X64740368Y-104529000D01*
X63563290Y-104529000D01*
X63556695Y-104528827D01*
X63293678Y-104515042D01*
X63293209Y-104515017D01*
X63251160Y-104512656D01*
X63238514Y-104511303D01*
X63206735Y-104506270D01*
X63041107Y-104480037D01*
X63039830Y-104479827D01*
X62930055Y-104461174D01*
X62918551Y-104458662D01*
X62801068Y-104427183D01*
X62738729Y-104410479D01*
X62736497Y-104409858D01*
X62616507Y-104375289D01*
X62606235Y-104371845D01*
X62532930Y-104343706D01*
X62437730Y-104307162D01*
X62434701Y-104305954D01*
X62370707Y-104279447D01*
X62314205Y-104256043D01*
X62305220Y-104251901D01*
X62146959Y-104171263D01*
X62143214Y-104169274D01*
X62026685Y-104104871D01*
X62019008Y-104100265D01*
X61871419Y-104004419D01*
X61867131Y-104001508D01*
X61757303Y-103923581D01*
X61750921Y-103918740D01*
X61614801Y-103808511D01*
X61610137Y-103804543D01*
X61576750Y-103774707D01*
X61509242Y-103714378D01*
X61504125Y-103709539D01*
X61380461Y-103585875D01*
X61375622Y-103580758D01*
X61285457Y-103479863D01*
X61281489Y-103475199D01*
X61171260Y-103339079D01*
X61166419Y-103332697D01*
X61088492Y-103222869D01*
X61085581Y-103218581D01*
X60989735Y-103070992D01*
X60985129Y-103063315D01*
X60957998Y-103014224D01*
X60939598Y-102980933D01*
X60920726Y-102946786D01*
X60918737Y-102943041D01*
X60838099Y-102784780D01*
X60833957Y-102775795D01*
X60787090Y-102662649D01*
X60784046Y-102655299D01*
X60782831Y-102652253D01*
X60763148Y-102600975D01*
X60718154Y-102483763D01*
X60714711Y-102473493D01*
X60680142Y-102353503D01*
X60679510Y-102351232D01*
X60678441Y-102347240D01*
X60661070Y-102282411D01*
X60631338Y-102171449D01*
X60628826Y-102159945D01*
X60610173Y-102050170D01*
X60609963Y-102048893D01*
X60602386Y-102001056D01*
X61454662Y-102001056D01*
X61454674Y-102001232D01*
X61455056Y-102007062D01*
X61455056Y-102007067D01*
X61456231Y-102024989D01*
X61467896Y-102202972D01*
X61517705Y-102399096D01*
X61602421Y-102582858D01*
X61719206Y-102748106D01*
X61864150Y-102889304D01*
X61868946Y-102892509D01*
X61868949Y-102892511D01*
X61944573Y-102943041D01*
X62032397Y-103001723D01*
X62037705Y-103004004D01*
X62037706Y-103004004D01*
X62213012Y-103079321D01*
X62213015Y-103079322D01*
X62218315Y-103081599D01*
X62223944Y-103082873D01*
X62223945Y-103082873D01*
X62410038Y-103124982D01*
X62410044Y-103124983D01*
X62415675Y-103126257D01*
X62421446Y-103126484D01*
X62421448Y-103126484D01*
X62479949Y-103128783D01*
X62617869Y-103134202D01*
X62718590Y-103119598D01*
X62812411Y-103105995D01*
X62812416Y-103105994D01*
X62818125Y-103105166D01*
X62823589Y-103103311D01*
X62823594Y-103103310D01*
X63004264Y-103041981D01*
X63004269Y-103041979D01*
X63009736Y-103040123D01*
X63014777Y-103037300D01*
X63181247Y-102944072D01*
X63181251Y-102944069D01*
X63186285Y-102941250D01*
X63190722Y-102937560D01*
X63190726Y-102937557D01*
X63337422Y-102815551D01*
X63341860Y-102811860D01*
X63394113Y-102749033D01*
X63467557Y-102660726D01*
X63467560Y-102660722D01*
X63471250Y-102656285D01*
X63474069Y-102651251D01*
X63474072Y-102651247D01*
X63567300Y-102484777D01*
X63567300Y-102484776D01*
X63570123Y-102479736D01*
X63571979Y-102474269D01*
X63571981Y-102474264D01*
X63633310Y-102293594D01*
X63633311Y-102293589D01*
X63635166Y-102288125D01*
X63635994Y-102282416D01*
X63635995Y-102282411D01*
X63653751Y-102159945D01*
X63664202Y-102087869D01*
X63665717Y-102030000D01*
X63647202Y-101828499D01*
X63592276Y-101633746D01*
X63502779Y-101452264D01*
X63487231Y-101431442D01*
X63385161Y-101294755D01*
X63385161Y-101294754D01*
X63381708Y-101290131D01*
X63292248Y-101207435D01*
X63237358Y-101156695D01*
X63237355Y-101156693D01*
X63233118Y-101152776D01*
X63061985Y-101044799D01*
X62874041Y-100969817D01*
X62675579Y-100930340D01*
X62669805Y-100930264D01*
X62669801Y-100930264D01*
X62567385Y-100928924D01*
X62473246Y-100927692D01*
X62467549Y-100928671D01*
X62467548Y-100928671D01*
X62279516Y-100960980D01*
X62279515Y-100960980D01*
X62273819Y-100961959D01*
X62083977Y-101031996D01*
X62079016Y-101034948D01*
X62079015Y-101034948D01*
X61915044Y-101132500D01*
X61915041Y-101132502D01*
X61910076Y-101135456D01*
X61757941Y-101268875D01*
X61754366Y-101273410D01*
X61754365Y-101273411D01*
X61705275Y-101335682D01*
X61632668Y-101427783D01*
X61629977Y-101432899D01*
X61629975Y-101432901D01*
X61541143Y-101601743D01*
X61538451Y-101606860D01*
X61478446Y-101800109D01*
X61477767Y-101805846D01*
X61473313Y-101843481D01*
X61454662Y-102001056D01*
X60602386Y-102001056D01*
X60578697Y-101851486D01*
X60577344Y-101838841D01*
X60574977Y-101796694D01*
X60574952Y-101796223D01*
X60561173Y-101533304D01*
X60561000Y-101526710D01*
X60561000Y-100516500D01*
X60581002Y-100448379D01*
X60634658Y-100401886D01*
X60687000Y-100390500D01*
X62559609Y-100390500D01*
X62576077Y-100391581D01*
X62577139Y-100391721D01*
X62583633Y-100392750D01*
X62626576Y-100400709D01*
X62645692Y-100404252D01*
X62653272Y-100403815D01*
X62653273Y-100403815D01*
X62707144Y-100400709D01*
X62714396Y-100400500D01*
X65121359Y-100400500D01*
X65129929Y-100400792D01*
X65179354Y-100404162D01*
X65179358Y-100404162D01*
X65186930Y-100404678D01*
X65194406Y-100403373D01*
X65194409Y-100403373D01*
X65249132Y-100393822D01*
X65255658Y-100392859D01*
X65296096Y-100387965D01*
X65318320Y-100385276D01*
X65325427Y-100382591D01*
X65328720Y-100381782D01*
X65343191Y-100377823D01*
X65346467Y-100376834D01*
X65353954Y-100375527D01*
X65360914Y-100372472D01*
X65411760Y-100350153D01*
X65417866Y-100347661D01*
X65469818Y-100328030D01*
X65469820Y-100328029D01*
X65476923Y-100325345D01*
X65483178Y-100321046D01*
X65486203Y-100319465D01*
X65499299Y-100312175D01*
X65502243Y-100310434D01*
X65509202Y-100307379D01*
X65512303Y-100305000D01*
X66749318Y-100305000D01*
X66769956Y-100461762D01*
X66830464Y-100607841D01*
X66926718Y-100733282D01*
X67052159Y-100829536D01*
X67170547Y-100878574D01*
X67190315Y-100886762D01*
X67198238Y-100890044D01*
X67355000Y-100910682D01*
X67363188Y-100909604D01*
X67503574Y-100891122D01*
X67511762Y-100890044D01*
X67519686Y-100886762D01*
X67539453Y-100878574D01*
X67657841Y-100829536D01*
X67783282Y-100733282D01*
X67879536Y-100607841D01*
X67940044Y-100461762D01*
X67960682Y-100305000D01*
X67940044Y-100148238D01*
X67879536Y-100002159D01*
X67783282Y-99876718D01*
X67657841Y-99780464D01*
X67511762Y-99719956D01*
X67355000Y-99699318D01*
X67198238Y-99719956D01*
X67052159Y-99780464D01*
X66926718Y-99876718D01*
X66830464Y-100002159D01*
X66769956Y-100148238D01*
X66749318Y-100305000D01*
X65512303Y-100305000D01*
X65516580Y-100301718D01*
X65559273Y-100268958D01*
X65564609Y-100265081D01*
X65610386Y-100233619D01*
X65610392Y-100233614D01*
X65616651Y-100229312D01*
X65657599Y-100183353D01*
X65662580Y-100178076D01*
X65942707Y-99897950D01*
X65945392Y-99895265D01*
X65991766Y-99836122D01*
X66018897Y-99801521D01*
X66018898Y-99801519D01*
X66023584Y-99795543D01*
X66083314Y-99663254D01*
X68658493Y-99663254D01*
X68679131Y-99820016D01*
X68739639Y-99966095D01*
X68835893Y-100091536D01*
X68961334Y-100187790D01*
X69107413Y-100248298D01*
X69264175Y-100268936D01*
X69272363Y-100267858D01*
X69412749Y-100249376D01*
X69420937Y-100248298D01*
X69567016Y-100187790D01*
X69692457Y-100091536D01*
X69788711Y-99966095D01*
X69849219Y-99820016D01*
X69869857Y-99663254D01*
X69849219Y-99506492D01*
X69788711Y-99360413D01*
X69703988Y-99250000D01*
X69697480Y-99241518D01*
X69692457Y-99234972D01*
X69685911Y-99229949D01*
X69685908Y-99229946D01*
X69658382Y-99208825D01*
X69616514Y-99151487D01*
X69612292Y-99080617D01*
X69647055Y-99018713D01*
X69658381Y-99008899D01*
X69691736Y-98983305D01*
X69698282Y-98978282D01*
X69794536Y-98852841D01*
X69855044Y-98706762D01*
X69875682Y-98550000D01*
X69855044Y-98393238D01*
X69794536Y-98247159D01*
X69698282Y-98121718D01*
X69572841Y-98025464D01*
X69426762Y-97964956D01*
X69270000Y-97944318D01*
X69113238Y-97964956D01*
X68967159Y-98025464D01*
X68841718Y-98121718D01*
X68745464Y-98247159D01*
X68684956Y-98393238D01*
X68664318Y-98550000D01*
X68684956Y-98706762D01*
X68745464Y-98852841D01*
X68841718Y-98978282D01*
X68848264Y-98983305D01*
X68848267Y-98983308D01*
X68875793Y-99004429D01*
X68917661Y-99061767D01*
X68921883Y-99132637D01*
X68887120Y-99194541D01*
X68875794Y-99204355D01*
X68835893Y-99234972D01*
X68830870Y-99241518D01*
X68824362Y-99250000D01*
X68739639Y-99360413D01*
X68679131Y-99506492D01*
X68658493Y-99663254D01*
X66083314Y-99663254D01*
X66093355Y-99641016D01*
X66124252Y-99474308D01*
X66114493Y-99305041D01*
X66064639Y-99142989D01*
X65977569Y-98997505D01*
X65972232Y-98992112D01*
X65972229Y-98992108D01*
X65915629Y-98934913D01*
X65875539Y-98894401D01*
X65841842Y-98831912D01*
X65847277Y-98761124D01*
X65871025Y-98721955D01*
X65877765Y-98714391D01*
X65911404Y-98676635D01*
X65954388Y-98628392D01*
X65954390Y-98628388D01*
X65959440Y-98622721D01*
X66038776Y-98472881D01*
X66080081Y-98308441D01*
X66080245Y-98277247D01*
X66080835Y-98164450D01*
X66080969Y-98138895D01*
X66078473Y-98128495D01*
X66043161Y-97981417D01*
X66041388Y-97974032D01*
X66036148Y-97963878D01*
X65967108Y-97830117D01*
X65967108Y-97830116D01*
X65963625Y-97823369D01*
X65958627Y-97817639D01*
X65878217Y-97725464D01*
X65852169Y-97695604D01*
X65726949Y-97607598D01*
X65719670Y-97602482D01*
X65719668Y-97602481D01*
X65713453Y-97598113D01*
X65555487Y-97536524D01*
X65547954Y-97535532D01*
X65547953Y-97535532D01*
X65430261Y-97520038D01*
X65430260Y-97520038D01*
X65426174Y-97519500D01*
X65002347Y-97519500D01*
X64934226Y-97499498D01*
X64913252Y-97482595D01*
X63605582Y-96174925D01*
X63599728Y-96168659D01*
X63567165Y-96131331D01*
X63562169Y-96125604D01*
X63510527Y-96089310D01*
X63505242Y-96085384D01*
X63461524Y-96051105D01*
X63461520Y-96051103D01*
X63455543Y-96046416D01*
X63448620Y-96043290D01*
X63445672Y-96041505D01*
X63432712Y-96034113D01*
X63429666Y-96032480D01*
X63423453Y-96028113D01*
X63364633Y-96005180D01*
X63358554Y-96002624D01*
X63301016Y-95976645D01*
X63293545Y-95975260D01*
X63290277Y-95974236D01*
X63275836Y-95970123D01*
X63272563Y-95969283D01*
X63265487Y-95966524D01*
X63220817Y-95960644D01*
X63202894Y-95958284D01*
X63196377Y-95957252D01*
X63141775Y-95947132D01*
X63134308Y-95945748D01*
X63126728Y-95946185D01*
X63126727Y-95946185D01*
X63072856Y-95949291D01*
X63065604Y-95949500D01*
X62997500Y-95949500D01*
X62929379Y-95929498D01*
X62882886Y-95875842D01*
X62882703Y-95875000D01*
X66709318Y-95875000D01*
X66729956Y-96031762D01*
X66790464Y-96177841D01*
X66886718Y-96303282D01*
X67012159Y-96399536D01*
X67158238Y-96460044D01*
X67315000Y-96480682D01*
X67323188Y-96479604D01*
X67463574Y-96461122D01*
X67471762Y-96460044D01*
X67617841Y-96399536D01*
X67743282Y-96303282D01*
X67839536Y-96177841D01*
X67900044Y-96031762D01*
X67920682Y-95875000D01*
X67900044Y-95718238D01*
X67839536Y-95572159D01*
X67743282Y-95446718D01*
X67617841Y-95350464D01*
X67471762Y-95289956D01*
X67315000Y-95269318D01*
X67158238Y-95289956D01*
X67012159Y-95350464D01*
X66886718Y-95446718D01*
X66790464Y-95572159D01*
X66729956Y-95718238D01*
X66709318Y-95875000D01*
X62882703Y-95875000D01*
X62871500Y-95823500D01*
X62871500Y-95630252D01*
X62868694Y-95616144D01*
X62862288Y-95583939D01*
X62862288Y-95583938D01*
X62859867Y-95571769D01*
X62815552Y-95505448D01*
X62749231Y-95461133D01*
X62737062Y-95458712D01*
X62737061Y-95458712D01*
X62696816Y-95450707D01*
X62690748Y-95449500D01*
X60687000Y-95449500D01*
X60618879Y-95429498D01*
X60572386Y-95375842D01*
X60561000Y-95323500D01*
X60561000Y-92514501D01*
X62098130Y-92514501D01*
X62099370Y-92521717D01*
X62099370Y-92521719D01*
X62123356Y-92661307D01*
X62126780Y-92681233D01*
X62193018Y-92836902D01*
X62217375Y-92870000D01*
X62288953Y-92967264D01*
X62288955Y-92967267D01*
X62293291Y-92973158D01*
X62298867Y-92977895D01*
X62416646Y-93077957D01*
X62416649Y-93077959D01*
X62422220Y-93082692D01*
X62572889Y-93159627D01*
X62579998Y-93161367D01*
X62580002Y-93161368D01*
X62680045Y-93185848D01*
X62737217Y-93199838D01*
X62742814Y-93200185D01*
X62742819Y-93200186D01*
X62745949Y-93200380D01*
X62745958Y-93200380D01*
X62747888Y-93200500D01*
X63919863Y-93200500D01*
X64008535Y-93190162D01*
X64038265Y-93186696D01*
X64038266Y-93186696D01*
X64045537Y-93185848D01*
X64052414Y-93183352D01*
X64052417Y-93183351D01*
X64197682Y-93130622D01*
X64204561Y-93128125D01*
X64346040Y-93035367D01*
X64462385Y-92912550D01*
X64547356Y-92766262D01*
X64550448Y-92756055D01*
X64573109Y-92681233D01*
X64596395Y-92604350D01*
X64606870Y-92435499D01*
X64592688Y-92352962D01*
X64579460Y-92275983D01*
X64578220Y-92268767D01*
X64511982Y-92113098D01*
X64462010Y-92045194D01*
X64416047Y-91982736D01*
X64416045Y-91982733D01*
X64411709Y-91976842D01*
X64362324Y-91934886D01*
X64288354Y-91872043D01*
X64288351Y-91872041D01*
X64282780Y-91867308D01*
X64132111Y-91790373D01*
X64125002Y-91788633D01*
X64124998Y-91788632D01*
X64009608Y-91760396D01*
X63967783Y-91750162D01*
X63962186Y-91749815D01*
X63962181Y-91749814D01*
X63959051Y-91749620D01*
X63959042Y-91749620D01*
X63957112Y-91749500D01*
X62785137Y-91749500D01*
X62696465Y-91759838D01*
X62666735Y-91763304D01*
X62666734Y-91763304D01*
X62659463Y-91764152D01*
X62652586Y-91766648D01*
X62652583Y-91766649D01*
X62587225Y-91790373D01*
X62500439Y-91821875D01*
X62358960Y-91914633D01*
X62242615Y-92037450D01*
X62157644Y-92183738D01*
X62155523Y-92190740D01*
X62155522Y-92190743D01*
X62144157Y-92228267D01*
X62108605Y-92345650D01*
X62098130Y-92514501D01*
X60561000Y-92514501D01*
X60561000Y-91130000D01*
X66784318Y-91130000D01*
X66804956Y-91286762D01*
X66865464Y-91432841D01*
X66961718Y-91558282D01*
X67087159Y-91654536D01*
X67233238Y-91715044D01*
X67390000Y-91735682D01*
X67398188Y-91734604D01*
X67538574Y-91716122D01*
X67546762Y-91715044D01*
X67692841Y-91654536D01*
X67818282Y-91558282D01*
X67914536Y-91432841D01*
X67975044Y-91286762D01*
X67995682Y-91130000D01*
X67975044Y-90973238D01*
X67914536Y-90827159D01*
X67818282Y-90701718D01*
X67692841Y-90605464D01*
X67546762Y-90544956D01*
X67390000Y-90524318D01*
X67233238Y-90544956D01*
X67087159Y-90605464D01*
X66961718Y-90701718D01*
X66865464Y-90827159D01*
X66804956Y-90973238D01*
X66784318Y-91130000D01*
X60561000Y-91130000D01*
X60561000Y-85364501D01*
X62098130Y-85364501D01*
X62099370Y-85371717D01*
X62099370Y-85371719D01*
X62113569Y-85454350D01*
X62126780Y-85531233D01*
X62193018Y-85686902D01*
X62197355Y-85692795D01*
X62288953Y-85817264D01*
X62288955Y-85817267D01*
X62293291Y-85823158D01*
X62298867Y-85827895D01*
X62416646Y-85927957D01*
X62416649Y-85927959D01*
X62422220Y-85932692D01*
X62572889Y-86009627D01*
X62579998Y-86011367D01*
X62580002Y-86011368D01*
X62680045Y-86035848D01*
X62737217Y-86049838D01*
X62742814Y-86050185D01*
X62742819Y-86050186D01*
X62745949Y-86050380D01*
X62745958Y-86050380D01*
X62747888Y-86050500D01*
X63919863Y-86050500D01*
X64008535Y-86040162D01*
X64038265Y-86036696D01*
X64038266Y-86036696D01*
X64045537Y-86035848D01*
X64052414Y-86033352D01*
X64052417Y-86033351D01*
X64197682Y-85980622D01*
X64204561Y-85978125D01*
X64346040Y-85885367D01*
X64462385Y-85762550D01*
X64547356Y-85616262D01*
X64596395Y-85454350D01*
X64606870Y-85285499D01*
X64592688Y-85202962D01*
X64579460Y-85125983D01*
X64578220Y-85118767D01*
X64511982Y-84963098D01*
X64461216Y-84894115D01*
X64416047Y-84832736D01*
X64416045Y-84832733D01*
X64411709Y-84826842D01*
X64361880Y-84784509D01*
X64288354Y-84722043D01*
X64288351Y-84722041D01*
X64282780Y-84717308D01*
X64132111Y-84640373D01*
X64125002Y-84638633D01*
X64124998Y-84638632D01*
X63998572Y-84607696D01*
X63967783Y-84600162D01*
X63962186Y-84599815D01*
X63962181Y-84599814D01*
X63959051Y-84599620D01*
X63959042Y-84599620D01*
X63957112Y-84599500D01*
X62785137Y-84599500D01*
X62696465Y-84609838D01*
X62666735Y-84613304D01*
X62666734Y-84613304D01*
X62659463Y-84614152D01*
X62652586Y-84616648D01*
X62652583Y-84616649D01*
X62587867Y-84640140D01*
X62500439Y-84671875D01*
X62358960Y-84764633D01*
X62242615Y-84887450D01*
X62157644Y-85033738D01*
X62108605Y-85195650D01*
X62108152Y-85202959D01*
X62108151Y-85202962D01*
X62103723Y-85274338D01*
X62098130Y-85364501D01*
X60561000Y-85364501D01*
X60561000Y-82820000D01*
X61054318Y-82820000D01*
X61074956Y-82976762D01*
X61135464Y-83122841D01*
X61231718Y-83248282D01*
X61357159Y-83344536D01*
X61503238Y-83405044D01*
X61511426Y-83406122D01*
X61562060Y-83412788D01*
X61660000Y-83425682D01*
X61668188Y-83424604D01*
X61808574Y-83406122D01*
X61816762Y-83405044D01*
X61962841Y-83344536D01*
X62088282Y-83248282D01*
X62184536Y-83122841D01*
X62245044Y-82976762D01*
X62265682Y-82820000D01*
X62245044Y-82663238D01*
X62184536Y-82517159D01*
X62088282Y-82391718D01*
X61962841Y-82295464D01*
X61816762Y-82234956D01*
X61660000Y-82214318D01*
X61503238Y-82234956D01*
X61357159Y-82295464D01*
X61231718Y-82391718D01*
X61135464Y-82517159D01*
X61074956Y-82663238D01*
X61054318Y-82820000D01*
X60561000Y-82820000D01*
X60561000Y-82066500D01*
X60581002Y-81998379D01*
X60634658Y-81951886D01*
X60687000Y-81940500D01*
X62690748Y-81940500D01*
X62696816Y-81939293D01*
X62737061Y-81931288D01*
X62737062Y-81931288D01*
X62749231Y-81928867D01*
X62815552Y-81884552D01*
X62859867Y-81818231D01*
X62863148Y-81801739D01*
X62870293Y-81765816D01*
X62871500Y-81759748D01*
X62871500Y-79720252D01*
X62866513Y-79695182D01*
X62862288Y-79673939D01*
X62862288Y-79673938D01*
X62859867Y-79661769D01*
X62815552Y-79595448D01*
X62805239Y-79588557D01*
X62805237Y-79588555D01*
X62784599Y-79574765D01*
X62739071Y-79520288D01*
X62730224Y-79449845D01*
X62760865Y-79385801D01*
X62784599Y-79365235D01*
X62805237Y-79351445D01*
X62805239Y-79351443D01*
X62815552Y-79344552D01*
X62859867Y-79278231D01*
X62871500Y-79219748D01*
X62871500Y-78780500D01*
X62891502Y-78712379D01*
X62945158Y-78665886D01*
X62997500Y-78654500D01*
X63205544Y-78654500D01*
X63220354Y-78655373D01*
X63254438Y-78659407D01*
X63263702Y-78657715D01*
X63263705Y-78657715D01*
X63312680Y-78648771D01*
X63316582Y-78648122D01*
X63365836Y-78640716D01*
X63365839Y-78640715D01*
X63375151Y-78639315D01*
X63381718Y-78636162D01*
X63388883Y-78634853D01*
X63441467Y-78607538D01*
X63444957Y-78605795D01*
X63498353Y-78580154D01*
X63503648Y-78575259D01*
X63503787Y-78575166D01*
X63510166Y-78571852D01*
X63515254Y-78567506D01*
X63552836Y-78529924D01*
X63556402Y-78526494D01*
X63591798Y-78493774D01*
X63598712Y-78487383D01*
X63602430Y-78480983D01*
X63608037Y-78474723D01*
X66951355Y-75131405D01*
X67013667Y-75097379D01*
X67040450Y-75094500D01*
X67787781Y-75094500D01*
X67855902Y-75114502D01*
X67902395Y-75168158D01*
X67912499Y-75238432D01*
X67887744Y-75297204D01*
X67880105Y-75307159D01*
X67849414Y-75347157D01*
X67788906Y-75493236D01*
X67768268Y-75649998D01*
X67769346Y-75658186D01*
X67783261Y-75763878D01*
X67788906Y-75806760D01*
X67849414Y-75952839D01*
X67945668Y-76078280D01*
X68071109Y-76174534D01*
X68217188Y-76235042D01*
X68373950Y-76255680D01*
X68382138Y-76254602D01*
X68522524Y-76236120D01*
X68530712Y-76235042D01*
X68676791Y-76174534D01*
X68802232Y-76078280D01*
X68898486Y-75952839D01*
X68958994Y-75806760D01*
X68964640Y-75763878D01*
X68978554Y-75658186D01*
X68979632Y-75649998D01*
X68958994Y-75493236D01*
X68898486Y-75347157D01*
X68867795Y-75307159D01*
X68860156Y-75297204D01*
X68834556Y-75230983D01*
X68848821Y-75161434D01*
X68898422Y-75110639D01*
X68960119Y-75094500D01*
X75499455Y-75094500D01*
X75567576Y-75114502D01*
X75602195Y-75154454D01*
X75619841Y-75126264D01*
X75684067Y-75096005D01*
X75703481Y-75094500D01*
X82183140Y-75094500D01*
X82251261Y-75114502D01*
X82297754Y-75168158D01*
X82307858Y-75238432D01*
X82283101Y-75297206D01*
X82275464Y-75307159D01*
X82214956Y-75453238D01*
X82194318Y-75610000D01*
X82198506Y-75641810D01*
X82211926Y-75743743D01*
X82214956Y-75766762D01*
X82275464Y-75912841D01*
X82371718Y-76038282D01*
X82497159Y-76134536D01*
X82643238Y-76195044D01*
X82651426Y-76196122D01*
X82721619Y-76205363D01*
X82800000Y-76215682D01*
X82808188Y-76214604D01*
X82948574Y-76196122D01*
X82956762Y-76195044D01*
X83102841Y-76134536D01*
X83228282Y-76038282D01*
X83233305Y-76031736D01*
X83300037Y-75944769D01*
X83357375Y-75902902D01*
X83428246Y-75898680D01*
X83490149Y-75933444D01*
X83499963Y-75944769D01*
X83566695Y-76031736D01*
X83571718Y-76038282D01*
X83697159Y-76134536D01*
X83818837Y-76184937D01*
X83874117Y-76229484D01*
X83896538Y-76296848D01*
X83878980Y-76365639D01*
X83847322Y-76401307D01*
X83740789Y-76483053D01*
X83740785Y-76483057D01*
X83734239Y-76488080D01*
X83637985Y-76613521D01*
X83577477Y-76759600D01*
X83556839Y-76916362D01*
X83577477Y-77073124D01*
X83637985Y-77219203D01*
X83734239Y-77344644D01*
X83859680Y-77440898D01*
X84005759Y-77501406D01*
X84162521Y-77522044D01*
X84170709Y-77520966D01*
X84311095Y-77502484D01*
X84319283Y-77501406D01*
X84465362Y-77440898D01*
X84590803Y-77344644D01*
X84687057Y-77219203D01*
X84747565Y-77073124D01*
X84768203Y-76916362D01*
X84747565Y-76759600D01*
X84687057Y-76613521D01*
X84590803Y-76488080D01*
X84465362Y-76391826D01*
X84343684Y-76341425D01*
X84288404Y-76296878D01*
X84265983Y-76229514D01*
X84283541Y-76160723D01*
X84315199Y-76125055D01*
X84421732Y-76043309D01*
X84421736Y-76043305D01*
X84428282Y-76038282D01*
X84433305Y-76031736D01*
X84500037Y-75944769D01*
X84557375Y-75902902D01*
X84628246Y-75898680D01*
X84690149Y-75933444D01*
X84699963Y-75944769D01*
X84766695Y-76031736D01*
X84771718Y-76038282D01*
X84897159Y-76134536D01*
X85043238Y-76195044D01*
X85051426Y-76196122D01*
X85121619Y-76205363D01*
X85200000Y-76215682D01*
X85208188Y-76214604D01*
X85348574Y-76196122D01*
X85356762Y-76195044D01*
X85502841Y-76134536D01*
X85628282Y-76038282D01*
X85633305Y-76031736D01*
X85700037Y-75944769D01*
X85757375Y-75902902D01*
X85828246Y-75898680D01*
X85890149Y-75933444D01*
X85899963Y-75944769D01*
X85966695Y-76031736D01*
X85971718Y-76038282D01*
X86097159Y-76134536D01*
X86243238Y-76195044D01*
X86251426Y-76196122D01*
X86321619Y-76205363D01*
X86400000Y-76215682D01*
X86408188Y-76214604D01*
X86548574Y-76196122D01*
X86556762Y-76195044D01*
X86702841Y-76134536D01*
X86828282Y-76038282D01*
X86833305Y-76031736D01*
X86900037Y-75944769D01*
X86957375Y-75902902D01*
X87028246Y-75898680D01*
X87090149Y-75933444D01*
X87099963Y-75944769D01*
X87166695Y-76031736D01*
X87171718Y-76038282D01*
X87297159Y-76134536D01*
X87443238Y-76195044D01*
X87451426Y-76196122D01*
X87521619Y-76205363D01*
X87600000Y-76215682D01*
X87608188Y-76214604D01*
X87748574Y-76196122D01*
X87756762Y-76195044D01*
X87902841Y-76134536D01*
X88028282Y-76038282D01*
X88099538Y-75945419D01*
X88156875Y-75903553D01*
X88227746Y-75899331D01*
X88289649Y-75934095D01*
X88322930Y-75996807D01*
X88325500Y-76022124D01*
X88325500Y-88105544D01*
X88324627Y-88120353D01*
X88320593Y-88154438D01*
X88322285Y-88163702D01*
X88322285Y-88163705D01*
X88331229Y-88212680D01*
X88331878Y-88216582D01*
X88339284Y-88265836D01*
X88340685Y-88275151D01*
X88343838Y-88281718D01*
X88345147Y-88288883D01*
X88372462Y-88341467D01*
X88374205Y-88344957D01*
X88399846Y-88398353D01*
X88404741Y-88403648D01*
X88404834Y-88403787D01*
X88408148Y-88410166D01*
X88412494Y-88415254D01*
X88450076Y-88452836D01*
X88453506Y-88456401D01*
X88492617Y-88498712D01*
X88499017Y-88502430D01*
X88505277Y-88508037D01*
X89448882Y-89451642D01*
X89482908Y-89513954D01*
X89485097Y-89553908D01*
X89470793Y-89690000D01*
X89489569Y-89868639D01*
X89545075Y-90039471D01*
X89634887Y-90195029D01*
X89755078Y-90328515D01*
X89900396Y-90434095D01*
X89906424Y-90436779D01*
X89906426Y-90436780D01*
X90058459Y-90504469D01*
X90064490Y-90507154D01*
X90145240Y-90524318D01*
X90233731Y-90543128D01*
X90233736Y-90543128D01*
X90240188Y-90544500D01*
X90419812Y-90544500D01*
X90426264Y-90543128D01*
X90426269Y-90543128D01*
X90514760Y-90524318D01*
X90595510Y-90507154D01*
X90601541Y-90504469D01*
X90753574Y-90436780D01*
X90753576Y-90436779D01*
X90759604Y-90434095D01*
X90904922Y-90328515D01*
X91025113Y-90195029D01*
X91114925Y-90039471D01*
X91170431Y-89868639D01*
X91189207Y-89690000D01*
X91170431Y-89511361D01*
X91165764Y-89496996D01*
X91116967Y-89346813D01*
X91116966Y-89346811D01*
X91114925Y-89340529D01*
X91025113Y-89184971D01*
X90915505Y-89063238D01*
X90909344Y-89056396D01*
X90909343Y-89056395D01*
X90904922Y-89051485D01*
X90790792Y-88968564D01*
X90747439Y-88912344D01*
X90741364Y-88841608D01*
X90774495Y-88778816D01*
X90805330Y-88757295D01*
X90804653Y-88756087D01*
X90937708Y-88681573D01*
X90947570Y-88671497D01*
X90944615Y-88663825D01*
X89971922Y-87691132D01*
X90694408Y-87691132D01*
X90694539Y-87692965D01*
X90698790Y-87699580D01*
X91299910Y-88300700D01*
X91312290Y-88307460D01*
X91318870Y-88302534D01*
X91393267Y-88169688D01*
X91397943Y-88159185D01*
X91462878Y-87967894D01*
X91465563Y-87956712D01*
X91494846Y-87754749D01*
X91495476Y-87747366D01*
X91496881Y-87693704D01*
X91496638Y-87686305D01*
X91477966Y-87483092D01*
X91475868Y-87471771D01*
X91421038Y-87277357D01*
X91416913Y-87266610D01*
X91327567Y-87085438D01*
X91323663Y-87079066D01*
X91313453Y-87071404D01*
X91301033Y-87078177D01*
X90702022Y-87677188D01*
X90694408Y-87691132D01*
X89971922Y-87691132D01*
X89358558Y-87077768D01*
X89322724Y-87058201D01*
X89300112Y-87053281D01*
X89249911Y-87003077D01*
X89234500Y-86942695D01*
X89234500Y-86517165D01*
X89254502Y-86449044D01*
X89308158Y-86402551D01*
X89378432Y-86392447D01*
X89443012Y-86421941D01*
X89449595Y-86428070D01*
X89523123Y-86501598D01*
X89527631Y-86504755D01*
X89527634Y-86504757D01*
X89658418Y-86596333D01*
X89702746Y-86651790D01*
X89707289Y-86694599D01*
X89716876Y-86717666D01*
X90317188Y-87317978D01*
X90331132Y-87325592D01*
X90332965Y-87325461D01*
X90339580Y-87321210D01*
X90939433Y-86721357D01*
X90947922Y-86705812D01*
X90962270Y-86639857D01*
X91000586Y-86597030D01*
X91001582Y-86596333D01*
X91114645Y-86517165D01*
X91132366Y-86504757D01*
X91132369Y-86504755D01*
X91136877Y-86501598D01*
X91291598Y-86346877D01*
X91417102Y-86167638D01*
X91466221Y-86062304D01*
X91507252Y-85974312D01*
X91507253Y-85974310D01*
X91509575Y-85969330D01*
X91566207Y-85757977D01*
X91585277Y-85540000D01*
X91566207Y-85322023D01*
X91509575Y-85110670D01*
X91507252Y-85105688D01*
X91419425Y-84917343D01*
X91419423Y-84917340D01*
X91417102Y-84912362D01*
X91291598Y-84733123D01*
X91136877Y-84578402D01*
X91132369Y-84575245D01*
X91132366Y-84575243D01*
X90962148Y-84456055D01*
X90962145Y-84456053D01*
X90957639Y-84452898D01*
X90952657Y-84450575D01*
X90952652Y-84450572D01*
X90764312Y-84362748D01*
X90764311Y-84362747D01*
X90759330Y-84360425D01*
X90754022Y-84359003D01*
X90754020Y-84359002D01*
X90619225Y-84322884D01*
X90547977Y-84303793D01*
X90330000Y-84284723D01*
X90112023Y-84303793D01*
X90040775Y-84322884D01*
X89905980Y-84359002D01*
X89905978Y-84359003D01*
X89900670Y-84360425D01*
X89895690Y-84362747D01*
X89895688Y-84362748D01*
X89707343Y-84450575D01*
X89707340Y-84450577D01*
X89702362Y-84452898D01*
X89523123Y-84578402D01*
X89449595Y-84651930D01*
X89387283Y-84685956D01*
X89316468Y-84680891D01*
X89259632Y-84638344D01*
X89234821Y-84571824D01*
X89234500Y-84562835D01*
X89234500Y-75374456D01*
X89235373Y-75359647D01*
X89236851Y-75347157D01*
X89239407Y-75325562D01*
X89237715Y-75316298D01*
X89237430Y-75307225D01*
X89251065Y-75254745D01*
X89226718Y-75219938D01*
X89452783Y-75219938D01*
X89483089Y-75263989D01*
X89485490Y-75272247D01*
X89517705Y-75399096D01*
X89602421Y-75582858D01*
X89719206Y-75748106D01*
X89864150Y-75889304D01*
X89868946Y-75892509D01*
X89868949Y-75892511D01*
X89952035Y-75948027D01*
X90032397Y-76001723D01*
X90037705Y-76004004D01*
X90037706Y-76004004D01*
X90213012Y-76079321D01*
X90213015Y-76079322D01*
X90218315Y-76081599D01*
X90223944Y-76082873D01*
X90223945Y-76082873D01*
X90410038Y-76124982D01*
X90410044Y-76124983D01*
X90415675Y-76126257D01*
X90421446Y-76126484D01*
X90421448Y-76126484D01*
X90479949Y-76128783D01*
X90617869Y-76134202D01*
X90718590Y-76119598D01*
X90812411Y-76105995D01*
X90812416Y-76105994D01*
X90818125Y-76105166D01*
X90823589Y-76103311D01*
X90823594Y-76103310D01*
X91004264Y-76041981D01*
X91004269Y-76041979D01*
X91009736Y-76040123D01*
X91014777Y-76037300D01*
X91181247Y-75944072D01*
X91181251Y-75944069D01*
X91186285Y-75941250D01*
X91190722Y-75937560D01*
X91190726Y-75937557D01*
X91337422Y-75815551D01*
X91341860Y-75811860D01*
X91368877Y-75779376D01*
X91467557Y-75660726D01*
X91467560Y-75660722D01*
X91471250Y-75656285D01*
X91474069Y-75651251D01*
X91474072Y-75651247D01*
X91567300Y-75484777D01*
X91567300Y-75484776D01*
X91570123Y-75479736D01*
X91571979Y-75474269D01*
X91571981Y-75474264D01*
X91633310Y-75293594D01*
X91633311Y-75293589D01*
X91635166Y-75288125D01*
X91635994Y-75282416D01*
X91635995Y-75282411D01*
X91657363Y-75135037D01*
X91664202Y-75087869D01*
X91665717Y-75030000D01*
X91647202Y-74828499D01*
X91592276Y-74633746D01*
X91502779Y-74452264D01*
X91487231Y-74431442D01*
X91385161Y-74294755D01*
X91385161Y-74294754D01*
X91381708Y-74290131D01*
X91273850Y-74190428D01*
X91237358Y-74156695D01*
X91237355Y-74156693D01*
X91233118Y-74152776D01*
X91061985Y-74044799D01*
X90874041Y-73969817D01*
X90675579Y-73930340D01*
X90669805Y-73930264D01*
X90669801Y-73930264D01*
X90567385Y-73928924D01*
X90473246Y-73927692D01*
X90467549Y-73928671D01*
X90467548Y-73928671D01*
X90279516Y-73960980D01*
X90279515Y-73960980D01*
X90273819Y-73961959D01*
X90083977Y-74031996D01*
X90079016Y-74034948D01*
X90079015Y-74034948D01*
X89915044Y-74132500D01*
X89915041Y-74132502D01*
X89910076Y-74135456D01*
X89805421Y-74227236D01*
X89768781Y-74259369D01*
X89757941Y-74268875D01*
X89754366Y-74273410D01*
X89754365Y-74273411D01*
X89650879Y-74404683D01*
X89632668Y-74427783D01*
X89629977Y-74432899D01*
X89629975Y-74432901D01*
X89549159Y-74586507D01*
X89538451Y-74606860D01*
X89478446Y-74800109D01*
X89477767Y-74805846D01*
X89457002Y-74981288D01*
X89454662Y-75001056D01*
X89454674Y-75001232D01*
X89455056Y-75007062D01*
X89455056Y-75007066D01*
X89456559Y-75030000D01*
X89465333Y-75163860D01*
X89452783Y-75219938D01*
X89226718Y-75219938D01*
X89220178Y-75210588D01*
X89219315Y-75204849D01*
X89216162Y-75198283D01*
X89214853Y-75191116D01*
X89187560Y-75138574D01*
X89185792Y-75135037D01*
X89174076Y-75110639D01*
X89160154Y-75081647D01*
X89155258Y-75076351D01*
X89155166Y-75076215D01*
X89151852Y-75069834D01*
X89147506Y-75064746D01*
X89109924Y-75027164D01*
X89106494Y-75023598D01*
X89073774Y-74988202D01*
X89067383Y-74981288D01*
X89060983Y-74977570D01*
X89054723Y-74971963D01*
X88425749Y-74342989D01*
X88415894Y-74331900D01*
X88401393Y-74313506D01*
X88394641Y-74304941D01*
X88351638Y-74275220D01*
X88345906Y-74271258D01*
X88342713Y-74268976D01*
X88295076Y-74233791D01*
X88288203Y-74231377D01*
X88282211Y-74227236D01*
X88225722Y-74209371D01*
X88222001Y-74208129D01*
X88166126Y-74188507D01*
X88158922Y-74188224D01*
X88158751Y-74188191D01*
X88151903Y-74186025D01*
X88145232Y-74185500D01*
X88092062Y-74185500D01*
X88087116Y-74185403D01*
X88086224Y-74185368D01*
X88029563Y-74183142D01*
X88022408Y-74185039D01*
X88014033Y-74185500D01*
X68778204Y-74185500D01*
X68710083Y-74165498D01*
X68663590Y-74111842D01*
X68653486Y-74041568D01*
X68682980Y-73976988D01*
X68701500Y-73959538D01*
X68735682Y-73933309D01*
X68735686Y-73933305D01*
X68742232Y-73928282D01*
X68838486Y-73802841D01*
X68898994Y-73656762D01*
X68919632Y-73500000D01*
X68903646Y-73378574D01*
X68900072Y-73351426D01*
X68898994Y-73343238D01*
X68838486Y-73197159D01*
X68742232Y-73071718D01*
X68724996Y-73058492D01*
X68623342Y-72980491D01*
X68616791Y-72975464D01*
X68470712Y-72914956D01*
X68437686Y-72910608D01*
X68322138Y-72895396D01*
X68313950Y-72894318D01*
X68305762Y-72895396D01*
X68190215Y-72910608D01*
X68157188Y-72914956D01*
X68011109Y-72975464D01*
X68004558Y-72980491D01*
X67902905Y-73058492D01*
X67885668Y-73071718D01*
X67789414Y-73197159D01*
X67728906Y-73343238D01*
X67727828Y-73351426D01*
X67724254Y-73378574D01*
X67708268Y-73500000D01*
X67728906Y-73656762D01*
X67789414Y-73802841D01*
X67885668Y-73928282D01*
X67892214Y-73933305D01*
X67892218Y-73933309D01*
X67926400Y-73959538D01*
X67968267Y-74016876D01*
X67972489Y-74087747D01*
X67937725Y-74149650D01*
X67875012Y-74182931D01*
X67849696Y-74185500D01*
X66834456Y-74185500D01*
X66819647Y-74184627D01*
X66807099Y-74183142D01*
X66785562Y-74180593D01*
X66776298Y-74182285D01*
X66776297Y-74182285D01*
X66727310Y-74191232D01*
X66723406Y-74191882D01*
X66664849Y-74200685D01*
X66658283Y-74203838D01*
X66651116Y-74205147D01*
X66614060Y-74224396D01*
X66598574Y-74232440D01*
X66595037Y-74234208D01*
X66541647Y-74259846D01*
X66536351Y-74264742D01*
X66536215Y-74264834D01*
X66529834Y-74268148D01*
X66524746Y-74272494D01*
X66487164Y-74310076D01*
X66483599Y-74313506D01*
X66441288Y-74352617D01*
X66437570Y-74359017D01*
X66431963Y-74365277D01*
X63088645Y-77708595D01*
X63026333Y-77742621D01*
X62999550Y-77745500D01*
X62997500Y-77745500D01*
X62929379Y-77725498D01*
X62882886Y-77671842D01*
X62871500Y-77619500D01*
X62871500Y-77180252D01*
X62859867Y-77121769D01*
X62815552Y-77055448D01*
X62749231Y-77011133D01*
X62737062Y-77008712D01*
X62737061Y-77008712D01*
X62696816Y-77000707D01*
X62690748Y-76999500D01*
X60687000Y-76999500D01*
X60618879Y-76979498D01*
X60572386Y-76925842D01*
X60561000Y-76873500D01*
X60561000Y-75533290D01*
X60561173Y-75526696D01*
X60567011Y-75415303D01*
X60574977Y-75263306D01*
X60577344Y-75221159D01*
X60578697Y-75208514D01*
X60585770Y-75163858D01*
X60609963Y-75011107D01*
X60610173Y-75009830D01*
X60611664Y-75001056D01*
X61454662Y-75001056D01*
X61454674Y-75001232D01*
X61455056Y-75007062D01*
X61455056Y-75007067D01*
X61463559Y-75136803D01*
X61467896Y-75202972D01*
X61517705Y-75399096D01*
X61602421Y-75582858D01*
X61719206Y-75748106D01*
X61864150Y-75889304D01*
X61868946Y-75892509D01*
X61868949Y-75892511D01*
X61952035Y-75948027D01*
X62032397Y-76001723D01*
X62037705Y-76004004D01*
X62037706Y-76004004D01*
X62213012Y-76079321D01*
X62213015Y-76079322D01*
X62218315Y-76081599D01*
X62223944Y-76082873D01*
X62223945Y-76082873D01*
X62410038Y-76124982D01*
X62410044Y-76124983D01*
X62415675Y-76126257D01*
X62421446Y-76126484D01*
X62421448Y-76126484D01*
X62479949Y-76128783D01*
X62617869Y-76134202D01*
X62718590Y-76119598D01*
X62812411Y-76105995D01*
X62812416Y-76105994D01*
X62818125Y-76105166D01*
X62823589Y-76103311D01*
X62823594Y-76103310D01*
X63004264Y-76041981D01*
X63004269Y-76041979D01*
X63009736Y-76040123D01*
X63014777Y-76037300D01*
X63181247Y-75944072D01*
X63181251Y-75944069D01*
X63186285Y-75941250D01*
X63190722Y-75937560D01*
X63190726Y-75937557D01*
X63337422Y-75815551D01*
X63341860Y-75811860D01*
X63368877Y-75779376D01*
X63467557Y-75660726D01*
X63467560Y-75660722D01*
X63471250Y-75656285D01*
X63474069Y-75651251D01*
X63474072Y-75651247D01*
X63567300Y-75484777D01*
X63567300Y-75484776D01*
X63570123Y-75479736D01*
X63571979Y-75474269D01*
X63571981Y-75474264D01*
X63633310Y-75293594D01*
X63633311Y-75293589D01*
X63635166Y-75288125D01*
X63635994Y-75282416D01*
X63635995Y-75282411D01*
X63657363Y-75135037D01*
X63664202Y-75087869D01*
X63665717Y-75030000D01*
X63647202Y-74828499D01*
X63592276Y-74633746D01*
X63502779Y-74452264D01*
X63487231Y-74431442D01*
X63385161Y-74294755D01*
X63385161Y-74294754D01*
X63381708Y-74290131D01*
X63273850Y-74190428D01*
X63237358Y-74156695D01*
X63237355Y-74156693D01*
X63233118Y-74152776D01*
X63061985Y-74044799D01*
X62874041Y-73969817D01*
X62675579Y-73930340D01*
X62669805Y-73930264D01*
X62669801Y-73930264D01*
X62567385Y-73928924D01*
X62473246Y-73927692D01*
X62467549Y-73928671D01*
X62467548Y-73928671D01*
X62279516Y-73960980D01*
X62279515Y-73960980D01*
X62273819Y-73961959D01*
X62083977Y-74031996D01*
X62079016Y-74034948D01*
X62079015Y-74034948D01*
X61915044Y-74132500D01*
X61915041Y-74132502D01*
X61910076Y-74135456D01*
X61805421Y-74227236D01*
X61768781Y-74259369D01*
X61757941Y-74268875D01*
X61754366Y-74273410D01*
X61754365Y-74273411D01*
X61650879Y-74404683D01*
X61632668Y-74427783D01*
X61629977Y-74432899D01*
X61629975Y-74432901D01*
X61549159Y-74586507D01*
X61538451Y-74606860D01*
X61478446Y-74800109D01*
X61477767Y-74805846D01*
X61457002Y-74981288D01*
X61454662Y-75001056D01*
X60611664Y-75001056D01*
X60628826Y-74900055D01*
X60631338Y-74888551D01*
X60679510Y-74708768D01*
X60680142Y-74706497D01*
X60714711Y-74586507D01*
X60718155Y-74576235D01*
X60763754Y-74457445D01*
X60782838Y-74407730D01*
X60784053Y-74404683D01*
X60804648Y-74354964D01*
X60823241Y-74310076D01*
X60833957Y-74284205D01*
X60838099Y-74275220D01*
X60918737Y-74116959D01*
X60920726Y-74113214D01*
X60985129Y-73996685D01*
X60989735Y-73989008D01*
X61006002Y-73963960D01*
X61025206Y-73934388D01*
X61085581Y-73841419D01*
X61088492Y-73837131D01*
X61166419Y-73727303D01*
X61171260Y-73720921D01*
X61281489Y-73584801D01*
X61285457Y-73580137D01*
X61313779Y-73548444D01*
X61375622Y-73479242D01*
X61380461Y-73474125D01*
X61504125Y-73350461D01*
X61509242Y-73345622D01*
X61610137Y-73255457D01*
X61614801Y-73251489D01*
X61750921Y-73141260D01*
X61757303Y-73136419D01*
X61867131Y-73058492D01*
X61871419Y-73055581D01*
X62019008Y-72959735D01*
X62026685Y-72955129D01*
X62060718Y-72936320D01*
X62143214Y-72890726D01*
X62146959Y-72888737D01*
X62305220Y-72808099D01*
X62314205Y-72803957D01*
X62370707Y-72780553D01*
X62434701Y-72754046D01*
X62437730Y-72752838D01*
X62606237Y-72688154D01*
X62616507Y-72684711D01*
X62736497Y-72650142D01*
X62738729Y-72649521D01*
X62801068Y-72632817D01*
X62918551Y-72601338D01*
X62930055Y-72598826D01*
X63039830Y-72580173D01*
X63041107Y-72579963D01*
X63223960Y-72551002D01*
X63238514Y-72548697D01*
X63251160Y-72547344D01*
X63293209Y-72544983D01*
X63293678Y-72544958D01*
X63556695Y-72531173D01*
X63563290Y-72531000D01*
X71136302Y-72531000D01*
X71204423Y-72551002D01*
G37*
%TD.AperFunction*%
%TD*%
M02*
