%TF.GenerationSoftware,KiCad,Pcbnew,6.0.7-f9a2dced07~116~ubuntu22.04.1*%
%TF.CreationDate,2022-09-16T16:44:02+02:00*%
%TF.ProjectId,PCB,5043422e-6b69-4636-9164-5f7063625858,alfa*%
%TF.SameCoordinates,Original*%
%TF.FileFunction,Paste,Top*%
%TF.FilePolarity,Positive*%
%FSLAX46Y46*%
G04 Gerber Fmt 4.6, Leading zero omitted, Abs format (unit mm)*
G04 Created by KiCad (PCBNEW 6.0.7-f9a2dced07~116~ubuntu22.04.1) date 2022-09-16 16:44:02*
%MOMM*%
%LPD*%
G01*
G04 APERTURE LIST*
G04 Aperture macros list*
%AMRoundRect*
0 Rectangle with rounded corners*
0 $1 Rounding radius*
0 $2 $3 $4 $5 $6 $7 $8 $9 X,Y pos of 4 corners*
0 Add a 4 corners polygon primitive as box body*
4,1,4,$2,$3,$4,$5,$6,$7,$8,$9,$2,$3,0*
0 Add four circle primitives for the rounded corners*
1,1,$1+$1,$2,$3*
1,1,$1+$1,$4,$5*
1,1,$1+$1,$6,$7*
1,1,$1+$1,$8,$9*
0 Add four rect primitives between the rounded corners*
20,1,$1+$1,$2,$3,$4,$5,0*
20,1,$1+$1,$4,$5,$6,$7,0*
20,1,$1+$1,$6,$7,$8,$9,0*
20,1,$1+$1,$8,$9,$2,$3,0*%
%AMFreePoly0*
4,1,13,0.900000,0.500000,2.600000,0.500000,2.600000,-0.500000,0.900000,-0.500000,0.400000,-1.000000,-0.400000,-1.000000,-0.900000,-0.500000,-2.600000,-0.500000,-2.600000,0.500000,-0.900000,0.500000,-0.400000,1.000000,0.400000,1.000000,0.900000,0.500000,0.900000,0.500000,$1*%
G04 Aperture macros list end*
%ADD10RoundRect,0.140000X0.140000X0.170000X-0.140000X0.170000X-0.140000X-0.170000X0.140000X-0.170000X0*%
%ADD11R,1.900000X1.750000*%
%ADD12R,1.450000X1.150000*%
%ADD13R,1.400000X0.400000*%
%ADD14R,1.600000X0.800000*%
%ADD15R,1.000000X1.150000*%
%ADD16RoundRect,0.135000X0.135000X0.185000X-0.135000X0.185000X-0.135000X-0.185000X0.135000X-0.185000X0*%
%ADD17RoundRect,0.250000X0.475000X-0.250000X0.475000X0.250000X-0.475000X0.250000X-0.475000X-0.250000X0*%
%ADD18RoundRect,0.150000X-0.150000X0.512500X-0.150000X-0.512500X0.150000X-0.512500X0.150000X0.512500X0*%
%ADD19RoundRect,0.218750X0.218750X0.256250X-0.218750X0.256250X-0.218750X-0.256250X0.218750X-0.256250X0*%
%ADD20RoundRect,0.250000X0.255000X-0.255000X0.255000X0.255000X-0.255000X0.255000X-0.255000X-0.255000X0*%
%ADD21RoundRect,0.062500X0.062500X-0.350000X0.062500X0.350000X-0.062500X0.350000X-0.062500X-0.350000X0*%
%ADD22RoundRect,0.062500X0.350000X-0.062500X0.350000X0.062500X-0.350000X0.062500X-0.350000X-0.062500X0*%
%ADD23RoundRect,0.140000X-0.140000X-0.170000X0.140000X-0.170000X0.140000X0.170000X-0.140000X0.170000X0*%
%ADD24RoundRect,0.140000X-0.170000X0.140000X-0.170000X-0.140000X0.170000X-0.140000X0.170000X0.140000X0*%
%ADD25R,0.540000X0.540000*%
%ADD26R,0.300000X0.300000*%
%ADD27R,0.900000X0.300000*%
%ADD28R,0.300000X0.900000*%
%ADD29RoundRect,0.135000X0.185000X-0.135000X0.185000X0.135000X-0.185000X0.135000X-0.185000X-0.135000X0*%
%ADD30RoundRect,0.135000X-0.185000X0.135000X-0.185000X-0.135000X0.185000X-0.135000X0.185000X0.135000X0*%
%ADD31RoundRect,0.250000X-0.475000X0.250000X-0.475000X-0.250000X0.475000X-0.250000X0.475000X0.250000X0*%
%ADD32RoundRect,0.135000X-0.135000X-0.185000X0.135000X-0.185000X0.135000X0.185000X-0.135000X0.185000X0*%
%ADD33R,0.750000X0.650000*%
%ADD34R,0.500000X0.250000*%
%ADD35R,0.550000X0.250000*%
%ADD36R,1.500000X0.700000*%
%ADD37FreePoly0,0.000000*%
%ADD38RoundRect,0.150000X0.150000X-0.587500X0.150000X0.587500X-0.150000X0.587500X-0.150000X-0.587500X0*%
%ADD39RoundRect,0.150000X0.625000X-0.150000X0.625000X0.150000X-0.625000X0.150000X-0.625000X-0.150000X0*%
%ADD40RoundRect,0.250000X0.650000X-0.350000X0.650000X0.350000X-0.650000X0.350000X-0.650000X-0.350000X0*%
%ADD41R,0.900000X0.750000*%
%ADD42R,0.900000X1.200000*%
%ADD43R,1.117600X0.609600*%
G04 APERTURE END LIST*
D10*
%TO.C,C12*%
X72250000Y-76060000D03*
X73210000Y-76060000D03*
%TD*%
D11*
%TO.C,J4*%
X63352500Y-90025000D03*
X63352500Y-87775000D03*
D12*
X65582500Y-91220000D03*
X65582500Y-86580000D03*
D13*
X66002500Y-90200000D03*
X66002500Y-89550000D03*
X66002500Y-88900000D03*
X66002500Y-88250000D03*
X66002500Y-87600000D03*
%TD*%
D14*
%TO.C,E1*%
X76550000Y-68467500D03*
X76550000Y-71867500D03*
%TD*%
D15*
%TO.C,Y2*%
X82950000Y-78755000D03*
X82950000Y-77005000D03*
X81550000Y-77005000D03*
X81550000Y-78755000D03*
%TD*%
D16*
%TO.C,R2*%
X72450000Y-97260000D03*
X73470000Y-97260000D03*
%TD*%
D10*
%TO.C,C16*%
X82640000Y-80160000D03*
X81680000Y-80160000D03*
%TD*%
D17*
%TO.C,C10*%
X68310000Y-87490000D03*
X68310000Y-89390000D03*
%TD*%
D10*
%TO.C,C18*%
X80690000Y-75440000D03*
X81650000Y-75440000D03*
%TD*%
D18*
%TO.C,U6*%
X69650000Y-84927500D03*
X67750000Y-84927500D03*
X67750000Y-82652500D03*
X68700000Y-82652500D03*
X69650000Y-82652500D03*
%TD*%
D19*
%TO.C,D4*%
X65892500Y-80830000D03*
X67467500Y-80830000D03*
%TD*%
D20*
%TO.C,U8*%
X76125000Y-78405000D03*
X77375000Y-78405000D03*
X77375000Y-79655000D03*
X76125000Y-79655000D03*
D21*
X75750000Y-80967500D03*
X76250000Y-80967500D03*
X76750000Y-80967500D03*
X77250000Y-80967500D03*
X77750000Y-80967500D03*
D22*
X78687500Y-80030000D03*
X78687500Y-79530000D03*
X78687500Y-79030000D03*
X78687500Y-78530000D03*
X78687500Y-78030000D03*
D21*
X77750000Y-77092500D03*
X77250000Y-77092500D03*
X76750000Y-77092500D03*
X76250000Y-77092500D03*
X75750000Y-77092500D03*
D22*
X74812500Y-78030000D03*
X74812500Y-78530000D03*
X74812500Y-79030000D03*
X74812500Y-79530000D03*
X74812500Y-80030000D03*
%TD*%
D23*
%TO.C,C13*%
X73247400Y-78217600D03*
X72287400Y-78217600D03*
%TD*%
D24*
%TO.C,C2*%
X79510000Y-95210000D03*
X79510000Y-94250000D03*
%TD*%
D25*
%TO.C,U2*%
X76110000Y-95240000D03*
X77010000Y-94340000D03*
X76110000Y-94340000D03*
X77010000Y-95240000D03*
D26*
X77810000Y-96040000D03*
D27*
X78110000Y-95540000D03*
X78110000Y-95040000D03*
X78110000Y-94540000D03*
X78110000Y-94040000D03*
D26*
X77810000Y-93540000D03*
D28*
X77310000Y-93240000D03*
X76810000Y-93240000D03*
X76310000Y-93240000D03*
X75810000Y-93240000D03*
D26*
X75310000Y-93540000D03*
D27*
X75010000Y-94040000D03*
X75010000Y-94540000D03*
X75010000Y-95040000D03*
X75010000Y-95540000D03*
D26*
X75310000Y-96040000D03*
D28*
X75810000Y-96340000D03*
X76310000Y-96340000D03*
X76810000Y-96340000D03*
X77310000Y-96340000D03*
%TD*%
D29*
%TO.C,R12*%
X79900000Y-78110000D03*
X79900000Y-77090000D03*
%TD*%
D24*
%TO.C,C9*%
X81440000Y-85040000D03*
X81440000Y-84080000D03*
%TD*%
D29*
%TO.C,R8*%
X64990000Y-83050000D03*
X64990000Y-84070000D03*
%TD*%
D30*
%TO.C,R7*%
X68430000Y-92430000D03*
X68430000Y-91410000D03*
%TD*%
D24*
%TO.C,C5*%
X80510000Y-95200000D03*
X80510000Y-94240000D03*
%TD*%
D23*
%TO.C,C3*%
X85040000Y-96770000D03*
X84080000Y-96770000D03*
%TD*%
D31*
%TO.C,C7*%
X79820000Y-86290000D03*
X79820000Y-84390000D03*
%TD*%
D32*
%TO.C,R1*%
X73460000Y-98290000D03*
X72440000Y-98290000D03*
%TD*%
D23*
%TO.C,C11*%
X73420000Y-99320000D03*
X72460000Y-99320000D03*
%TD*%
%TO.C,C8*%
X66850000Y-96770000D03*
X65890000Y-96770000D03*
%TD*%
D33*
%TO.C,U1*%
X67350000Y-98310000D03*
X67350000Y-99110000D03*
D34*
X66400000Y-97960000D03*
X66400000Y-98460000D03*
X66400000Y-98960000D03*
X66400000Y-99460000D03*
X68300000Y-99460000D03*
X68300000Y-98960000D03*
X68300000Y-98460000D03*
X68300000Y-97960000D03*
%TD*%
D32*
%TO.C,R11*%
X73277400Y-77127600D03*
X72257400Y-77127600D03*
%TD*%
D10*
%TO.C,C6*%
X67830000Y-96770000D03*
X68790000Y-96770000D03*
%TD*%
D35*
%TO.C,FL1*%
X76562400Y-74697600D03*
X76562400Y-75197600D03*
X76562400Y-75697600D03*
X77412400Y-75697600D03*
X77412400Y-75197600D03*
X77412400Y-74697600D03*
%TD*%
D36*
%TO.C,U5*%
X77690000Y-84650000D03*
X77690000Y-87650000D03*
X73990000Y-87650000D03*
D37*
X75840000Y-86150000D03*
D36*
X73990000Y-84650000D03*
%TD*%
D38*
%TO.C,Q1*%
X71110000Y-87392500D03*
X72060000Y-89267500D03*
X70160000Y-89267500D03*
%TD*%
D10*
%TO.C,C15*%
X72277400Y-80337600D03*
X73237400Y-80337600D03*
%TD*%
%TO.C,C14*%
X72287400Y-79277600D03*
X73247400Y-79277600D03*
%TD*%
D39*
%TO.C,J3*%
X87300000Y-82020000D03*
X87300000Y-81020000D03*
X87300000Y-80020000D03*
X87300000Y-79020000D03*
D40*
X91175000Y-77720000D03*
X91175000Y-83320000D03*
%TD*%
D41*
%TO.C,D1*%
X77885600Y-99236600D03*
X77885600Y-100736600D03*
X76085600Y-100736600D03*
X76085600Y-99236600D03*
%TD*%
D42*
%TO.C,D2*%
X69980000Y-91480000D03*
X73280000Y-91480000D03*
%TD*%
D43*
%TO.C,SW1*%
X70486049Y-75649998D03*
X66091849Y-75649998D03*
X70486049Y-73500000D03*
X66091849Y-73500000D03*
%TD*%
D33*
%TO.C,U3*%
X85540000Y-99110000D03*
X85540000Y-98310000D03*
D34*
X84590000Y-97960000D03*
X84590000Y-98460000D03*
X84590000Y-98960000D03*
X84590000Y-99460000D03*
X86490000Y-99460000D03*
X86490000Y-98960000D03*
X86490000Y-98460000D03*
X86490000Y-97960000D03*
%TD*%
D23*
%TO.C,C17*%
X79680000Y-75450000D03*
X78720000Y-75450000D03*
%TD*%
D24*
%TO.C,C4*%
X72470000Y-85740000D03*
X72470000Y-84780000D03*
%TD*%
D10*
%TO.C,C1*%
X86020000Y-96770000D03*
X86980000Y-96770000D03*
%TD*%
D29*
%TO.C,R10*%
X71070000Y-84740000D03*
X71070000Y-85760000D03*
%TD*%
D16*
%TO.C,R6*%
X69730000Y-95660000D03*
X70750000Y-95660000D03*
%TD*%
M02*
