M48
; DRILL file {KiCad 6.0.7-f9a2dced07~116~ubuntu22.04.1} date fre 16 sep 2022 16:44:00
; FORMAT={-:-/ absolute / inch / decimal}
; #@! TF.CreationDate,2022-09-16T16:44:00+02:00
; #@! TF.GenerationSoftware,Kicad,Pcbnew,6.0.7-f9a2dced07~116~ubuntu22.04.1
; #@! TF.FileFunction,Plated,1,4,PTH
FMAT,2
INCH
; #@! TA.AperFunction,Plated,PTH,ViaDrill
T1C0.0157
; #@! TA.AperFunction,Plated,PTH,ComponentDrill
T2C0.0177
; #@! TA.AperFunction,Plated,PTH,ComponentDrill
T3C0.0300
; #@! TA.AperFunction,Plated,PTH,ComponentDrill
T4C0.0315
; #@! TA.AperFunction,Plated,PTH,ComponentDrill
T5C0.0394
; #@! TA.AperFunction,Plated,PTH,ComponentDrill
T6C0.0551
%
G90
G05
T1
X2.4276Y-3.2606
X2.5626Y-3.8106
X2.574Y-3.8669
X2.5756Y-3.9146
X2.5996Y-3.2551
X2.6502Y-3.7746
X2.6518Y-3.949
X2.6531Y-3.5878
X2.6895Y-2.8937
X2.6919Y-2.9783
X2.7055Y-3.3047
X2.7269Y-3.9238
X2.7272Y-3.8799
X2.7378Y-3.8094
X2.7472Y-3.4091
X2.8Y-3.5126
X2.8027Y-3.1633
X2.803Y-3.0365
X2.8034Y-3.1212
X2.8042Y-3.0798
X2.8148Y-3.7947
X2.8165Y-3.7382
X2.8433Y-3.4264
X2.848Y-3.2673
X2.8519Y-3.9505
X2.8929Y-3.952
X2.9032Y-3.7519
X2.9035Y-3.7121
X2.9044Y-3.6728
X2.9319Y-3.2335
X2.9343Y-3.9051
X2.9378Y-3.1894
X2.9402Y-3.6563
X2.9406Y-3.0059
X2.9414Y-3.6101
X2.9505Y-3.8463
X2.9719Y-3.2361
X2.9764Y-2.9898
X2.9807Y-3.6087
X2.991Y-3.8461
X3.0113Y-3.2373
X3.0247Y-3.6084
X3.0323Y-3.8445
X3.0506Y-3.2374
X3.0685Y-3.6075
X3.0724Y-3.8421
X3.0941Y-3.2378
X3.1055Y-3.198
X3.1106Y-3.7906
X3.1114Y-3.6075
X3.1169Y-3.8441
X3.1268Y-3.9657
X3.1283Y-3.9075
X3.1425Y-3.4508
X3.1546Y-3.0009
X3.1563Y-3.1929
X3.1606Y-3.6075
X3.1644Y-3.1513
X3.1646Y-3.1098
X3.1693Y-3.785
X3.2154Y-3.7106
X3.2492Y-3.3102
X3.2598Y-2.8827
X3.2598Y-2.9768
X3.2795Y-3.8106
X3.2925Y-3.8681
X3.2927Y-3.9075
X3.3071Y-2.8827
X3.3071Y-2.9768
X3.3135Y-3.0282
X3.3185Y-3.1
X3.3543Y-2.8827
X3.3543Y-2.9768
X3.3663Y-3.7746
X3.3679Y-3.949
X3.3724Y-3.0992
X3.374Y-3.1422
X3.3752Y-3.1886
X3.3776Y-3.2354
X3.4016Y-2.8831
X3.4016Y-2.9768
X3.4126Y-3.949
X3.4488Y-2.8831
X3.4488Y-2.9768
X3.4575Y-3.949
X3.4583Y-3.8098
T3
X2.428Y-3.0787
X2.428Y-3.1787
X2.428Y-3.8051
X2.428Y-3.9051
X3.6005Y-3.8051
X3.6005Y-3.9051
T4
X3.5563Y-3.4524
X3.5563Y-3.5311
X3.5563Y-3.6098
T5
X2.5689Y-4.0685
X2.6689Y-4.0685
X2.7689Y-4.0685
X2.8689Y-4.0685
X2.9689Y-4.0685
X3.0689Y-4.0685
X3.1689Y-4.0685
X3.2689Y-4.0685
X3.3689Y-4.0685
X3.4689Y-4.0685
T6
X3.5563Y-3.3677
X3.5563Y-3.6945
T2
G00X2.5099Y-3.3593
M15
G01X2.4784Y-3.3593
M16
G05
G00X2.5099Y-3.6407
M15
G01X2.4784Y-3.6407
M16
G05
T0
M30
