%TF.GenerationSoftware,KiCad,Pcbnew,6.0.7-f9a2dced07~116~ubuntu22.04.1*%
%TF.CreationDate,2022-09-16T16:44:02+02:00*%
%TF.ProjectId,PCB,5043422e-6b69-4636-9164-5f7063625858,alfa*%
%TF.SameCoordinates,Original*%
%TF.FileFunction,Copper,L4,Bot*%
%TF.FilePolarity,Positive*%
%FSLAX46Y46*%
G04 Gerber Fmt 4.6, Leading zero omitted, Abs format (unit mm)*
G04 Created by KiCad (PCBNEW 6.0.7-f9a2dced07~116~ubuntu22.04.1) date 2022-09-16 16:44:02*
%MOMM*%
%LPD*%
G01*
G04 APERTURE LIST*
%TA.AperFunction,ComponentPad*%
%ADD10O,2.100000X1.050000*%
%TD*%
%TA.AperFunction,ComponentPad*%
%ADD11R,2.000000X2.000000*%
%TD*%
%TA.AperFunction,ComponentPad*%
%ADD12O,1.700000X1.700000*%
%TD*%
%TA.AperFunction,ComponentPad*%
%ADD13C,1.700000*%
%TD*%
%TA.AperFunction,ComponentPad*%
%ADD14C,1.308000*%
%TD*%
%TA.AperFunction,ComponentPad*%
%ADD15C,2.100000*%
%TD*%
%TA.AperFunction,ViaPad*%
%ADD16C,0.800000*%
%TD*%
%TA.AperFunction,Conductor*%
%ADD17C,0.304800*%
%TD*%
%TA.AperFunction,Conductor*%
%ADD18C,0.254000*%
%TD*%
G04 APERTURE END LIST*
D10*
%TO.P,J4,S6,SHIELD*%
%TO.N,unconnected-(J4-PadS1)*%
X63352500Y-92475000D03*
%TO.P,J4,S5,SHIELD*%
X63352500Y-85325000D03*
%TD*%
D11*
%TO.P,J8,2,Pin_2*%
%TO.N,/MOTOR_RIGHT_OUT_1*%
X91452000Y-96650000D03*
%TO.P,J8,1,Pin_1*%
%TO.N,/MOTOR_RIGHT_OUT_2*%
X91452000Y-99190000D03*
%TD*%
D12*
%TO.P,J1,10,Pin_10*%
%TO.N,GND*%
X88110000Y-103340000D03*
%TO.P,J1,9,Pin_9*%
%TO.N,+BATT*%
X85570000Y-103340000D03*
%TO.P,J1,8,Pin_8*%
%TO.N,/P0.4*%
X83030000Y-103340000D03*
%TO.P,J1,7,Pin_7*%
%TO.N,/P0.5*%
X80490000Y-103340000D03*
%TO.P,J1,6,Pin_6*%
%TO.N,/MISO*%
X77950000Y-103340000D03*
%TO.P,J1,5,Pin_5*%
%TO.N,/MOSI*%
X75410000Y-103340000D03*
%TO.P,J1,4,Pin_4*%
%TO.N,/SCK*%
X72870000Y-103340000D03*
%TO.P,J1,3,Pin_3*%
%TO.N,/BTN*%
X70330000Y-103340000D03*
%TO.P,J1,2,Pin_2*%
%TO.N,+3.3V*%
X67790000Y-103340000D03*
D13*
%TO.P,J1,1,Pin_1*%
%TO.N,GND*%
X65250000Y-103340000D03*
%TD*%
D11*
%TO.P,J5,2,Pin_2*%
%TO.N,/BAT+*%
X61671000Y-78200000D03*
%TO.P,J5,1,Pin_1*%
%TO.N,GND*%
X61671000Y-80740000D03*
%TD*%
D14*
%TO.P,U7,1,1*%
%TO.N,unconnected-(U7-Pad1)*%
X90330000Y-91690000D03*
%TO.P,U7,2,2*%
%TO.N,+BATT*%
X90330000Y-87690000D03*
%TO.P,U7,COM,COM*%
%TO.N,/BAT+*%
X90330000Y-89690000D03*
D15*
%TO.P,U7,M1*%
%TO.N,N/C*%
X90330000Y-93840000D03*
%TO.P,U7,M2*%
X90330000Y-85540000D03*
%TD*%
D11*
%TO.P,J7,2,Pin_2*%
%TO.N,/MOTOR_LEFT_OUT_1*%
X61671000Y-96650000D03*
%TO.P,J7,1,Pin_1*%
%TO.N,/MOTOR_LEFT_OUT_2*%
X61671000Y-99190000D03*
%TD*%
D16*
%TO.N,GND*%
X87600000Y-73230000D03*
X87600000Y-75610000D03*
X86400000Y-73230000D03*
X85200000Y-73220000D03*
X86400000Y-75610000D03*
X85200000Y-75610000D03*
X84000000Y-75610000D03*
X82800000Y-75610000D03*
X84000000Y-73220000D03*
X82800000Y-73220000D03*
%TO.N,/BTN*%
X71540000Y-94950000D03*
%TO.N,+3.3V*%
X71227400Y-78227600D03*
X85790000Y-82180000D03*
X74690000Y-76350000D03*
X82530000Y-84080000D03*
X69540000Y-96760000D03*
X81670000Y-94250000D03*
X87840000Y-96770000D03*
X80170000Y-81100000D03*
%TO.N,GND*%
X68373950Y-75649998D03*
X67390000Y-91130000D03*
X79820000Y-87650000D03*
X71197400Y-77127600D03*
X67315000Y-95875000D03*
X79420000Y-100730000D03*
X85730000Y-80990000D03*
X73772576Y-93289028D03*
X73480000Y-100380000D03*
X75601468Y-75939839D03*
X71187400Y-80347600D03*
X85545000Y-100305000D03*
X68720000Y-83940000D03*
X80126733Y-76221686D03*
X69780000Y-86590000D03*
X84162521Y-76916362D03*
X85505000Y-95875000D03*
X80500000Y-96140000D03*
X74620000Y-81010000D03*
X71207400Y-79277600D03*
X61660000Y-82820000D03*
X67355000Y-100305000D03*
X80374783Y-80041896D03*
X71495500Y-96386500D03*
%TO.N,+BATT*%
X65090000Y-96790000D03*
X72220000Y-87030000D03*
X72438516Y-100341484D03*
X74530000Y-99190000D03*
X83300000Y-96790000D03*
X66030000Y-82680000D03*
%TO.N,/VSYS*%
X72340000Y-82990000D03*
X71120000Y-89220000D03*
%TO.N,Net-(C16-Pad1)*%
X80380000Y-78990000D03*
X84290000Y-78740000D03*
%TO.N,/C2CK*%
X80280000Y-91630000D03*
X85699568Y-79811067D03*
%TO.N,/C2D*%
X85660000Y-78720000D03*
X79030000Y-91630000D03*
%TO.N,/MOTOR_LEFT_OUT_2*%
X65420000Y-99430000D03*
%TO.N,/MOTOR_LEFT_OUT_1*%
X65380000Y-98220000D03*
%TO.N,/MOTOR_RIGHT_OUT_2*%
X83635517Y-99249488D03*
%TO.N,/MOTOR_RIGHT_OUT_1*%
X83630000Y-98250000D03*
%TO.N,/BTN*%
X68313950Y-73500000D03*
%TO.N,/MOTOR_LEFT_IN_2*%
X73740833Y-95297533D03*
X69264175Y-99663254D03*
%TO.N,/MOTOR_LEFT_IN_1*%
X69270000Y-98550000D03*
X73747784Y-94288223D03*
%TO.N,/P0.4*%
X75972203Y-97692203D03*
%TO.N,/P0.5*%
X74941790Y-97695189D03*
%TO.N,/MOTOR_RIGHT_IN_2*%
X86680000Y-100305000D03*
X79170000Y-97640000D03*
%TO.N,/MOTOR_RIGHT_IN_1*%
X78040000Y-97590000D03*
X87820000Y-100305000D03*
%TO.N,/NRF_CE*%
X74470000Y-82130000D03*
X74680000Y-92870000D03*
%TO.N,/NRF_CS*%
X74711134Y-91695674D03*
X75487396Y-82198165D03*
%TO.N,/SCK*%
X75710000Y-91660000D03*
X76486495Y-82226495D03*
%TO.N,/MOSI*%
X76826356Y-91653783D03*
X77485991Y-82230021D03*
%TO.N,/MISO*%
X77940000Y-91630000D03*
X78590000Y-82240000D03*
%TO.N,/NRF_INT*%
X78880700Y-81228026D03*
X79010000Y-96280000D03*
%TO.N,/LED*%
X79460000Y-99250000D03*
X77020000Y-97650000D03*
%TD*%
D17*
%TO.N,Net-(C16-Pad1)*%
X80380000Y-78990000D02*
X81350902Y-78990000D01*
X81350902Y-78990000D02*
X81600902Y-78740000D01*
X81600902Y-78740000D02*
X84290000Y-78740000D01*
D18*
%TO.N,/C2CK*%
X80280000Y-91650000D02*
X80280000Y-90430000D01*
X80280000Y-90430000D02*
X79000000Y-89150000D01*
X79000000Y-89150000D02*
X79000000Y-86510635D01*
X79000000Y-86510635D02*
X85699568Y-79811067D01*
%TO.N,/C2D*%
X78340000Y-86040000D02*
X85660000Y-78720000D01*
X79030000Y-91590000D02*
X78340000Y-90900000D01*
X78340000Y-90900000D02*
X78340000Y-86040000D01*
%TO.N,/NRF_INT*%
X79010000Y-96280000D02*
X79010000Y-95560000D01*
X87537000Y-79467000D02*
X85797000Y-77727000D01*
X79010000Y-95560000D02*
X87537000Y-87033000D01*
X87537000Y-87033000D02*
X87537000Y-79467000D01*
X80043000Y-77727000D02*
X78880700Y-78889300D01*
X78880700Y-78889300D02*
X78880700Y-81228026D01*
X85797000Y-77727000D02*
X80043000Y-77727000D01*
%TO.N,/P0.4*%
X75972203Y-97692203D02*
X76480000Y-98200000D01*
X76480000Y-98200000D02*
X76490000Y-98200000D01*
X76490000Y-98200000D02*
X77340000Y-99050000D01*
X77340000Y-99050000D02*
X77340000Y-99750000D01*
X77340000Y-99750000D02*
X79390000Y-101800000D01*
X79390000Y-101800000D02*
X81490000Y-101800000D01*
X81490000Y-101800000D02*
X83030000Y-103340000D01*
%TO.N,/P0.5*%
X80490000Y-103340000D02*
X79850000Y-103340000D01*
X79850000Y-103340000D02*
X75650000Y-99140000D01*
X75650000Y-99140000D02*
X75650000Y-98403399D01*
X75650000Y-98403399D02*
X74941790Y-97695189D01*
%TO.N,/MISO*%
X77940000Y-91630000D02*
X77940000Y-95600000D01*
X77940000Y-95600000D02*
X76574797Y-96965203D01*
X76574797Y-96965203D02*
X74384797Y-96965203D01*
X73450000Y-98580000D02*
X73450000Y-99321866D01*
X74384797Y-96965203D02*
X74080000Y-97270000D01*
X74080000Y-97270000D02*
X74080000Y-97950000D01*
X74080000Y-97950000D02*
X73450000Y-98580000D01*
X73450000Y-99321866D02*
X77468134Y-103340000D01*
X77468134Y-103340000D02*
X77950000Y-103340000D01*
%TO.N,/MOSI*%
X76826356Y-91653783D02*
X76826356Y-95703644D01*
X76826356Y-95703644D02*
X76018797Y-96511203D01*
X76018797Y-96511203D02*
X73978797Y-96511203D01*
X73890000Y-101820000D02*
X75410000Y-103340000D01*
X73978797Y-96511203D02*
X73590000Y-96900000D01*
X73590000Y-96900000D02*
X73590000Y-97740000D01*
X71860000Y-101820000D02*
X73890000Y-101820000D01*
X73590000Y-97740000D02*
X71130000Y-100200000D01*
X71130000Y-100200000D02*
X71130000Y-101090000D01*
X71130000Y-101090000D02*
X71860000Y-101820000D01*
%TO.N,/SCK*%
X75710000Y-91660000D02*
X75710000Y-95640000D01*
X75710000Y-95640000D02*
X75292797Y-96057203D01*
X73130000Y-96660000D02*
X73130000Y-97522052D01*
X75292797Y-96057203D02*
X73732797Y-96057203D01*
X73732797Y-96057203D02*
X73130000Y-96660000D01*
X73130000Y-97522052D02*
X70660000Y-99992052D01*
X70660000Y-99992052D02*
X70660000Y-101380000D01*
X70660000Y-101380000D02*
X72620000Y-103340000D01*
X72620000Y-103340000D02*
X72870000Y-103340000D01*
D17*
%TO.N,/BTN*%
X71540000Y-94950000D02*
X69970000Y-93380000D01*
X69970000Y-93380000D02*
X68060000Y-93380000D01*
X70330000Y-103340000D02*
X68100000Y-101110000D01*
X68100000Y-101110000D02*
X68100000Y-100624055D01*
X68107400Y-100616655D02*
X68107400Y-99993345D01*
X68100000Y-100624055D02*
X68107400Y-100616655D01*
X68100000Y-93400000D02*
X66240000Y-91540000D01*
X68107400Y-99993345D02*
X68100000Y-99985945D01*
X66240000Y-91540000D02*
X66240000Y-85200000D01*
X68100000Y-99985945D02*
X68100000Y-93400000D01*
X66240000Y-85200000D02*
X67360000Y-84080000D01*
X67360000Y-84080000D02*
X67360000Y-74453950D01*
X67360000Y-74453950D02*
X68313950Y-73500000D01*
D18*
%TO.N,/MOTOR_RIGHT_IN_1*%
X78817000Y-98367000D02*
X78040000Y-97590000D01*
X87820000Y-100340000D02*
X86610000Y-101550000D01*
X86610000Y-101550000D02*
X83460000Y-101550000D01*
X83460000Y-101550000D02*
X80277000Y-98367000D01*
X80277000Y-98367000D02*
X78817000Y-98367000D01*
%TO.N,/MOTOR_RIGHT_IN_2*%
X85978000Y-101032000D02*
X83882000Y-101032000D01*
X86680000Y-100330000D02*
X85978000Y-101032000D01*
X83882000Y-101032000D02*
X80490000Y-97640000D01*
X80490000Y-97640000D02*
X79170000Y-97640000D01*
%TO.N,/MOTOR_LEFT_IN_2*%
X69637384Y-99574747D02*
X70435253Y-99574747D01*
X70435253Y-99574747D02*
X72676000Y-97334000D01*
X72676000Y-97334000D02*
X72676000Y-96471948D01*
X72676000Y-96471948D02*
X73740833Y-95407115D01*
X73740833Y-95407115D02*
X73740833Y-95297533D01*
%TO.N,/MOTOR_LEFT_IN_1*%
X69580000Y-98580000D02*
X70787948Y-98580000D01*
X72222000Y-96283896D02*
X73013833Y-95492063D01*
X70787948Y-98580000D02*
X72222000Y-97145948D01*
X73722009Y-94288223D02*
X73747784Y-94288223D01*
X72222000Y-97145948D02*
X72222000Y-96283896D01*
X73013833Y-95492063D02*
X73013833Y-94996399D01*
X73013833Y-94996399D02*
X73722009Y-94288223D01*
%TO.N,/NRF_CE*%
X73984134Y-82615866D02*
X74470000Y-82130000D01*
X74680000Y-92870000D02*
X73984134Y-92174134D01*
X73984134Y-92174134D02*
X73984134Y-82615866D01*
%TO.N,/MISO*%
X77940000Y-91630000D02*
X77040000Y-90730000D01*
X78212991Y-82531155D02*
X78298845Y-82531155D01*
X78298845Y-82531155D02*
X78590000Y-82240000D01*
X77040000Y-90730000D02*
X77040000Y-83704146D01*
X77040000Y-83704146D02*
X78212991Y-82531155D01*
%TO.N,/MOSI*%
X77485991Y-82255133D02*
X77485991Y-82230021D01*
X76230000Y-83511124D02*
X77485991Y-82255133D01*
X76826356Y-91653783D02*
X76531439Y-91358866D01*
X76531439Y-91358866D02*
X76437000Y-91358866D01*
X76437000Y-91358866D02*
X76230000Y-91151866D01*
X76230000Y-91151866D02*
X76230000Y-83511124D01*
%TO.N,/NRF_CS*%
X74711134Y-82974427D02*
X75487396Y-82198165D01*
X74711134Y-91695674D02*
X74711134Y-82974427D01*
%TO.N,/SCK*%
X76486495Y-82226495D02*
X75490000Y-83222990D01*
X75490000Y-91440000D02*
X75710000Y-91660000D01*
X75490000Y-83222990D02*
X75490000Y-91440000D01*
%TO.N,/LED*%
X78620000Y-99250000D02*
X79460000Y-99250000D01*
X77020000Y-97650000D02*
X78620000Y-99250000D01*
%TD*%
M02*
