  0
SECTION
  2
HEADER
  9
$ACADVER
  1
AC1009
  9
$INSBASE
 10
0.0
 20
0.0
 30
0.0
  9
$EXTMIN
 10
0.0
 20
0.0
 30
0.0
  9
$EXTMAX
 10
0.0
 20
0.0
 30
0.0
  0
ENDSEC
  0
SECTION
  2
TABLES
  0
TABLE
  2
VPORT
 70
0
  0
ENDTAB
  0
TABLE
  2
LTYPE
 70
1
  0
LTYPE
  2
CONTINUOUS
 70
0
  3
Solid line
 72
65
 73
0
 40
0.0
  0
ENDTAB
  0
TABLE
  2
LAYER
 70
1
  0
LAYER
  2
0
 70
64
 62
7
  6
continuous
  0
ENDTAB
  0
TABLE
  2
STYLE
 70
1
  0
STYLE
  2
STANDARD
 70
0
 40
0
 41
1.0
 50
0.0
 71
0
 42
1
 3
ARIAL.TTF
 4

  0
ENDTAB
  0
TABLE
  2
VIEW
 70
0
  0
ENDTAB
  0
ENDSEC
  0
SECTION
  2
BLOCKS
  0
BLOCK
  8
0
  2
SHAPE2DVIEW002
 70
0
 10
0.0
 20
0.0
 30
0.0
  3
SHAPE2DVIEW002
  0
LINE
  8
0
 62
0
 10
-20.096488464440103
 20
22.271248858770416
 30
0.0
 11
-20.096488464440103
 21
-3.71043557337563
 31
0.0
  0
POLYLINE
  8
0
 62
0
 70
0
 66
1
 10
0.0
 20
0.0
 30
0.0
  0
VERTEX
  8
0
 10
-17.292327283355437
 20
-6.74833339866341
 30
0.0
  0
VERTEX
  8
0
 10
-17.38806445921806
 20
-6.745219672365226
 30
0.0
  0
VERTEX
  8
0
 10
-17.48369000981618
 20
-6.738614174783452
 30
0.0
  0
VERTEX
  8
0
 10
-17.57909244003535
 20
-6.72852460763279
 30
0.0
  0
VERTEX
  8
0
 10
-17.67416051490951
 20
-6.714962734897206
 30
0.0
  0
VERTEX
  8
0
 10
-17.768783389315974
 20
-6.697944369113657
 30
0.0
  0
VERTEX
  8
0
 10
-17.862850737215886
 20
-6.677489352935375
 30
0.0
  0
VERTEX
  8
0
 10
-17.956252880289455
 20
-6.653621535996221
 30
0.0
  0
VERTEX
  8
0
 10
-18.048880915815946
 20
-6.6263687471030845
 30
0.0
  0
VERTEX
  8
0
 10
-18.14062684364941
 20
-6.595762761788733
 30
0.0
  0
VERTEX
  8
0
 10
-18.231383692142003
 20
-6.561839265262966
 30
0.0
  0
VERTEX
  8
0
 10
-18.32104564286815
 20
-6.524637810805254
 30
0.0
  0
VERTEX
  8
0
 10
-18.40950815400409
 20
-6.484201773647387
 30
0.0
  0
VERTEX
  8
0
 10
-18.496668082218978
 20
-6.440578300399893
 30
0.0
  0
VERTEX
  8
0
 10
-18.582423802935384
 20
-6.393818254081196
 30
0.0
  0
VERTEX
  8
0
 10
-18.666675328819007
 20
-6.3439761548136175
 30
0.0
  0
VERTEX
  8
0
 10
-18.749324426359433
 20
-6.29111011625535
 30
0.0
  0
VERTEX
  8
0
 10
-18.83027473040602
 20
-6.2352817778425305
 30
0.0
  0
VERTEX
  8
0
 10
-18.909431856525348
 20
-6.176556232920417
 30
0.0
  0
VERTEX
  8
0
 10
-18.986703511049242
 20
-6.115001952847454
 30
0.0
  0
VERTEX
  8
0
 10
-19.061999598685073
 20
-6.050690707160741
 30
0.0
  0
VERTEX
  8
0
 10
-19.13523232756283
 20
-5.983697479895956
 30
0.0
  0
VERTEX
  8
0
 10
-19.206316311596506
 20
-5.914100382159324
 30
0.0
  0
VERTEX
  8
0
 10
-19.27516867004048
 20
-5.841980561053566
 30
0.0
  0
VERTEX
  8
0
 10
-19.34170912412473
 20
-5.767422105064002
 30
0.0
  0
VERTEX
  8
0
 10
-19.405860090656304
 20
-5.690511946015138
 30
0.0
  0
VERTEX
  8
0
 10
-19.467546772477853
 20
-5.611339757712058
 30
0.0
  0
VERTEX
  8
0
 10
-19.526697245677756
 20
-5.529997851384763
 30
0.0
  0
VERTEX
  8
0
 10
-19.583242543450208
 20
-5.446581068057416
 30
0.0
  0
VERTEX
  8
0
 10
-19.63711673650741
 20
-5.361186667967947
 30
0.0
  0
VERTEX
  8
0
 10
-19.688257009950174
 20
-5.27391421716697
 30
0.0
  0
VERTEX
  8
0
 10
-19.73660373650729
 20
-5.184865471428216
 30
0.0
  0
VERTEX
  8
0
 10
-19.782100546058256
 20
-5.09414425760586
 30
0.0
  0
VERTEX
  8
0
 10
-19.824694391358314
 20
-5.001856352577043
 30
0.0
  0
VERTEX
  8
0
 10
-19.86433560988917
 20
-4.908109359910773
 30
0.0
  0
VERTEX
  8
0
 10
-19.90097798176326
 20
-4.81301258440698
 30
0.0
  0
VERTEX
  8
0
 10
-19.934578783614075
 20
-4.716676904651994
 30
0.0
  0
VERTEX
  8
0
 10
-19.965098838409702
 20
-4.619214643739093
 30
0.0
  0
VERTEX
  8
0
 10
-19.992502561131484
 20
-4.520739438304783
 30
0.0
  0
VERTEX
  8
0
 10
-20.01675800026456
 20
-4.421366106033576
 30
0.0
  0
VERTEX
  8
0
 10
-20.0378368750519
 20
-4.321210511785691
 30
0.0
  0
VERTEX
  8
0
 10
-20.055714608468417
 20
-4.220389432503834
 30
0.0
  0
VERTEX
  8
0
 10
-20.07037035587665
 20
-4.119020421056478
 30
0.0
  0
VERTEX
  8
0
 10
-20.08178702933072
 20
-4.017221669176502
 30
0.0
  0
VERTEX
  8
0
 10
-20.089951317500063
 20
-3.9151118696548983
 30
0.0
  0
VERTEX
  8
0
 10
-20.094853701189887
 20
-3.8128100779502954
 30
0.0
  0
VERTEX
  8
0
 10
-20.096488464440103
 20
-3.7104355733756265
 30
0.0
  0
SEQEND
  8
0
  0
POLYLINE
  8
0
 62
0
 70
0
 66
1
 10
0.0
 20
0.0
 30
0.0
  0
VERTEX
  8
0
 10
-17.292327283355423
 20
-6.748333398663402
 30
0.0
  0
VERTEX
  8
0
 10
-17.13008020147147
 20
-6.719825770698209
 30
0.0
  0
VERTEX
  8
0
 10
-16.96912302987297
 20
-6.692062589350407
 30
0.0
  0
VERTEX
  8
0
 10
-16.80945576855993
 20
-6.665043854619993
 30
0.0
  0
VERTEX
  8
0
 10
-16.65107841753234
 20
-6.63876956650697
 30
0.0
  0
VERTEX
  8
0
 10
-16.493990976790208
 20
-6.613239725011336
 30
0.0
  0
VERTEX
  8
0
 10
-16.33819344633353
 20
-6.588454330133093
 30
0.0
  0
VERTEX
  8
0
 10
-16.18368582616231
 20
-6.56441338187224
 30
0.0
  0
VERTEX
  8
0
 10
-16.030468116276545
 20
-6.541116880228776
 30
0.0
  0
VERTEX
  8
0
 10
-15.878540316676233
 20
-6.518564825202701
 30
0.0
  0
VERTEX
  8
0
 10
-15.727902427361379
 20
-6.496757216794017
 30
0.0
  0
VERTEX
  8
0
 10
-15.578554448331978
 20
-6.475694055002722
 30
0.0
  0
VERTEX
  8
0
 10
-15.430496379588035
 20
-6.455375339828818
 30
0.0
  0
VERTEX
  8
0
 10
-15.283728221129547
 20
-6.435801071272303
 30
0.0
  0
VERTEX
  8
0
 10
-15.138249972956512
 20
-6.416971249333178
 30
0.0
  0
VERTEX
  8
0
 10
-14.994061635068935
 20
-6.398885874011443
 30
0.0
  0
VERTEX
  8
0
 10
-14.851163207466811
 20
-6.381544945307098
 30
0.0
  0
VERTEX
  8
0
 10
-14.709554690150146
 20
-6.364948463220142
 30
0.0
  0
VERTEX
  8
0
 10
-14.569236083118934
 20
-6.349096427750577
 30
0.0
  0
VERTEX
  8
0
 10
-14.430207386373176
 20
-6.333988838898401
 30
0.0
  0
VERTEX
  8
0
 10
-14.292468599912876
 20
-6.319625696663615
 30
0.0
  0
VERTEX
  8
0
 10
-14.15601972373803
 20
-6.306007001046219
 30
0.0
  0
VERTEX
  8
0
 10
-14.02086075784864
 20
-6.293132752046213
 30
0.0
  0
VERTEX
  8
0
 10
-13.886991702244705
 20
-6.281002949663597
 30
0.0
  0
VERTEX
  8
0
 10
-13.754412556926226
 20
-6.26961759389837
 30
0.0
  0
VERTEX
  8
0
 10
-13.623123321893202
 20
-6.258976684750533
 30
0.0
  0
VERTEX
  8
0
 10
-13.493123997145632
 20
-6.249080222220086
 30
0.0
  0
VERTEX
  8
0
 10
-13.36441458268352
 20
-6.239928206307029
 30
0.0
  0
VERTEX
  8
0
 10
-13.236995078506862
 20
-6.231520637011362
 30
0.0
  0
VERTEX
  8
0
 10
-13.11086548461566
 20
-6.223857514333084
 30
0.0
  0
VERTEX
  8
0
 10
-12.986025801009912
 20
-6.216938838272197
 30
0.0
  0
VERTEX
  8
0
 10
-12.86247602768962
 20
-6.210764608828699
 30
0.0
  0
VERTEX
  8
0
 10
-12.740216164654786
 20
-6.205334826002591
 30
0.0
  0
VERTEX
  8
0
 10
-12.619246211905406
 20
-6.200649489793873
 30
0.0
  0
VERTEX
  8
0
 10
-12.49956616944148
 20
-6.196708600202545
 30
0.0
  0
VERTEX
  8
0
 10
-12.38117603726301
 20
-6.193512157228606
 30
0.0
  0
VERTEX
  8
0
 10
-12.264075815369996
 20
-6.191060160872058
 30
0.0
  0
VERTEX
  8
0
 10
-12.148265503762435
 20
-6.189352611132899
 30
0.0
  0
VERTEX
  8
0
 10
-12.033745102440331
 20
-6.188389508011131
 30
0.0
  0
VERTEX
  8
0
 10
-11.920514611403686
 20
-6.188170851506752
 30
0.0
  0
VERTEX
  8
0
 10
-11.80857403065249
 20
-6.188696641619762
 30
0.0
  0
VERTEX
  8
0
 10
-11.697923360186753
 20
-6.1899668783501625
 30
0.0
  0
VERTEX
  8
0
 10
-11.588562600006473
 20
-6.191981561697953
 30
0.0
  0
VERTEX
  8
0
 10
-11.480491750111646
 20
-6.194740691663133
 30
0.0
  0
VERTEX
  8
0
 10
-11.373710810502274
 20
-6.198244268245704
 30
0.0
  0
VERTEX
  8
0
 10
-11.26821978117836
 20
-6.2024922914456635
 30
0.0
  0
VERTEX
  8
0
 10
-11.164018662139899
 20
-6.2074847612630135
 30
0.0
  0
VERTEX
  8
0
 10
-11.061107453386894
 20
-6.213221677697753
 30
0.0
  0
VERTEX
  8
0
 10
-10.959486154919345
 20
-6.219703040749883
 30
0.0
  0
VERTEX
  8
0
 10
-10.859154766737248
 20
-6.226928850419402
 30
0.0
  0
VERTEX
  8
0
 10
-10.76011328884061
 20
-6.234899106706311
 30
0.0
  0
VERTEX
  8
0
 10
-10.662361721229427
 20
-6.24361380961061
 30
0.0
  0
VERTEX
  8
0
 10
-10.565900063903701
 20
-6.253072959132298
 30
0.0
  0
VERTEX
  8
0
 10
-10.470728316863427
 20
-6.263276555271378
 30
0.0
  0
VERTEX
  8
0
 10
-10.376846480108611
 20
-6.274224598027846
 30
0.0
  0
VERTEX
  8
0
 10
-10.284254553639249
 20
-6.285917087401704
 30
0.0
  0
VERTEX
  8
0
 10
-10.19295253745534
 20
-6.298354023392952
 30
0.0
  0
VERTEX
  8
0
 10
-10.102940431556892
 20
-6.311535406001591
 30
0.0
  0
VERTEX
  8
0
 10
-10.014218235943897
 20
-6.3254612352276185
 30
0.0
  0
VERTEX
  8
0
 10
-9.926785950616356
 20
-6.340131511071037
 30
0.0
  0
VERTEX
  8
0
 10
-9.840643575574273
 20
-6.355546233531844
 30
0.0
  0
VERTEX
  8
0
 10
-9.755791110817643
 20
-6.371705402610041
 30
0.0
  0
VERTEX
  8
0
 10
-9.672228556346468
 20
-6.388609018305628
 30
0.0
  0
VERTEX
  8
0
 10
-9.58995591216075
 20
-6.406257080618605
 30
0.0
  0
VERTEX
  8
0
 10
-9.508973178260486
 20
-6.424649589548972
 30
0.0
  0
VERTEX
  8
0
 10
-9.429280354645678
 20
-6.443786545096729
 30
0.0
  0
VERTEX
  8
0
 10
-9.350877441316326
 20
-6.463667947261875
 30
0.0
  0
VERTEX
  8
0
 10
-9.273764438272432
 20
-6.484293796044412
 30
0.0
  0
VERTEX
  8
0
 10
-9.19794134551399
 20
-6.505664091444338
 30
0.0
  0
VERTEX
  8
0
 10
-9.123408163041004
 20
-6.527778833461654
 30
0.0
  0
VERTEX
  8
0
 10
-9.050164890853473
 20
-6.55063802209636
 30
0.0
  0
VERTEX
  8
0
 10
-8.978211528951398
 20
-6.5742416573484554
 30
0.0
  0
VERTEX
  8
0
 10
-8.907548077334777
 20
-6.598589739217941
 30
0.0
  0
VERTEX
  8
0
 10
-8.838174536003613
 20
-6.623682267704816
 30
0.0
  0
VERTEX
  8
0
 10
-8.770090904957904
 20
-6.649519242809082
 30
0.0
  0
VERTEX
  8
0
 10
-8.703297184197652
 20
-6.676100664530736
 30
0.0
  0
VERTEX
  8
0
 10
-8.637793373722852
 20
-6.7034265328697815
 30
0.0
  0
VERTEX
  8
0
 10
-8.57357947353351
 20
-6.731496847826216
 30
0.0
  0
VERTEX
  8
0
 10
-8.510655483629623
 20
-6.76031160940004
 30
0.0
  0
VERTEX
  8
0
 10
-8.44902140401119
 20
-6.789870817591256
 30
0.0
  0
VERTEX
  8
0
 10
-8.388677234678214
 20
-6.820174472399859
 30
0.0
  0
VERTEX
  8
0
 10
-8.329622975630693
 20
-6.851222573825853
 30
0.0
  0
VERTEX
  8
0
 10
-8.271858626868628
 20
-6.883015121869238
 30
0.0
  0
VERTEX
  8
0
 10
-8.215384188392019
 20
-6.915552116530011
 30
0.0
  0
VERTEX
  8
0
 10
-8.160199660200863
 20
-6.948833557808174
 30
0.0
  0
VERTEX
  8
0
 10
-8.106305042295164
 20
-6.9828594457037285
 30
0.0
  0
VERTEX
  8
0
 10
-8.05370033467492
 20
-7.017629780216671
 30
0.0
  0
VERTEX
  8
0
 10
-8.002385537340132
 20
-7.053144561347004
 30
0.0
  0
VERTEX
  8
0
 10
-7.952360650290798
 20
-7.089403789094727
 30
0.0
  0
VERTEX
  8
0
 10
-7.903625673526921
 20
-7.126407463459841
 30
0.0
  0
VERTEX
  8
0
 10
-7.856180607048499
 20
-7.1641555844423435
 30
0.0
  0
VERTEX
  8
0
 10
-7.810025450855532
 20
-7.202648152042235
 30
0.0
  0
VERTEX
  8
0
 10
-7.765160204948019
 20
-7.241885166259518
 30
0.0
  0
VERTEX
  8
0
 10
-7.721584869325964
 20
-7.28186662709419
 30
0.0
  0
VERTEX
  8
0
 10
-7.679299443989363
 20
-7.322592534546251
 30
0.0
  0
VERTEX
  8
0
 10
-7.6383039289382175
 20
-7.364062888615703
 30
0.0
  0
VERTEX
  8
0
 10
-7.598598324172528
 20
-7.406277689302545
 30
0.0
  0
VERTEX
  8
0
 10
-7.560182629692294
 20
-7.449236936606777
 30
0.0
  0
VERTEX
  8
0
 10
-7.523056845497514
 20
-7.492940630528398
 30
0.0
  0
VERTEX
  8
0
 10
-7.48722097158819
 20
-7.537388771067409
 30
0.0
  0
VERTEX
  8
0
 10
-7.452675007964324
 20
-7.58258135822381
 30
0.0
  0
VERTEX
  8
0
 10
-7.419418954625909
 20
-7.6285183919976
 30
0.0
  0
VERTEX
  8
0
 10
-7.3874528115729525
 20
-7.675199872388781
 30
0.0
  0
VERTEX
  8
0
 10
-7.35677657880545
 20
-7.722625799397352
 30
0.0
  0
VERTEX
  8
0
 10
-7.327390256323405
 20
-7.770796173023312
 30
0.0
  0
VERTEX
  8
0
 10
-7.299293844126812
 20
-7.819710993266662
 30
0.0
  0
VERTEX
  8
0
 10
-7.272487342215676
 20
-7.869370260127402
 30
0.0
  0
SEQEND
  8
0
  0
POLYLINE
  8
0
 62
0
 70
0
 66
1
 10
0.0
 20
0.0
 30
0.0
  0
VERTEX
  8
0
 10
-7.0104029527116625
 20
-8.893632095642442
 30
0.0
  0
VERTEX
  8
0
 10
-7.012621092137921
 20
-8.796270014527765
 30
0.0
  0
VERTEX
  8
0
 10
-7.019270246658092
 20
-8.699075679601235
 30
0.0
  0
VERTEX
  8
0
 10
-7.030334637487533
 20
-8.602279738003713
 30
0.0
  0
VERTEX
  8
0
 10
-7.04578800825943
 20
-8.50611189146826
 30
0.0
  0
VERTEX
  8
0
 10
-7.065593687332501
 20
-8.410800351226145
 30
0.0
  0
VERTEX
  8
0
 10
-7.089704674814677
 20
-8.316571296449897
 30
0.0
  0
VERTEX
  8
0
 10
-7.118063754096265
 20
-8.223648337518517
 30
0.0
  0
VERTEX
  8
0
 10
-7.150603627627888
 20
-8.132251985378597
 30
0.0
  0
VERTEX
  8
0
 10
-7.187247076621027
 20
-8.042599128260527
 30
0.0
  0
VERTEX
  8
0
 10
-7.227907144292162
 20
-7.954902516991602
 30
0.0
  0
VERTEX
  8
0
 10
-7.2724873422156815
 20
-7.869370260127408
 30
0.0
  0
SEQEND
  8
0
  0
LINE
  8
0
 62
0
 10
-7.010402952711663
 20
-8.89363209564244
 30
0.0
 11
-7.010402952711663
 21
-10.39257542826625
 31
0.0
  0
POLYLINE
  8
0
 62
0
 70
0
 66
1
 10
0.0
 20
0.0
 30
0.0
  0
VERTEX
  8
0
 10
-7.01040295271166
 20
-10.392575428266252
 30
0.0
  0
VERTEX
  8
0
 10
-7.007134379241641
 20
-10.494913576405889
 30
0.0
  0
VERTEX
  8
0
 10
-6.997343898429936
 20
-10.59686785210668
 30
0.0
  0
VERTEX
  8
0
 10
-6.98107715801756
 20
-10.697962897471285
 30
0.0
  0
VERTEX
  8
0
 10
-6.95841000105735
 20
-10.79772736073083
 30
0.0
  0
VERTEX
  8
0
 10
-6.929448112298647
 20
-10.895696093904437
 30
0.0
  0
VERTEX
  8
0
 10
-6.8943265254361945
 20
-10.991412321533828
 30
0.0
  0
VERTEX
  8
0
 10
-6.853208993520737
 20
-11.084429770381371
 30
0.0
  0
VERTEX
  8
0
 10
-6.806287225466697
 20
-11.174314750161924
 30
0.0
  0
VERTEX
  8
0
 10
-6.753779992216715
 20
-11.260648175607148
 30
0.0
  0
VERTEX
  8
0
 10
-6.6959321067305355
 20
-11.34302752043447
 30
0.0
  0
VERTEX
  8
0
 10
-6.633013282553975
 20
-11.421068694110442
 30
0.0
  0
VERTEX
  8
0
 10
-6.565316876289864
 20
-11.494407832658101
 30
0.0
  0
VERTEX
  8
0
 10
-6.493158519834147
 20
-11.56270299515881
 30
0.0
  0
VERTEX
  8
0
 10
-6.416874648754283
 20
-11.62563575803865
 30
0.0
  0
VERTEX
  8
0
 10
-6.3368209336713255
 20
-11.682912699706115
 30
0.0
  0
VERTEX
  8
0
 10
-6.253370621959302
 20
-11.734266768619039
 30
0.0
  0
VERTEX
  8
0
 10
-6.166912797493655
 20
-11.779458528402134
 30
0.0
  0
VERTEX
  8
0
 10
-6.077850566562611
 20
-11.818277274209924
 30
0.0
  0
VERTEX
  8
0
 10
-5.986599178399582
 20
-11.850542015129983
 30
0.0
  0
VERTEX
  8
0
 10
-5.893584089099552
 20
-11.876102318046128
 30
0.0
  0
VERTEX
  8
0
 10
-5.799238977946364
 20
-11.894839009027045
 30
0.0
  0
VERTEX
  8
0
 10
-5.7040037253997
 20
-11.906664728970167
 30
0.0
  0
VERTEX
  8
0
 10
-5.608322362169328
 20
-11.911524340910146
 30
0.0
  0
SEQEND
  8
0
  0
LINE
  8
0
 62
0
 10
-5.60832236216933
 20
-11.911524340910141
 30
0.0
 11
-4.6736019684744425
 21
-11.924861394256864
 31
0.0
  0
POLYLINE
  8
0
 62
0
 70
0
 66
1
 10
0.0
 20
0.0
 30
0.0
  0
VERTEX
  8
0
 10
-4.673601968474439
 20
-11.924861394256869
 30
0.0
  0
VERTEX
  8
0
 10
-4.577920605244066
 20
-11.92273224043955
 30
0.0
  0
VERTEX
  8
0
 10
-4.482685352697402
 20
-11.91362424796289
 30
0.0
  0
VERTEX
  8
0
 10
-4.388340241544213
 20
-11.897579882492234
 30
0.0
  0
VERTEX
  8
0
 10
-4.2953251522441835
 20
-11.874673950265791
 30
0.0
  0
VERTEX
  8
0
 10
-4.204073764081155
 20
-11.845013249313409
 30
0.0
  0
VERTEX
  8
0
 10
-4.115011533150112
 20
-11.808736071514872
 30
0.0
  0
VERTEX
  8
0
 10
-4.028553708684464
 20
-11.766011557819308
 30
0.0
  0
VERTEX
  8
0
 10
-3.9451033969724403
 20
-11.71703890963201
 30
0.0
  0
VERTEX
  8
0
 10
-3.865049681889483
 20
-11.662046460045525
 30
0.0
  0
VERTEX
  8
0
 10
-3.7887658108096196
 20
-11.601290609245384
 30
0.0
  0
VERTEX
  8
0
 10
-3.7166074543539023
 20
-11.535054629054066
 30
0.0
  0
VERTEX
  8
0
 10
-3.6489110480897917
 20
-11.463647342187006
 30
0.0
  0
VERTEX
  8
0
 10
-3.585992223913231
 20
-11.387401682378533
 30
0.0
  0
VERTEX
  8
0
 10
-3.528144338427052
 20
-11.30667314209111
 30
0.0
  0
VERTEX
  8
0
 10
-3.4756371051770696
 20
-11.221838115045381
 30
0.0
  0
VERTEX
  8
0
 10
-3.4287153371230286
 20
-11.13329214129889
 30
0.0
  0
VERTEX
  8
0
 10
-3.387597805207572
 20
-11.041448063055736
 30
0.0
  0
VERTEX
  8
0
 10
-3.35247621834512
 20
-10.946734099805653
 30
0.0
  0
VERTEX
  8
0
 10
-3.3235143295864154
 20
-10.849591851767071
 30
0.0
  0
VERTEX
  8
0
 10
-3.3008471726262067
 20
-10.750474240943046
 30
0.0
  0
VERTEX
  8
0
 10
-3.284580432213831
 20
-10.649843399389807
 30
0.0
  0
VERTEX
  8
0
 10
-3.2747899514021253
 20
-10.548168514543772
 30
0.0
  0
VERTEX
  8
0
 10
-3.2715213779321064
 20
-10.445923641653144
 30
0.0
  0
SEQEND
  8
0
  0
LINE
  8
0
 62
0
 10
-3.2715213779321095
 20
-10.445923641653138
 30
0.0
 11
-3.2715213779321095
 21
-8.946980309029327
 31
0.0
  0
POLYLINE
  8
0
 62
0
 70
0
 66
1
 10
0.0
 20
0.0
 30
0.0
  0
VERTEX
  8
0
 10
-3.271521377932107
 20
-8.946980309029328
 30
0.0
  0
VERTEX
  8
0
 10
-3.269303238505847
 20
-8.849681526937633
 30
0.0
  0
VERTEX
  8
0
 10
-3.2626540839856712
 20
-8.752676938868298
 30
0.0
  0
VERTEX
  8
0
 10
-3.2515896931562205
 20
-8.656196741683159
 30
0.0
  0
VERTEX
  8
0
 10
-3.2361363223843114
 20
-8.560469887837595
 30
0.0
  0
VERTEX
  8
0
 10
-3.2163306433112266
 20
-8.46572354206461
 30
0.0
  0
VERTEX
  8
0
 10
-3.192219655829032
 20
-8.372182542301275
 30
0.0
  0
VERTEX
  8
0
 10
-3.1638605765474237
 20
-8.28006886613676
 30
0.0
  0
VERTEX
  8
0
 10
-3.131320703015776
 20
-8.189601104048156
 30
0.0
  0
VERTEX
  8
0
 10
-3.09467725402261
 20
-8.100993940674039
 30
0.0
  0
VERTEX
  8
0
 10
-3.0540171863514454
 20
-8.014457645356833
 30
0.0
  0
VERTEX
  8
0
 10
-3.009436988427894
 20
-7.9301975731628636
 30
0.0
  0
SEQEND
  8
0
  0
POLYLINE
  8
0
 62
0
 70
0
 66
1
 10
0.0
 20
0.0
 30
0.0
  0
VERTEX
  8
0
 10
7.010402952711663
 20
-7.0950967856782015
 30
0.0
  0
VERTEX
  8
0
 10
6.84815587082772
 20
-7.061959114330984
 30
0.0
  0
VERTEX
  8
0
 10
6.687198699229232
 20
-7.029602699758302
 30
0.0
  0
VERTEX
  8
0
 10
6.5275314379162
 20
-6.9980275419601545
 30
0.0
  0
VERTEX
  8
0
 10
6.3691540868886225
 20
-6.967233640936543
 30
0.0
  0
VERTEX
  8
0
 10
6.212066646146501
 20
-6.937220996687467
 30
0.0
  0
VERTEX
  8
0
 10
6.056269115689834
 20
-6.907989609212926
 30
0.0
  0
VERTEX
  8
0
 10
5.901761495518622
 20
-6.879539478512921
 30
0.0
  0
VERTEX
  8
0
 10
5.748543785632866
 20
-6.851870604587451
 30
0.0
  0
VERTEX
  8
0
 10
5.596615986032565
 20
-6.824982987436517
 30
0.0
  0
VERTEX
  8
0
 10
5.445978096717719
 20
-6.798876627060118
 30
0.0
  0
VERTEX
  8
0
 10
5.296630117688329
 20
-6.773551523458255
 30
0.0
  0
VERTEX
  8
0
 10
5.148572048944393
 20
-6.749007676630926
 30
0.0
  0
VERTEX
  8
0
 10
5.001803890485913
 20
-6.725245086578134
 30
0.0
  0
VERTEX
  8
0
 10
4.856325642312888
 20
-6.702263753299877
 30
0.0
  0
VERTEX
  8
0
 10
4.712137304425318
 20
-6.680063676796156
 30
0.0
  0
VERTEX
  8
0
 10
4.569238876823205
 20
-6.658644857066969
 30
0.0
  0
VERTEX
  8
0
 10
4.427630359506544
 20
-6.6380072941123185
 30
0.0
  0
VERTEX
  8
0
 10
4.2873117524753415
 20
-6.618150987932204
 30
0.0
  0
VERTEX
  8
0
 10
4.148283055729593
 20
-6.5990759385266236
 30
0.0
  0
VERTEX
  8
0
 10
4.010544269269299
 20
-6.580782145895579
 30
0.0
  0
VERTEX
  8
0
 10
3.8740953930944606
 20
-6.56326961003907
 30
0.0
  0
VERTEX
  8
0
 10
3.7389364272050774
 20
-6.546538330957096
 30
0.0
  0
VERTEX
  8
0
 10
3.60506737160115
 20
-6.530588308649659
 30
0.0
  0
VERTEX
  8
0
 10
3.4724882262826773
 20
-6.515419543116756
 30
0.0
  0
VERTEX
  8
0
 10
3.3411989912496596
 20
-6.5010320343583885
 30
0.0
  0
VERTEX
  8
0
 10
3.2111996665020976
 20
-6.487425782374557
 30
0.0
  0
VERTEX
  8
0
 10
3.082490252039991
 20
-6.474600787165261
 30
0.0
  0
VERTEX
  8
0
 10
2.9550707478633393
 20
-6.4625570487305
 30
0.0
  0
VERTEX
  8
0
 10
2.828941153972143
 20
-6.451294567070274
 30
0.0
  0
VERTEX
  8
0
 10
2.7041014703664024
 20
-6.440813342184584
 30
0.0
  0
VERTEX
  8
0
 10
2.5805516970461158
 20
-6.43111337407343
 30
0.0
  0
VERTEX
  8
0
 10
2.458291834011286
 20
-6.4221946627368105
 30
0.0
  0
VERTEX
  8
0
 10
2.33732188126191
 20
-6.414057208174727
 30
0.0
  0
VERTEX
  8
0
 10
2.2176418387979897
 20
-6.406701010387179
 30
0.0
  0
VERTEX
  8
0
 10
2.099251706619526
 20
-6.400126069374166
 30
0.0
  0
VERTEX
  8
0
 10
1.9821514847265158
 20
-6.394332385135689
 30
0.0
  0
VERTEX
  8
0
 10
1.8663411731189603
 20
-6.389319957671747
 30
0.0
  0
VERTEX
  8
0
 10
1.7518207717968615
 20
-6.385088786982341
 30
0.0
  0
VERTEX
  8
0
 10
1.6385902807602175
 20
-6.38163887306747
 30
0.0
  0
VERTEX
  8
0
 10
1.5266497000090293
 20
-6.378970215927135
 30
0.0
  0
VERTEX
  8
0
 10
1.415999029543296
 20
-6.377082815561335
 30
0.0
  0
VERTEX
  8
0
 10
1.3066382693630167
 20
-6.3759766719700695
 30
0.0
  0
VERTEX
  8
0
 10
1.198567419468195
 20
-6.375651785153341
 30
0.0
  0
VERTEX
  8
0
 10
1.0917864798588264
 20
-6.376108155111147
 30
0.0
  0
VERTEX
  8
0
 10
0.9862954505349135
 20
-6.377345781843489
 30
0.0
  0
VERTEX
  8
0
 10
0.8820943314964564
 20
-6.379364665350366
 30
0.0
  0
VERTEX
  8
0
 10
0.7791831227434542
 20
-6.382164805631779
 30
0.0
  0
VERTEX
  8
0
 10
0.6775618242759069
 20
-6.385746202687726
 30
0.0
  0
VERTEX
  8
0
 10
0.5772304360938163
 20
-6.39010885651821
 30
0.0
  0
VERTEX
  8
0
 10
0.47818895819717966
 20
-6.395252767123229
 30
0.0
  0
VERTEX
  8
0
 10
0.3804373905859979
 20
-6.401177934502783
 30
0.0
  0
VERTEX
  8
0
 10
0.2839757332602728
 20
-6.407884358656873
 30
0.0
  0
VERTEX
  8
0
 10
0.18880398622000172
 20
-6.415372039585498
 30
0.0
  0
VERTEX
  8
0
 10
0.0949221494651864
 20
-6.42364097728866
 30
0.0
  0
VERTEX
  8
0
 10
0.00233022299582597
 20
-6.432691171766355
 30
0.0
  0
VERTEX
  8
0
 10
-0.08897179318807957
 20
-6.442522623018587
 30
0.0
  0
VERTEX
  8
0
 10
-0.17898389908652845
 20
-6.453135331045354
 30
0.0
  0
VERTEX
  8
0
 10
-0.26770609469952245
 20
-6.464529295846656
 30
0.0
  0
VERTEX
  8
0
 10
-0.35513838002706244
 20
-6.476704517422495
 30
0.0
  0
VERTEX
  8
0
 10
-0.44128075506914577
 20
-6.4896609957728675
 30
0.0
  0
VERTEX
  8
0
 10
-0.5261332198257751
 20
-6.503398730897777
 30
0.0
  0
VERTEX
  8
0
 10
-0.6096957742969487
 20
-6.517917722797221
 30
0.0
  0
VERTEX
  8
0
 10
-0.6919684184826655
 20
-6.533217971471201
 30
0.0
  0
VERTEX
  8
0
 10
-0.7729511523829293
 20
-6.549299476919716
 30
0.0
  0
VERTEX
  8
0
 10
-0.8526439759977373
 20
-6.566162239142766
 30
0.0
  0
VERTEX
  8
0
 10
-0.9310468893270896
 20
-6.583806258140353
 30
0.0
  0
VERTEX
  8
0
 10
-1.0081598923709887
 20
-6.602231533912474
 30
0.0
  0
VERTEX
  8
0
 10
-1.0839829851294294
 20
-6.621438066459131
 30
0.0
  0
VERTEX
  8
0
 10
-1.158516167602416
 20
-6.641425855780324
 30
0.0
  0
VERTEX
  8
0
 10
-1.231759439789947
 20
-6.662194901876052
 30
0.0
  0
VERTEX
  8
0
 10
-1.3037128016920239
 20
-6.683745204746314
 30
0.0
  0
VERTEX
  8
0
 10
-1.374376253308645
 20
-6.706076764391113
 30
0.0
  0
VERTEX
  8
0
 10
-1.4437497946398121
 20
-6.729189580810448
 30
0.0
  0
VERTEX
  8
0
 10
-1.5118334256855217
 20
-6.7530836540043175
 30
0.0
  0
VERTEX
  8
0
 10
-1.5786271464457773
 20
-6.777758983972722
 30
0.0
  0
VERTEX
  8
0
 10
-1.644130956920577
 20
-6.803215570715663
 30
0.0
  0
VERTEX
  8
0
 10
-1.708344857109923
 20
-6.8294534142331385
 30
0.0
  0
VERTEX
  8
0
 10
-1.771268847013813
 20
-6.85647251452515
 30
0.0
  0
VERTEX
  8
0
 10
-1.8329029266322454
 20
-6.884272871591697
 30
0.0
  0
VERTEX
  8
0
 10
-1.8932470959652257
 20
-6.912854485432779
 30
0.0
  0
VERTEX
  8
0
 10
-1.9523013550127502
 20
-6.942217356048396
 30
0.0
  0
VERTEX
  8
0
 10
-2.010065703774819
 20
-6.97236148343855
 30
0.0
  0
VERTEX
  8
0
 10
-2.066540142251432
 20
-7.003286867603238
 30
0.0
  0
VERTEX
  8
0
 10
-2.1217246704425907
 20
-7.034993508542462
 30
0.0
  0
VERTEX
  8
0
 10
-2.175619288348292
 20
-7.067481406256222
 30
0.0
  0
VERTEX
  8
0
 10
-2.2282239959685413
 20
-7.100750560744517
 30
0.0
  0
VERTEX
  8
0
 10
-2.2795387933033346
 20
-7.134800972007348
 30
0.0
  0
VERTEX
  8
0
 10
-2.3295636803526705
 20
-7.169632640044714
 30
0.0
  0
VERTEX
  8
0
 10
-2.378298657116554
 20
-7.2052455648566145
 30
0.0
  0
VERTEX
  8
0
 10
-2.42574372359498
 20
-7.2416397464430515
 30
0.0
  0
VERTEX
  8
0
 10
-2.4718988797879504
 20
-7.2788151848040235
 30
0.0
  0
VERTEX
  8
0
 10
-2.5167641256954685
 20
-7.316771879939531
 30
0.0
  0
VERTEX
  8
0
 10
-2.560339461317529
 20
-7.355509831849574
 30
0.0
  0
VERTEX
  8
0
 10
-2.6026248866541355
 20
-7.395029040534153
 30
0.0
  0
VERTEX
  8
0
 10
-2.6436204017052862
 20
-7.435329505993267
 30
0.0
  0
VERTEX
  8
0
 10
-2.683326006470981
 20
-7.476411228226916
 30
0.0
  0
VERTEX
  8
0
 10
-2.721741700951222
 20
-7.518274207235101
 30
0.0
  0
VERTEX
  8
0
 10
-2.7588674851460073
 20
-7.560918443017822
 30
0.0
  0
VERTEX
  8
0
 10
-2.7947033590553367
 20
-7.604343935575077
 30
0.0
  0
VERTEX
  8
0
 10
-2.829249322679212
 20
-7.648550684906869
 30
0.0
  0
VERTEX
  8
0
 10
-2.8625053760176318
 20
-7.693538691013195
 30
0.0
  0
VERTEX
  8
0
 10
-2.8944715190705956
 20
-7.739307953894057
 30
0.0
  0
VERTEX
  8
0
 10
-2.9251477518381037
 20
-7.785858473549455
 30
0.0
  0
VERTEX
  8
0
 10
-2.954534074320156
 20
-7.8331902499793875
 30
0.0
  0
VERTEX
  8
0
 10
-2.9826304865167543
 20
-7.881303283183856
 30
0.0
  0
VERTEX
  8
0
 10
-3.0094369884278978
 20
-7.930197573162859
 30
0.0
  0
SEQEND
  8
0
  0
POLYLINE
  8
0
 62
0
 70
0
 66
1
 10
0.0
 20
0.0
 30
0.0
  0
VERTEX
  8
0
 10
9.814564133796331
 20
-4.13722128047075
 30
0.0
  0
VERTEX
  8
0
 10
9.812929370546115
 20
-4.239549133822606
 30
0.0
  0
VERTEX
  8
0
 10
9.808026986856293
 20
-4.341711026252005
 30
0.0
  0
VERTEX
  8
0
 10
9.799862698686947
 20
-4.443587841562316
 30
0.0
  0
VERTEX
  8
0
 10
9.788446025232883
 20
-4.545060795944075
 30
0.0
  0
VERTEX
  8
0
 10
9.773790277824645
 20
-4.6460115764716
 30
0.0
  0
VERTEX
  8
0
 10
9.75591254440813
 20
-4.746322479050558
 30
0.0
  0
VERTEX
  8
0
 10
9.734833669620787
 20
-4.845876545655684
 30
0.0
  0
VERTEX
  8
0
 10
9.710578230487712
 20
-4.944557700698606
 30
0.0
  0
VERTEX
  8
0
 10
9.68317450776593
 20
-5.042250886366782
 30
0.0
  0
VERTEX
  8
0
 10
9.652654452970303
 20
-5.1388421967757685
 30
0.0
  0
VERTEX
  8
0
 10
9.619053651119488
 20
-5.234219010778385
 30
0.0
  0
VERTEX
  8
0
 10
9.582411279245399
 20
-5.328270123275934
 30
0.0
  0
VERTEX
  8
0
 10
9.542770060714545
 20
-5.420885874878369
 30
0.0
  0
VERTEX
  8
0
 10
9.500176215414486
 20
-5.511958279762243
 30
0.0
  0
VERTEX
  8
0
 10
9.45467940586352
 20
-5.601381151577343
 30
0.0
  0
VERTEX
  8
0
 10
9.406332679306404
 20
-5.689050227255229
 30
0.0
  0
VERTEX
  8
0
 10
9.35519240586364
 20
-5.774863288575302
 30
0.0
  0
VERTEX
  8
0
 10
9.30131821280644
 20
-5.858720281346684
 30
0.0
  0
VERTEX
  8
0
 10
9.244772915033987
 20
-5.940523432066923
 30
0.0
  0
VERTEX
  8
0
 10
9.185622441834083
 20
-6.020177361921528
 30
0.0
  0
VERTEX
  8
0
 10
9.123935760012536
 20
-6.097589197991393
 30
0.0
  0
VERTEX
  8
0
 10
9.059784793480961
 20
-6.172668681538477
 30
0.0
  0
VERTEX
  8
0
 10
8.993244339396712
 20
-6.245328273243442
 30
0.0
  0
VERTEX
  8
0
 10
8.924391980952738
 20
-6.315483255272597
 30
0.0
  0
VERTEX
  8
0
 10
8.853307996919058
 20
-6.383051830055092
 30
0.0
  0
VERTEX
  8
0
 10
8.780075268041305
 20
-6.447955215655233
 30
0.0
  0
VERTEX
  8
0
 10
8.704779180405472
 20
-6.510117737628688
 30
0.0
  0
VERTEX
  8
0
 10
8.627507525881578
 20
-6.5694669172555145
 30
0.0
  0
VERTEX
  8
0
 10
8.548350399762251
 20
-6.625933556047094
 30
0.0
  0
VERTEX
  8
0
 10
8.467400095715664
 20
-6.679451816428482
 30
0.0
  0
VERTEX
  8
0
 10
8.384750998175237
 20
-6.72995929850207
 30
0.0
  0
VERTEX
  8
0
 10
8.300499472291614
 20
-6.777397112803081
 30
0.0
  0
VERTEX
  8
0
 10
8.21474375157521
 20
-6.821709948962042
 30
0.0
  0
VERTEX
  8
0
 10
8.127583823360322
 20
-6.862846140194209
 30
0.0
  0
VERTEX
  8
0
 10
8.03912131222438
 20
-6.900757723540726
 30
0.0
  0
VERTEX
  8
0
 10
7.949459361498234
 20
-6.935400495791283
 30
0.0
  0
VERTEX
  8
0
 10
7.858702513005641
 20
-6.96673406502309
 30
0.0
  0
VERTEX
  8
0
 10
7.766956585172177
 20
-6.994721897696045
 30
0.0
  0
VERTEX
  8
0
 10
7.674328549645685
 20
-7.019331361249214
 30
0.0
  0
VERTEX
  8
0
 10
7.580926406572117
 20
-7.040533762148932
 30
0.0
  0
VERTEX
  8
0
 10
7.486859058672203
 20
-7.058304379344186
 30
0.0
  0
VERTEX
  8
0
 10
7.392236184265737
 20
-7.072622493090245
 30
0.0
  0
VERTEX
  8
0
 10
7.2971681093915794
 20
-7.083471409106965
 30
0.0
  0
VERTEX
  8
0
 10
7.20176567917241
 20
-7.090838478043566
 30
0.0
  0
VERTEX
  8
0
 10
7.106140128574292
 20
-7.0947151102272175
 30
0.0
  0
VERTEX
  8
0
 10
7.010402952711666
 20
-7.0950967856782015
 30
0.0
  0
SEQEND
  8
0
  0
LINE
  8
0
 62
0
 10
9.81456413379633
 20
-4.137221280470751
 30
0.0
 11
9.81456413379633
 21
21.844463151675292
 31
0.0
  0
POLYLINE
  8
0
 62
0
 70
0
 66
1
 10
0.0
 20
0.0
 30
0.0
  0
VERTEX
  8
0
 10
7.010402952711661
 20
24.88236097696308
 30
0.0
  0
VERTEX
  8
0
 10
7.106140128574286
 20
24.879247250664896
 30
0.0
  0
VERTEX
  8
0
 10
7.2017656791724045
 20
24.872641753083123
 30
0.0
  0
VERTEX
  8
0
 10
7.297168109391574
 20
24.86255218593246
 30
0.0
  0
VERTEX
  8
0
 10
7.392236184265733
 20
24.848990313196875
 30
0.0
  0
VERTEX
  8
0
 10
7.486859058672197
 20
24.831971947413326
 30
0.0
  0
VERTEX
  8
0
 10
7.580926406572112
 20
24.811516931235044
 30
0.0
  0
VERTEX
  8
0
 10
7.674328549645678
 20
24.78764911429589
 30
0.0
  0
VERTEX
  8
0
 10
7.766956585172172
 20
24.760396325402752
 30
0.0
  0
VERTEX
  8
0
 10
7.858702513005635
 20
24.729790340088403
 30
0.0
  0
VERTEX
  8
0
 10
7.949459361498228
 20
24.695866843562634
 30
0.0
  0
VERTEX
  8
0
 10
8.039121312224374
 20
24.65866538910492
 30
0.0
  0
VERTEX
  8
0
 10
8.127583823360315
 20
24.618229351947058
 30
0.0
  0
VERTEX
  8
0
 10
8.214743751575202
 20
24.57460587869956
 30
0.0
  0
VERTEX
  8
0
 10
8.300499472291609
 20
24.527845832380862
 30
0.0
  0
VERTEX
  8
0
 10
8.38475099817523
 20
24.478003733113287
 30
0.0
  0
VERTEX
  8
0
 10
8.467400095715657
 20
24.42513769455502
 30
0.0
  0
VERTEX
  8
0
 10
8.548350399762244
 20
24.3693093561422
 30
0.0
  0
VERTEX
  8
0
 10
8.62750752588157
 20
24.310583811220084
 30
0.0
  0
VERTEX
  8
0
 10
8.704779180405467
 20
24.249029531147123
 30
0.0
  0
VERTEX
  8
0
 10
8.780075268041298
 20
24.18471828546041
 30
0.0
  0
VERTEX
  8
0
 10
8.853307996919053
 20
24.117725058195624
 30
0.0
  0
VERTEX
  8
0
 10
8.92439198095273
 20
24.04812796045899
 30
0.0
  0
VERTEX
  8
0
 10
8.993244339396703
 20
23.976008139353233
 30
0.0
  0
VERTEX
  8
0
 10
9.059784793480954
 20
23.90144968336367
 30
0.0
  0
VERTEX
  8
0
 10
9.123935760012529
 20
23.824539524314805
 30
0.0
  0
VERTEX
  8
0
 10
9.185622441834076
 20
23.745367336011725
 30
0.0
  0
VERTEX
  8
0
 10
9.24477291503398
 20
23.66402542968443
 30
0.0
  0
VERTEX
  8
0
 10
9.301318212806432
 20
23.58060864635708
 30
0.0
  0
VERTEX
  8
0
 10
9.355192405863633
 20
23.49521424626761
 30
0.0
  0
VERTEX
  8
0
 10
9.406332679306397
 20
23.407941795466634
 30
0.0
  0
VERTEX
  8
0
 10
9.454679405863512
 20
23.318893049727883
 30
0.0
  0
VERTEX
  8
0
 10
9.50017621541448
 20
23.228171835905524
 30
0.0
  0
VERTEX
  8
0
 10
9.542770060714538
 20
23.13588393087671
 30
0.0
  0
VERTEX
  8
0
 10
9.582411279245393
 20
23.04213693821044
 30
0.0
  0
VERTEX
  8
0
 10
9.619053651119481
 20
22.947040162706646
 30
0.0
  0
VERTEX
  8
0
 10
9.652654452970296
 20
22.85070448295166
 30
0.0
  0
VERTEX
  8
0
 10
9.683174507765925
 20
22.753242222038757
 30
0.0
  0
VERTEX
  8
0
 10
9.710578230487705
 20
22.65476701660445
 30
0.0
  0
VERTEX
  8
0
 10
9.73483366962078
 20
22.55539368433324
 30
0.0
  0
VERTEX
  8
0
 10
9.755912544408122
 20
22.455238090085356
 30
0.0
  0
VERTEX
  8
0
 10
9.773790277824638
 20
22.3544170108035
 30
0.0
  0
VERTEX
  8
0
 10
9.788446025232874
 20
22.25304799935614
 30
0.0
  0
VERTEX
  8
0
 10
9.799862698686942
 20
22.151249247476166
 30
0.0
  0
VERTEX
  8
0
 10
9.808026986856285
 20
22.049139447954563
 30
0.0
  0
VERTEX
  8
0
 10
9.812929370546108
 20
21.94683765624996
 30
0.0
  0
VERTEX
  8
0
 10
9.814564133796324
 20
21.844463151675292
 30
0.0
  0
SEQEND
  8
0
  0
LINE
  8
0
 62
0
 10
-17.292327283355434
 20
25.229124363977867
 30
0.0
 11
7.010402952711672
 21
24.882360976963067
 31
0.0
  0
POLYLINE
  8
0
 62
0
 70
0
 66
1
 10
0.0
 20
0.0
 30
0.0
  0
VERTEX
  8
0
 10
-20.096488464440117
 20
22.271248858770424
 30
0.0
  0
VERTEX
  8
0
 10
-20.0948537011899
 20
22.37357671212228
 30
0.0
  0
VERTEX
  8
0
 10
-20.089951317500077
 20
22.47573860455168
 30
0.0
  0
VERTEX
  8
0
 10
-20.081787029330734
 20
22.57761541986199
 30
0.0
  0
VERTEX
  8
0
 10
-20.07037035587667
 20
22.67908837424375
 30
0.0
  0
VERTEX
  8
0
 10
-20.05571460846843
 20
22.780039154771274
 30
0.0
  0
VERTEX
  8
0
 10
-20.037836875051916
 20
22.88035005735023
 30
0.0
  0
VERTEX
  8
0
 10
-20.016758000264574
 20
22.979904123955357
 30
0.0
  0
VERTEX
  8
0
 10
-19.9925025611315
 20
23.07858527899828
 30
0.0
  0
VERTEX
  8
0
 10
-19.965098838409716
 20
23.176278464666453
 30
0.0
  0
VERTEX
  8
0
 10
-19.93457878361409
 20
23.272869775075442
 30
0.0
  0
VERTEX
  8
0
 10
-19.900977981763273
 20
23.36824658907806
 30
0.0
  0
VERTEX
  8
0
 10
-19.864335609889185
 20
23.462297701575608
 30
0.0
  0
VERTEX
  8
0
 10
-19.82469439135833
 20
23.55491345317804
 30
0.0
  0
VERTEX
  8
0
 10
-19.782100546058274
 20
23.645985858061916
 30
0.0
  0
VERTEX
  8
0
 10
-19.736603736507305
 20
23.735408729877015
 30
0.0
  0
VERTEX
  8
0
 10
-19.68825700995019
 20
23.823077805554902
 30
0.0
  0
VERTEX
  8
0
 10
-19.637116736507426
 20
23.908890866874977
 30
0.0
  0
VERTEX
  8
0
 10
-19.583242543450226
 20
23.992747859646357
 30
0.0
  0
VERTEX
  8
0
 10
-19.526697245677774
 20
24.074551010366598
 30
0.0
  0
VERTEX
  8
0
 10
-19.467546772477867
 20
24.154204940221202
 30
0.0
  0
VERTEX
  8
0
 10
-19.405860090656322
 20
24.231616776291066
 30
0.0
  0
VERTEX
  8
0
 10
-19.341709124124744
 20
24.30669625983815
 30
0.0
  0
VERTEX
  8
0
 10
-19.275168670040497
 20
24.379355851543117
 30
0.0
  0
VERTEX
  8
0
 10
-19.206316311596524
 20
24.44951083357227
 30
0.0
  0
VERTEX
  8
0
 10
-19.135232327562843
 20
24.517079408354768
 30
0.0
  0
VERTEX
  8
0
 10
-19.06199959868509
 20
24.581982793954904
 30
0.0
  0
VERTEX
  8
0
 10
-18.986703511049257
 20
24.644145315928363
 30
0.0
  0
VERTEX
  8
0
 10
-18.909431856525362
 20
24.703494495555187
 30
0.0
  0
VERTEX
  8
0
 10
-18.830274730406035
 20
24.759961134346767
 30
0.0
  0
VERTEX
  8
0
 10
-18.749324426359447
 20
24.813479394728155
 30
0.0
  0
VERTEX
  8
0
 10
-18.66667532881902
 20
24.863986876801743
 30
0.0
  0
VERTEX
  8
0
 10
-18.5824238029354
 20
24.911424691102752
 30
0.0
  0
VERTEX
  8
0
 10
-18.496668082218996
 20
24.955737527261714
 30
0.0
  0
VERTEX
  8
0
 10
-18.409508154004108
 20
24.99687371849388
 30
0.0
  0
VERTEX
  8
0
 10
-18.321045642868164
 20
25.034785301840397
 30
0.0
  0
VERTEX
  8
0
 10
-18.231383692142018
 20
25.069428074090954
 30
0.0
  0
VERTEX
  8
0
 10
-18.140626843649425
 20
25.100761643322762
 30
0.0
  0
VERTEX
  8
0
 10
-18.04888091581596
 20
25.12874947599572
 30
0.0
  0
VERTEX
  8
0
 10
-17.95625288028947
 20
25.153358939548887
 30
0.0
  0
VERTEX
  8
0
 10
-17.862850737215904
 20
25.174561340448605
 30
0.0
  0
VERTEX
  8
0
 10
-17.76878338931599
 20
25.19233195764386
 30
0.0
  0
VERTEX
  8
0
 10
-17.67416051490952
 20
25.206650071389916
 30
0.0
  0
VERTEX
  8
0
 10
-17.579092440035364
 20
25.217498987406636
 30
0.0
  0
VERTEX
  8
0
 10
-17.483690009816197
 20
25.224866056343238
 30
0.0
  0
VERTEX
  8
0
 10
-17.38806445921808
 20
25.22874268852689
 30
0.0
  0
VERTEX
  8
0
 10
-17.29232728335545
 20
25.229124363977874
 30
0.0
  0
SEQEND
  8
0
  0
POLYLINE
  8
0
 62
0
 70
0
 66
1
 10
0.0
 20
0.0
 30
0.0
  0
VERTEX
  8
0
 10
7.945123346406555
 20
-5.709420061909363
 30
0.0
  0
VERTEX
  8
0
 10
8.041404817366653
 20
-5.70596383870697
 30
0.0
  0
VERTEX
  8
0
 10
8.136840163298034
 20
-5.69287795912252
 30
0.0
  0
VERTEX
  8
0
 10
8.230590694949166
 20
-5.6702774223363175
 30
0.0
  0
VERTEX
  8
0
 10
8.321832529276984
 20
-5.638360842678269
 30
0.0
  0
VERTEX
  8
0
 10
8.409763829760703
 20
-5.59740870419801
 30
0.0
  0
VERTEX
  8
0
 10
8.493611852969998
 20
-5.547780895760987
 30
0.0
  0
VERTEX
  8
0
 10
8.57263973946205
 20
-5.489913548332172
 30
0.0
  0
VERTEX
  8
0
 10
8.646152989328822
 20
-5.424315202241461
 30
0.0
  0
VERTEX
  8
0
 10
8.713505565487228
 20
-5.351562338112966
 30
0.0
  0
VERTEX
  8
0
 10
8.774105571076248
 20
-5.2722943107325655
 30
0.0
  0
VERTEX
  8
0
 10
8.827420451067814
 20
-5.187207730375055
 30
0.0
  0
VERTEX
  8
0
 10
8.872981672379565
 20
-5.097050340968006
 30
0.0
  0
VERTEX
  8
0
 10
8.9103888413604
 20
-5.002614448891247
 30
0.0
  0
VERTEX
  8
0
 10
8.939313222464298
 20
-4.904729960159904
 30
0.0
  0
VERTEX
  8
0
 10
8.959500627190106
 20
-4.804257087180503
 30
0.0
  0
VERTEX
  8
0
 10
8.970773647899234
 20
-4.702078789173409
 30
0.0
  0
VERTEX
  8
0
 10
8.973033216880353
 20
-4.599093012695453
 30
0.0
  0
VERTEX
  8
0
 10
8.96625947696001
 20
-4.496204800453299
 30
0.0
  0
VERTEX
  8
0
 10
8.950511956008185
 20
-4.394318337755604
 30
0.0
  0
VERTEX
  8
0
 10
8.925929043805223
 20
-4.294329006500002
 30
0.0
  0
VERTEX
  8
0
 10
8.892726775867471
 20
-4.197115516524808
 30
0.0
  0
VERTEX
  8
0
 10
8.851196934919397
 20
-4.103532183475349
 30
0.0
  0
VERTEX
  8
0
 10
8.801704486696504
 20
-4.014401421047366
 30
0.0
  0
VERTEX
  8
0
 10
8.744684372613337
 20
-3.930506513585879
 30
0.0
  0
VERTEX
  8
0
 10
8.680637687482685
 20
-3.852584732554204
 30
0.0
  0
VERTEX
  8
0
 10
8.610127275876353
 20
-3.7813208573658166
 30
0.0
  0
VERTEX
  8
0
 10
8.533772785826823
 20
-3.717341157518253
 30
0.0
  0
VERTEX
  8
0
 10
8.452245223338071
 20
-3.661207888914239
 30
0.0
  0
VERTEX
  8
0
 10
8.366261055560663
 20
-3.6134143527366063
 30
0.0
  0
VERTEX
  8
0
 10
8.2765759144527
 20
-3.5743805602997587
 30
0.0
  0
VERTEX
  8
0
 10
8.183977956258968
 20
-3.5444495419751374
 30
0.0
  0
VERTEX
  8
0
 10
8.089280935165549
 20
-3.5238843326279854
 30
0.0
  0
VERTEX
  8
0
 10
7.993317051998757
 20
-3.5128656600574923
 30
0.0
  0
VERTEX
  8
0
 10
7.896929640814358
 20
-3.5114903567543974
 30
0.0
  0
VERTEX
  8
0
 10
7.800965757647564
 20
-3.5197705089335782
 30
0.0
  0
VERTEX
  8
0
 10
7.706268736554145
 20
-3.5376333503199624
 30
0.0
  0
VERTEX
  8
0
 10
7.613670778360413
 20
-3.564921901621166
 30
0.0
  0
VERTEX
  8
0
 10
7.523985637252449
 20
-3.6013963500671604
 30
0.0
  0
VERTEX
  8
0
 10
7.438001469475044
 20
-3.64673615689352
 30
0.0
  0
VERTEX
  8
0
 10
7.35647390698629
 20
-3.700542874247608
 30
0.0
  0
VERTEX
  8
0
 10
7.28011941693676
 20
-3.7623436467626323
 30
0.0
  0
VERTEX
  8
0
 10
7.209609005330428
 20
-3.831595367027607
 30
0.0
  0
VERTEX
  8
0
 10
7.145562320199776
 20
-3.9076894484348177
 30
0.0
  0
VERTEX
  8
0
 10
7.088542206116609
 20
-3.9899571734608
 30
0.0
  0
VERTEX
  8
0
 10
7.039049757893716
 20
-4.077675570379992
 30
0.0
  0
VERTEX
  8
0
 10
6.997519916945641
 20
-4.170073766766248
 30
0.0
  0
VERTEX
  8
0
 10
6.964317649007889
 20
-4.266339763947439
 30
0.0
  0
VERTEX
  8
0
 10
6.939734736804926
 20
-4.365627572878974
 30
0.0
  0
VERTEX
  8
0
 10
6.923987215853101
 20
-4.467064648725949
 30
0.0
  0
VERTEX
  8
0
 10
6.917213475932759
 20
-4.5697595588185305
 30
0.0
  0
VERTEX
  8
0
 10
6.919473044913877
 20
-4.672809816594306
 30
0.0
  0
VERTEX
  8
0
 10
6.930746065623004
 20
-4.7753098126826465
 30
0.0
  0
VERTEX
  8
0
 10
6.950933470348812
 20
-4.876358773432415
 30
0.0
  0
VERTEX
  8
0
 10
6.979857851452711
 20
-4.975068676943207
 30
0.0
  0
VERTEX
  8
0
 10
7.0172650204335465
 20
-5.0705720570337345
 30
0.0
  0
VERTEX
  8
0
 10
7.062826241745295
 20
-5.162029626565824
 30
0.0
  0
VERTEX
  8
0
 10
7.116141121736862
 20
-5.24863765312996
 30
0.0
  0
VERTEX
  8
0
 10
7.17674112732588
 20
-5.329635022274604
 30
0.0
  0
VERTEX
  8
0
 10
7.244093703484287
 20
-5.40430992620735
 30
0.0
  0
VERTEX
  8
0
 10
7.31760695335106
 20
-5.472006119187416
 30
0.0
  0
VERTEX
  8
0
 10
7.396634839843111
 20
-5.532128684636791
 30
0.0
  0
VERTEX
  8
0
 10
7.480482863052406
 20
-5.584149263288528
 30
0.0
  0
VERTEX
  8
0
 10
7.568414163536125
 20
-5.627610696426974
 30
0.0
  0
VERTEX
  8
0
 10
7.6596559978639425
 20
-5.662131043415
 30
0.0
  0
VERTEX
  8
0
 10
7.753406529515075
 20
-5.687406938202053
 30
0.0
  0
VERTEX
  8
0
 10
7.848841875446458
 20
-5.703216255315921
 30
0.0
  0
VERTEX
  8
0
 10
7.945123346406554
 20
-5.709420061909363
 30
0.0
  0
SEQEND
  8
0
  0
POLYLINE
  8
0
 62
0
 70
0
 66
1
 10
0.0
 20
0.0
 30
0.0
  0
VERTEX
  8
0
 10
-18.227047677050336
 20
-5.335982568201115
 30
0.0
  0
VERTEX
  8
0
 10
-18.13076620609024
 20
-5.332526344998723
 30
0.0
  0
VERTEX
  8
0
 10
-18.035330860158858
 20
-5.319440465414273
 30
0.0
  0
VERTEX
  8
0
 10
-17.941580328507726
 20
-5.29683992862807
 30
0.0
  0
VERTEX
  8
0
 10
-17.85033849417991
 20
-5.264923348970021
 30
0.0
  0
VERTEX
  8
0
 10
-17.76240719369619
 20
-5.223971210489761
 30
0.0
  0
VERTEX
  8
0
 10
-17.678559170486892
 20
-5.174343402052739
 30
0.0
  0
VERTEX
  8
0
 10
-17.599531283994843
 20
-5.1164760546239245
 30
0.0
  0
VERTEX
  8
0
 10
-17.526018034128068
 20
-5.050877708533213
 30
0.0
  0
VERTEX
  8
0
 10
-17.458665457969662
 20
-4.978124844404719
 30
0.0
  0
VERTEX
  8
0
 10
-17.398065452380646
 20
-4.898856817024318
 30
0.0
  0
VERTEX
  8
0
 10
-17.344750572389078
 20
-4.813770236666807
 30
0.0
  0
VERTEX
  8
0
 10
-17.299189351077327
 20
-4.7236128472597585
 30
0.0
  0
VERTEX
  8
0
 10
-17.261782182096493
 20
-4.629176955183
 30
0.0
  0
VERTEX
  8
0
 10
-17.232857800992594
 20
-4.5312924664516565
 30
0.0
  0
VERTEX
  8
0
 10
-17.212670396266784
 20
-4.430819593472255
 30
0.0
  0
VERTEX
  8
0
 10
-17.201397375557658
 20
-4.328641295465161
 30
0.0
  0
VERTEX
  8
0
 10
-17.19913780657654
 20
-4.225655518987205
 30
0.0
  0
VERTEX
  8
0
 10
-17.205911546496882
 20
-4.122767306745051
 30
0.0
  0
VERTEX
  8
0
 10
-17.22165906744871
 20
-4.0208808440473565
 30
0.0
  0
VERTEX
  8
0
 10
-17.24624197965167
 20
-3.920891512791754
 30
0.0
  0
VERTEX
  8
0
 10
-17.27944424758942
 20
-3.82367802281656
 30
0.0
  0
VERTEX
  8
0
 10
-17.320974088537497
 20
-3.7300946897671015
 30
0.0
  0
VERTEX
  8
0
 10
-17.37046653676039
 20
-3.6409639273391186
 30
0.0
  0
VERTEX
  8
0
 10
-17.427486650843555
 20
-3.5570690198776314
 30
0.0
  0
VERTEX
  8
0
 10
-17.491533335974207
 20
-3.4791472388459566
 30
0.0
  0
VERTEX
  8
0
 10
-17.56204374758054
 20
-3.407883363657569
 30
0.0
  0
VERTEX
  8
0
 10
-17.638398237630067
 20
-3.3439036638100053
 30
0.0
  0
VERTEX
  8
0
 10
-17.719925800118823
 20
-3.2877703952059916
 30
0.0
  0
VERTEX
  8
0
 10
-17.805909967896227
 20
-3.2399768590283586
 30
0.0
  0
VERTEX
  8
0
 10
-17.895595109004194
 20
-3.200943066591511
 30
0.0
  0
VERTEX
  8
0
 10
-17.988193067197926
 20
-3.1710120482668898
 30
0.0
  0
VERTEX
  8
0
 10
-18.082890088291343
 20
-3.1504468389197378
 30
0.0
  0
VERTEX
  8
0
 10
-18.178853971458135
 20
-3.1394281663492447
 30
0.0
  0
VERTEX
  8
0
 10
-18.275241382642534
 20
-3.1380528630461497
 30
0.0
  0
VERTEX
  8
0
 10
-18.371205265809326
 20
-3.1463330152253306
 30
0.0
  0
VERTEX
  8
0
 10
-18.465902286902747
 20
-3.1641958566117148
 30
0.0
  0
VERTEX
  8
0
 10
-18.55850024509648
 20
-3.1914844079129185
 30
0.0
  0
VERTEX
  8
0
 10
-18.648185386204442
 20
-3.2279588563589128
 30
0.0
  0
VERTEX
  8
0
 10
-18.734169553981847
 20
-3.2732986631852725
 30
0.0
  0
VERTEX
  8
0
 10
-18.815697116470602
 20
-3.3271053805393604
 30
0.0
  0
VERTEX
  8
0
 10
-18.892051606520134
 20
-3.3889061530543847
 30
0.0
  0
VERTEX
  8
0
 10
-18.962562018126466
 20
-3.4581578733193594
 30
0.0
  0
VERTEX
  8
0
 10
-19.026608703257118
 20
-3.53425195472657
 30
0.0
  0
VERTEX
  8
0
 10
-19.083628817340283
 20
-3.6165196797525523
 30
0.0
  0
VERTEX
  8
0
 10
-19.133121265563176
 20
-3.7042380766717447
 30
0.0
  0
VERTEX
  8
0
 10
-19.174651106511252
 20
-3.796636273058001
 30
0.0
  0
VERTEX
  8
0
 10
-19.207853374449
 20
-3.8929022702391913
 30
0.0
  0
VERTEX
  8
0
 10
-19.232436286651964
 20
-3.9921900791707268
 30
0.0
  0
VERTEX
  8
0
 10
-19.24818380760379
 20
-4.0936271550177015
 30
0.0
  0
VERTEX
  8
0
 10
-19.254957547524132
 20
-4.196322065110283
 30
0.0
  0
VERTEX
  8
0
 10
-19.252697978543015
 20
-4.299372322886058
 30
0.0
  0
VERTEX
  8
0
 10
-19.24142495783389
 20
-4.401872318974399
 30
0.0
  0
VERTEX
  8
0
 10
-19.22123755310808
 20
-4.502921279724166
 30
0.0
  0
VERTEX
  8
0
 10
-19.19231317200418
 20
-4.601631183234959
 30
0.0
  0
VERTEX
  8
0
 10
-19.154906003023346
 20
-4.697134563325487
 30
0.0
  0
VERTEX
  8
0
 10
-19.1093447817116
 20
-4.788592132857576
 30
0.0
  0
VERTEX
  8
0
 10
-19.05602990172003
 20
-4.875200159421713
 30
0.0
  0
VERTEX
  8
0
 10
-18.99542989613101
 20
-4.956197528566356
 30
0.0
  0
VERTEX
  8
0
 10
-18.928077319972605
 20
-5.030872432499103
 30
0.0
  0
VERTEX
  8
0
 10
-18.85456407010583
 20
-5.098568625479168
 30
0.0
  0
VERTEX
  8
0
 10
-18.77553618361378
 20
-5.158691190928543
 30
0.0
  0
VERTEX
  8
0
 10
-18.691688160404485
 20
-5.21071176958028
 30
0.0
  0
VERTEX
  8
0
 10
-18.603756859920768
 20
-5.254173202718726
 30
0.0
  0
VERTEX
  8
0
 10
-18.51251502559295
 20
-5.288693549706752
 30
0.0
  0
VERTEX
  8
0
 10
-18.418764493941815
 20
-5.3139694444938055
 30
0.0
  0
VERTEX
  8
0
 10
-18.323329148010433
 20
-5.329778761607673
 30
0.0
  0
VERTEX
  8
0
 10
-18.227047677050336
 20
-5.335982568201115
 30
0.0
  0
SEQEND
  8
0
  0
POLYLINE
  8
0
 62
0
 70
0
 66
1
 10
0.0
 20
0.0
 30
0.0
  0
VERTEX
  8
0
 10
7.945123346406555
 20
21.271559925319213
 30
0.0
  0
VERTEX
  8
0
 10
8.041404817366653
 20
21.275016148521605
 30
0.0
  0
VERTEX
  8
0
 10
8.136840163298034
 20
21.288102028106056
 30
0.0
  0
VERTEX
  8
0
 10
8.230590694949166
 20
21.31070256489226
 30
0.0
  0
VERTEX
  8
0
 10
8.321832529276984
 20
21.34261914455031
 30
0.0
  0
VERTEX
  8
0
 10
8.409763829760703
 20
21.383571283030566
 30
0.0
  0
VERTEX
  8
0
 10
8.493611852969998
 20
21.43319909146759
 30
0.0
  0
VERTEX
  8
0
 10
8.57263973946205
 20
21.491066438896404
 30
0.0
  0
VERTEX
  8
0
 10
8.646152989328822
 20
21.556664784987113
 30
0.0
  0
VERTEX
  8
0
 10
8.713505565487228
 20
21.62941764911561
 30
0.0
  0
VERTEX
  8
0
 10
8.774105571076248
 20
21.70868567649601
 30
0.0
  0
VERTEX
  8
0
 10
8.827420451067814
 20
21.793772256853522
 30
0.0
  0
VERTEX
  8
0
 10
8.872981672379565
 20
21.88392964626057
 30
0.0
  0
VERTEX
  8
0
 10
8.9103888413604
 20
21.97836553833733
 30
0.0
  0
VERTEX
  8
0
 10
8.939313222464298
 20
22.07625002706867
 30
0.0
  0
VERTEX
  8
0
 10
8.959500627190106
 20
22.176722900048073
 30
0.0
  0
VERTEX
  8
0
 10
8.970773647899234
 20
22.278901198055166
 30
0.0
  0
VERTEX
  8
0
 10
8.973033216880353
 20
22.381886974533124
 30
0.0
  0
VERTEX
  8
0
 10
8.96625947696001
 20
22.484775186775277
 30
0.0
  0
VERTEX
  8
0
 10
8.950511956008185
 20
22.586661649472973
 30
0.0
  0
VERTEX
  8
0
 10
8.925929043805223
 20
22.686650980728572
 30
0.0
  0
VERTEX
  8
0
 10
8.892726775867471
 20
22.78386447070377
 30
0.0
  0
VERTEX
  8
0
 10
8.851196934919397
 20
22.877447803753228
 30
0.0
  0
VERTEX
  8
0
 10
8.801704486696504
 20
22.96657856618121
 30
0.0
  0
VERTEX
  8
0
 10
8.744684372613337
 20
23.050473473642697
 30
0.0
  0
VERTEX
  8
0
 10
8.680637687482685
 20
23.128395254674373
 30
0.0
  0
VERTEX
  8
0
 10
8.610127275876353
 20
23.19965912986276
 30
0.0
  0
VERTEX
  8
0
 10
8.533772785826823
 20
23.263638829710324
 30
0.0
  0
VERTEX
  8
0
 10
8.452245223338071
 20
23.319772098314335
 30
0.0
  0
VERTEX
  8
0
 10
8.366261055560663
 20
23.36756563449197
 30
0.0
  0
VERTEX
  8
0
 10
8.2765759144527
 20
23.406599426928818
 30
0.0
  0
VERTEX
  8
0
 10
8.183977956258968
 20
23.43653044525344
 30
0.0
  0
VERTEX
  8
0
 10
8.089280935165549
 20
23.45709565460059
 30
0.0
  0
VERTEX
  8
0
 10
7.993317051998757
 20
23.468114327171083
 30
0.0
  0
VERTEX
  8
0
 10
7.896929640814358
 20
23.46948963047418
 30
0.0
  0
VERTEX
  8
0
 10
7.800965757647564
 20
23.461209478294997
 30
0.0
  0
VERTEX
  8
0
 10
7.706268736554145
 20
23.443346636908615
 30
0.0
  0
VERTEX
  8
0
 10
7.613670778360413
 20
23.41605808560741
 30
0.0
  0
VERTEX
  8
0
 10
7.523985637252449
 20
23.379583637161417
 30
0.0
  0
VERTEX
  8
0
 10
7.438001469475044
 20
23.334243830335055
 30
0.0
  0
VERTEX
  8
0
 10
7.35647390698629
 20
23.280437112980966
 30
0.0
  0
VERTEX
  8
0
 10
7.28011941693676
 20
23.21863634046594
 30
0.0
  0
VERTEX
  8
0
 10
7.209609005330428
 20
23.14938462020097
 30
0.0
  0
VERTEX
  8
0
 10
7.145562320199776
 20
23.07329053879376
 30
0.0
  0
VERTEX
  8
0
 10
7.088542206116609
 20
22.991022813767774
 30
0.0
  0
VERTEX
  8
0
 10
7.039049757893716
 20
22.903304416848584
 30
0.0
  0
VERTEX
  8
0
 10
6.997519916945641
 20
22.81090622046233
 30
0.0
  0
VERTEX
  8
0
 10
6.964317649007889
 20
22.714640223281137
 30
0.0
  0
VERTEX
  8
0
 10
6.939734736804926
 20
22.6153524143496
 30
0.0
  0
VERTEX
  8
0
 10
6.923987215853101
 20
22.513915338502628
 30
0.0
  0
VERTEX
  8
0
 10
6.917213475932759
 20
22.411220428410044
 30
0.0
  0
VERTEX
  8
0
 10
6.919473044913877
 20
22.30817017063427
 30
0.0
  0
VERTEX
  8
0
 10
6.930746065623004
 20
22.20567017454593
 30
0.0
  0
VERTEX
  8
0
 10
6.950933470348812
 20
22.10462121379616
 30
0.0
  0
VERTEX
  8
0
 10
6.979857851452711
 20
22.00591131028537
 30
0.0
  0
VERTEX
  8
0
 10
7.0172650204335465
 20
21.910407930194843
 30
0.0
  0
VERTEX
  8
0
 10
7.062826241745295
 20
21.818950360662754
 30
0.0
  0
VERTEX
  8
0
 10
7.116141121736862
 20
21.732342334098615
 30
0.0
  0
VERTEX
  8
0
 10
7.17674112732588
 20
21.65134496495397
 30
0.0
  0
VERTEX
  8
0
 10
7.244093703484287
 20
21.576670061021225
 30
0.0
  0
VERTEX
  8
0
 10
7.31760695335106
 20
21.50897386804116
 30
0.0
  0
VERTEX
  8
0
 10
7.396634839843111
 20
21.448851302591784
 30
0.0
  0
VERTEX
  8
0
 10
7.480482863052406
 20
21.39683072394005
 30
0.0
  0
VERTEX
  8
0
 10
7.568414163536125
 20
21.353369290801602
 30
0.0
  0
VERTEX
  8
0
 10
7.6596559978639425
 20
21.318848943813578
 30
0.0
  0
VERTEX
  8
0
 10
7.753406529515075
 20
21.293573049026524
 30
0.0
  0
VERTEX
  8
0
 10
7.848841875446458
 20
21.277763731912657
 30
0.0
  0
VERTEX
  8
0
 10
7.945123346406554
 20
21.271559925319213
 30
0.0
  0
SEQEND
  8
0
  0
POLYLINE
  8
0
 62
0
 70
0
 66
1
 10
0.0
 20
0.0
 30
0.0
  0
VERTEX
  8
0
 10
-18.227047677050336
 20
21.644997419027458
 30
0.0
  0
VERTEX
  8
0
 10
-18.13076620609024
 20
21.64845364222985
 30
0.0
  0
VERTEX
  8
0
 10
-18.035330860158858
 20
21.6615395218143
 30
0.0
  0
VERTEX
  8
0
 10
-17.941580328507726
 20
21.684140058600505
 30
0.0
  0
VERTEX
  8
0
 10
-17.85033849417991
 20
21.716056638258554
 30
0.0
  0
VERTEX
  8
0
 10
-17.76240719369619
 20
21.75700877673881
 30
0.0
  0
VERTEX
  8
0
 10
-17.678559170486892
 20
21.806636585175834
 30
0.0
  0
VERTEX
  8
0
 10
-17.599531283994843
 20
21.86450393260465
 30
0.0
  0
VERTEX
  8
0
 10
-17.526018034128068
 20
21.930102278695358
 30
0.0
  0
VERTEX
  8
0
 10
-17.458665457969662
 20
22.002855142823854
 30
0.0
  0
VERTEX
  8
0
 10
-17.398065452380646
 20
22.082123170204255
 30
0.0
  0
VERTEX
  8
0
 10
-17.344750572389078
 20
22.167209750561767
 30
0.0
  0
VERTEX
  8
0
 10
-17.299189351077327
 20
22.257367139968814
 30
0.0
  0
VERTEX
  8
0
 10
-17.261782182096493
 20
22.351803032045574
 30
0.0
  0
VERTEX
  8
0
 10
-17.232857800992594
 20
22.449687520776916
 30
0.0
  0
VERTEX
  8
0
 10
-17.212670396266784
 20
22.550160393756318
 30
0.0
  0
VERTEX
  8
0
 10
-17.201397375557658
 20
22.65233869176341
 30
0.0
  0
VERTEX
  8
0
 10
-17.19913780657654
 20
22.75532446824137
 30
0.0
  0
VERTEX
  8
0
 10
-17.205911546496882
 20
22.858212680483522
 30
0.0
  0
VERTEX
  8
0
 10
-17.22165906744871
 20
22.960099143181218
 30
0.0
  0
VERTEX
  8
0
 10
-17.24624197965167
 20
23.060088474436817
 30
0.0
  0
VERTEX
  8
0
 10
-17.27944424758942
 20
23.157301964412014
 30
0.0
  0
VERTEX
  8
0
 10
-17.320974088537497
 20
23.250885297461473
 30
0.0
  0
VERTEX
  8
0
 10
-17.37046653676039
 20
23.340016059889454
 30
0.0
  0
VERTEX
  8
0
 10
-17.427486650843555
 20
23.423910967350942
 30
0.0
  0
VERTEX
  8
0
 10
-17.491533335974207
 20
23.50183274838262
 30
0.0
  0
VERTEX
  8
0
 10
-17.56204374758054
 20
23.573096623571004
 30
0.0
  0
VERTEX
  8
0
 10
-17.638398237630067
 20
23.63707632341857
 30
0.0
  0
VERTEX
  8
0
 10
-17.719925800118823
 20
23.69320959202258
 30
0.0
  0
VERTEX
  8
0
 10
-17.805909967896227
 20
23.741003128200216
 30
0.0
  0
VERTEX
  8
0
 10
-17.895595109004194
 20
23.780036920637063
 30
0.0
  0
VERTEX
  8
0
 10
-17.988193067197926
 20
23.809967938961684
 30
0.0
  0
VERTEX
  8
0
 10
-18.082890088291343
 20
23.830533148308835
 30
0.0
  0
VERTEX
  8
0
 10
-18.178853971458135
 20
23.841551820879328
 30
0.0
  0
VERTEX
  8
0
 10
-18.275241382642534
 20
23.842927124182424
 30
0.0
  0
VERTEX
  8
0
 10
-18.371205265809326
 20
23.83464697200324
 30
0.0
  0
VERTEX
  8
0
 10
-18.465902286902747
 20
23.81678413061686
 30
0.0
  0
VERTEX
  8
0
 10
-18.55850024509648
 20
23.789495579315656
 30
0.0
  0
VERTEX
  8
0
 10
-18.648185386204442
 20
23.753021130869662
 30
0.0
  0
VERTEX
  8
0
 10
-18.734169553981847
 20
23.7076813240433
 30
0.0
  0
VERTEX
  8
0
 10
-18.815697116470602
 20
23.65387460668921
 30
0.0
  0
VERTEX
  8
0
 10
-18.892051606520134
 20
23.592073834174187
 30
0.0
  0
VERTEX
  8
0
 10
-18.962562018126466
 20
23.522822113909214
 30
0.0
  0
VERTEX
  8
0
 10
-19.026608703257118
 20
23.446728032502005
 30
0.0
  0
VERTEX
  8
0
 10
-19.083628817340283
 20
23.36446030747602
 30
0.0
  0
VERTEX
  8
0
 10
-19.133121265563176
 20
23.27674191055683
 30
0.0
  0
VERTEX
  8
0
 10
-19.174651106511252
 20
23.184343714170573
 30
0.0
  0
VERTEX
  8
0
 10
-19.207853374449
 20
23.088077716989382
 30
0.0
  0
VERTEX
  8
0
 10
-19.232436286651964
 20
22.988789908057846
 30
0.0
  0
VERTEX
  8
0
 10
-19.24818380760379
 20
22.887352832210873
 30
0.0
  0
VERTEX
  8
0
 10
-19.254957547524132
 20
22.78465792211829
 30
0.0
  0
VERTEX
  8
0
 10
-19.252697978543015
 20
22.681607664342515
 30
0.0
  0
VERTEX
  8
0
 10
-19.24142495783389
 20
22.579107668254174
 30
0.0
  0
VERTEX
  8
0
 10
-19.22123755310808
 20
22.478058707504406
 30
0.0
  0
VERTEX
  8
0
 10
-19.19231317200418
 20
22.379348803993615
 30
0.0
  0
VERTEX
  8
0
 10
-19.154906003023346
 20
22.283845423903088
 30
0.0
  0
VERTEX
  8
0
 10
-19.1093447817116
 20
22.192387854371
 30
0.0
  0
VERTEX
  8
0
 10
-19.05602990172003
 20
22.10577982780686
 30
0.0
  0
VERTEX
  8
0
 10
-18.99542989613101
 20
22.024782458662216
 30
0.0
  0
VERTEX
  8
0
 10
-18.928077319972605
 20
21.95010755472947
 30
0.0
  0
VERTEX
  8
0
 10
-18.85456407010583
 20
21.882411361749405
 30
0.0
  0
VERTEX
  8
0
 10
-18.77553618361378
 20
21.82228879630003
 30
0.0
  0
VERTEX
  8
0
 10
-18.691688160404485
 20
21.770268217648294
 30
0.0
  0
VERTEX
  8
0
 10
-18.603756859920768
 20
21.726806784509847
 30
0.0
  0
VERTEX
  8
0
 10
-18.51251502559295
 20
21.692286437521823
 30
0.0
  0
VERTEX
  8
0
 10
-18.418764493941815
 20
21.66701054273477
 30
0.0
  0
VERTEX
  8
0
 10
-18.323329148010433
 20
21.651201225620902
 30
0.0
  0
VERTEX
  8
0
 10
-18.227047677050336
 20
21.644997419027458
 30
0.0
  0
SEQEND
  8
0
  0
POLYLINE
  8
0
 62
0
 70
0
 66
1
 10
0.0
 20
0.0
 30
0.0
  0
VERTEX
  8
0
 10
-7.27248734303528
 20
-7.869370260609649
 30
0.0
  0
VERTEX
  8
0
 10
-7.32241823095201
 20
-7.779237758442721
 30
0.0
  0
VERTEX
  8
0
 10
-7.376490107348897
 20
-7.691835812559719
 30
0.0
  0
VERTEX
  8
0
 10
-7.4345207628686305
 20
-7.60734439501309
 30
0.0
  0
VERTEX
  8
0
 10
-7.496300435173491
 20
-7.525903574938604
 30
0.0
  0
VERTEX
  8
0
 10
-7.561596102986601
 20
-7.447616945879331
 30
0.0
  0
VERTEX
  8
0
 10
-7.630155790123607
 20
-7.372555042565648
 30
0.0
  0
VERTEX
  8
0
 10
-7.701723876173996
 20
-7.300747940215744
 30
0.0
  0
VERTEX
  8
0
 10
-7.7760514389651805
 20
-7.232186824410993
 30
0.0
  0
VERTEX
  8
0
 10
-7.852891887482634
 20
-7.166838804177201
 30
0.0
  0
VERTEX
  8
0
 10
-7.93200744448437
 20
-7.104648482072803
 30
0.0
  0
VERTEX
  8
0
 10
-8.013175533923473
 20
-7.045539917155829
 30
0.0
  0
VERTEX
  8
0
 10
-8.096192141448256
 20
-6.989420738361465
 30
0.0
  0
VERTEX
  8
0
 10
-8.18086740899377
 20
-6.936190139289379
 30
0.0
  0
VERTEX
  8
0
 10
-8.267026854801262
 20
-6.885741237236102
 30
0.0
  0
VERTEX
  8
0
 10
-8.354512486422491
 20
-6.837963038773907
 30
0.0
  0
VERTEX
  8
0
 10
-8.44318371379097
 20
-6.792742084445424
 30
0.0
  0
VERTEX
  8
0
 10
-8.53290757398658
 20
-6.749968658431325
 30
0.0
  0
VERTEX
  8
0
 10
-8.62356904549319
 20
-6.7095323324741685
 30
0.0
  0
VERTEX
  8
0
 10
-8.715071882272044
 20
-6.671322879096353
 30
0.0
  0
VERTEX
  8
0
 10
-8.807327549868045
 20
-6.635235617680251
 30
0.0
  0
VERTEX
  8
0
 10
-8.900255117220798
 20
-6.601171076418047
 30
0.0
  0
VERTEX
  8
0
 10
-8.993781159391466
 20
-6.56903468679474
 30
0.0
  0
VERTEX
  8
0
 10
-9.087839671205463
 20
-6.53873651060428
 30
0.0
  0
VERTEX
  8
0
 10
-9.182371991810939
 20
-6.510190999498866
 30
0.0
  0
VERTEX
  8
0
 10
-9.277326740153077
 20
-6.483316787071372
 30
0.0
  0
VERTEX
  8
0
 10
-9.372659761364217
 20
-6.458036513470944
 30
0.0
  0
VERTEX
  8
0
 10
-9.468334084069776
 20
-6.434276682551718
 30
0.0
  0
VERTEX
  8
0
 10
-9.564318438648833
 20
-6.411967872699682
 30
0.0
  0
VERTEX
  8
0
 10
-9.660561874959646
 20
-6.391049785901246
 30
0.0
  0
VERTEX
  8
0
 10
-9.757033000150795
 20
-6.371461660629637
 30
0.0
  0
VERTEX
  8
0
 10
-9.853711924838864
 20
-6.353144602669691
 30
0.0
  0
VERTEX
  8
0
 10
-9.950579807414671
 20
-6.336043640336157
 30
0.0
  0
VERTEX
  8
0
 10
-10.047618821628436
 20
-6.320107360189799
 30
0.0
  0
VERTEX
  8
0
 10
-10.144812127865741
 20
-6.305287582376867
 30
0.0
  0
VERTEX
  8
0
 10
-10.242143847734322
 20
-6.291539071867314
 30
0.0
  0
VERTEX
  8
0
 10
-10.33959904160528
 20
-6.278819282074285
 30
0.0
  0
VERTEX
  8
0
 10
-10.437163688775778
 20
-6.267088127544355
 30
0.0
  0
VERTEX
  8
0
 10
-10.534824669943738
 20
-6.256307782615164
 30
0.0
  0
VERTEX
  8
0
 10
-10.632569751708651
 20
-6.246442503144077
 30
0.0
  0
VERTEX
  8
0
 10
-10.730387572835976
 20
-6.237458468618584
 30
0.0
  0
VERTEX
  8
0
 10
-10.828267632046249
 20
-6.229323642166249
 30
0.0
  0
VERTEX
  8
0
 10
-10.926200277113361
 20
-6.222007646189004
 30
0.0
  0
VERTEX
  8
0
 10
-11.024176695080099
 20
-6.215481651553733
 30
0.0
  0
VERTEX
  8
0
 10
-11.12218890342245
 20
-6.209718278478079
 30
0.0
  0
VERTEX
  8
0
 10
-11.220229742017692
 20
-6.204691507457504
 30
0.0
  0
VERTEX
  8
0
 10
-11.318292865794817
 20
-6.200376598786694
 30
0.0
  0
VERTEX
  8
0
 10
-11.416372737969267
 20
-6.196750019435447
 30
0.0
  0
VERTEX
  8
0
 10
-11.514464623787516
 20
-6.193789376246246
 30
0.0
  0
VERTEX
  8
0
 10
-11.612564584730514
 20
-6.1914733546278
 30
0.0
  0
VERTEX
  8
0
 10
-11.710669473148457
 20
-6.189781662125858
 30
0.0
  0
VERTEX
  8
0
 10
-11.808776927322938
 20
-6.1886949764597095
 30
0.0
  0
VERTEX
  8
0
 10
-11.906885366975922
 20
-6.188194897819799
 30
0.0
  0
VERTEX
  8
0
 10
-12.004993989268556
 20
-6.188263905428988
 30
0.0
  0
VERTEX
  8
0
 10
-12.103102765356304
 20
-6.188885318577016
 30
0.0
  0
SEQEND
  8
0
  0
POLYLINE
  8
0
 62
0
 70
0
 66
1
 10
0.0
 20
0.0
 30
0.0
  0
VERTEX
  8
0
 10
-3.0094369876082836
 20
-7.9301975736685115
 30
0.0
  0
VERTEX
  8
0
 10
-2.9595060996919234
 20
-7.841489948760255
 30
0.0
  0
VERTEX
  8
0
 10
-2.90543422329546
 20
-7.755631051483475
 30
0.0
  0
VERTEX
  8
0
 10
-2.8474035677761824
 20
-7.672795654183942
 30
0.0
  0
VERTEX
  8
0
 10
-2.785623895471837
 20
-7.593117840011678
 30
0.0
  0
VERTEX
  8
0
 10
-2.7203282276593157
 20
-7.5166945527838855
 30
0.0
  0
VERTEX
  8
0
 10
-2.6517685405229106
 20
-7.443589136588989
 30
0.0
  0
VERTEX
  8
0
 10
-2.5802004544731494
 20
-7.3738243720080625
 30
0.0
  0
VERTEX
  8
0
 10
-2.5058728916826065
 20
-7.307384341132882
 30
0.0
  0
VERTEX
  8
0
 10
-2.4290324431658217
 20
-7.244229116023903
 30
0.0
  0
VERTEX
  8
0
 10
-2.34991688616497
 20
-7.184296513792897
 30
0.0
  0
VERTEX
  8
0
 10
-2.26874879672689
 20
-7.12750424184735
 30
0.0
  0
VERTEX
  8
0
 10
-2.185732189203084
 20
-7.0737541071667565
 30
0.0
  0
VERTEX
  8
0
 10
-2.1010569216585733
 20
-7.02293988537311
 30
0.0
  0
VERTEX
  8
0
 10
-2.0148974758521354
 20
-6.974949714578743
 30
0.0
  0
VERTEX
  8
0
 10
-1.9274118442319452
 20
-6.929668092726946
 30
0.0
  0
VERTEX
  8
0
 10
-1.8387406168645086
 20
-6.886977548343003
 30
0.0
  0
VERTEX
  8
0
 10
-1.7490167566699582
 20
-6.846764571246064
 30
0.0
  0
VERTEX
  8
0
 10
-1.6583552851643328
 20
-6.808915450810772
 30
0.0
  0
VERTEX
  8
0
 10
-1.566852448386455
 20
-6.773317212987303
 30
0.0
  0
VERTEX
  8
0
 10
-1.4745967807914526
 20
-6.739862650651167
 30
0.0
  0
VERTEX
  8
0
 10
-1.381669213439727
 20
-6.708449982465675
 30
0.0
  0
VERTEX
  8
0
 10
-1.2881431712700961
 20
-6.678982544589062
 30
0.0
  0
VERTEX
  8
0
 10
-1.1940846594571304
 20
-6.651368515226257
 30
0.0
  0
VERTEX
  8
0
 10
-1.0995523388526696
 20
-6.6255206720253
 30
0.0
  0
VERTEX
  8
0
 10
-1.0045975905115259
 20
-6.601356182318417
 30
0.0
  0
VERTEX
  8
0
 10
-0.9092645693013729
 20
-6.578796426207733
 30
0.0
  0
VERTEX
  8
0
 10
-0.8135902465968163
 20
-6.557766852495639
 30
0.0
  0
VERTEX
  8
0
 10
-0.7176058920187586
 20
-6.538197147227251
 30
0.0
  0
VERTEX
  8
0
 10
-0.6213624557081123
 20
-6.5200255584251465
 30
0.0
  0
VERTEX
  8
0
 10
-0.5248913305166172
 20
-6.5031904287051265
 30
0.0
  0
VERTEX
  8
0
 10
-0.4282124058281441
 20
-6.4876322962689725
 30
0.0
  0
VERTEX
  8
0
 10
-0.33134452325206715
 20
-6.473295651748655
 30
0.0
  0
VERTEX
  8
0
 10
-0.23430550903819702
 20
-6.460128572997435
 30
0.0
  0
VERTEX
  8
0
 10
-0.13711220280090808
 20
-6.44808239960964
 30
0.0
  0
VERTEX
  8
0
 10
-0.03978048293239311
 20
-6.43711144343369
 30
0.0
  0
VERTEX
  8
0
 10
0.0576747109385215
 20
-6.427172731550668
 30
0.0
  0
VERTEX
  8
0
 10
0.15523935810903844
 20
-6.418225778398481
 30
0.0
  0
VERTEX
  8
0
 10
0.252900339277102
 20
-6.410232383929371
 30
0.0
  0
VERTEX
  8
0
 10
0.3506454210421892
 20
-6.403156454896268
 30
0.0
  0
VERTEX
  8
0
 10
0.44846324216973943
 20
-6.396963846571231
 30
0.0
  0
VERTEX
  8
0
 10
0.5463433013802468
 20
-6.391622222406916
 30
0.0
  0
VERTEX
  8
0
 10
0.6442759464475702
 20
-6.387100929359781
 30
0.0
  0
VERTEX
  8
0
 10
0.7422523644144714
 20
-6.383370886801445
 30
0.0
  0
VERTEX
  8
0
 10
0.8402645727569233
 20
-6.380404487152341
 30
0.0
  0
VERTEX
  8
0
 10
0.938305411352216
 20
-6.378175506579582
 30
0.0
  0
VERTEX
  8
0
 10
1.0363685351293588
 20
-6.376659024308623
 30
0.0
  0
VERTEX
  8
0
 10
1.1344484073038261
 20
-6.37583134930609
 30
0.0
  0
VERTEX
  8
0
 10
1.2325402931221285
 20
-6.375669953298844
 30
0.0
  0
VERTEX
  8
0
 10
1.3306402540652402
 20
-6.376153409302106
 30
0.0
  0
VERTEX
  8
0
 10
1.428745142483375
 20
-6.37726133503717
 30
0.0
  0
VERTEX
  8
0
 10
1.526852596658113
 20
-6.378974340826985
 30
0.0
  0
VERTEX
  8
0
 10
1.6249610363113787
 20
-6.381273981765618
 30
0.0
  0
VERTEX
  8
0
 10
1.7230696586042575
 20
-6.384142714165332
 30
0.0
  0
VERTEX
  8
0
 10
1.82117843469215
 20
-6.387563856492738
 30
0.0
  0
SEQEND
  8
0
  0
ENDBLK
  0
ENDSEC
  0
SECTION
  2
ENTITIES
  0
INSERT
  2
SHAPE2DVIEW002
  8
0
 62
0
 10
0.0
 20
0.0
 30
0.0
  0
ENDSEC
  0
EOF
